<?xml version="1.0" encoding="UTF-8"?>
<svg width="20px" height="20px" viewBox="0 0 20 20" version="1.1" xmlns="http://www.w3.org/2000/svg" xmlns:xlink="http://www.w3.org/1999/xlink">
    <title>Alert_Sound</title>
    <g id="V2" stroke="none" stroke-width="1" fill="none" fill-rule="evenodd">
        <g id="Push-Notifications-2-1_Drafts" transform="translate(-1200.000000, -723.000000)">
            <g id="Column-4" transform="translate(1152.000000, 223.000000)">
                <g id="Notif-Behavior" transform="translate(0.000000, 444.000000)">
                    <g id="Notif1" transform="translate(0.000000, 38.000000)">
                        <g id="Alert_Sound" transform="translate(48.000000, 18.000000)">
                            <rect id="Rectangle" x="0" y="0" width="20" height="20"></rect>
                            <g id="Group" transform="translate(4.000000, 2.000000)" stroke="#9599B6" stroke-linecap="round" stroke-linejoin="round">
                                <g id="sound">
                                    <path d="M10.8333333,5.56514783 C10.8333333,3.25975652 8.89272222,1.39123478 6.5,1.39123478 C4.10655556,1.39123478 2.16666667,3.25975652 2.16666667,5.56514783 C2.16666667,8.41453913 0.497611111,10.4868553 0.0888333333,11.2945074 C0.0303333333,11.4106814 0,11.5365944 0,11.6659857 C0,12.1327683 0.392888889,12.5112031 0.8775,12.5112031 L12.1225,12.5112031 C12.6071111,12.5112031 13,12.1327683 13,11.6659857 C13,11.5365944 12.9689444,11.4106814 12.9104444,11.2945074 C12.5023889,10.4868553 10.8333333,8.41453913 10.8333333,5.56514783 Z" id="Stroke-243"></path>
                                    <path d="M10.1111111,12.5217391 C10.1111111,14.4428986 8.65619444,16 6.86111111,16 C5.06602778,16 3.61111111,14.4428986 3.61111111,12.5217391" id="Stroke-247"></path>
                                    <path d="M5.05533889,1.39130435 L5.05533889,1.39130435 C5.05533889,0.622608696 5.70172778,0 6.49978333,0 C7.29783889,0 7.94422778,0.622608696 7.94422778,1.39130435" id="Stroke-249"></path>
                                    <path d="M10.6865602,0.695652174 C12.2537621,1.39130435 13,3.13527262 13,4.54170887" id="Stroke-855"></path>
                                    <path d="M2.43126628,0.695652174 C0.993451555,1.39130435 -4.81096644e-15,3.13527262 -4.81096644e-15,4.54170887" id="Stroke-855-Copy" transform="translate(1.215633, 2.618681) rotate(360.000000) translate(-1.215633, -2.618681) "></path>
                                </g>
                            </g>
                        </g>
                    </g>
                </g>
            </g>
        </g>
    </g>
</svg>