<?xml version="1.0" encoding="UTF-8"?>
<svg width="12px" height="12px" viewBox="0 0 12 12" version="1.1" xmlns="http://www.w3.org/2000/svg" xmlns:xlink="http://www.w3.org/1999/xlink">
    <title>ic_Down</title>
    <g id="V2" stroke="none" stroke-width="1" fill="none" fill-rule="evenodd">
        <g id="Dashboard+Ticket-tooltip" transform="translate(-651.000000, -511.000000)" fill="#FC5A5A">
            <g id="Top-Module-Today" transform="translate(78.000000, 257.000000)">
                <g id="Group-Copy-2" transform="translate(24.000000, 77.000000)">
                    <g id="module-5" transform="translate(0.000000, 172.000000)">
                        <g id="ic_Down" transform="translate(546.974363, 3.000000)">
                            <path d="M7.51135253,2.89468495 C7.75404377,2.61742267 8.17595049,2.58904685 8.45370755,2.83130577 L8.45370755,2.83130577 L13.7965585,7.49132512 C13.9186621,7.59782358 13.9918211,7.73762751 14.0160166,7.8840346 C14.0215377,7.92175314 14.0249835,7.96047498 14.0249835,8.00000019 L14.0205442,7.91629299 C14.0227027,7.93495997 14.024074,7.95370166 14.0246583,7.97246365 L14.0249835,8.00000019 C14.0249835,8.00956356 14.0247817,8.0190799 14.0243823,8.0285452 C14.023574,8.0378988 14.0228619,8.04755527 14.0219406,8.05719534 C14.0052322,8.25865399 13.8987266,8.43407741 13.7427429,8.54437742 L8.45441715,13.1680748 C8.177003,13.4107249 7.75505657,13.3829437 7.51197343,13.1060238 C7.26889029,12.8291038 7.29672107,12.407909 7.57413522,12.1652589 L7.57413522,12.1652589 L11.5735689,8.66665753 L2.67142527,8.66666686 C2.33610992,8.66666686 2.05851143,8.41999179 2.01081018,8.09851531 L2.0035689,8.00000019 C2.0035689,7.63181036 2.30257838,7.33333352 2.67142527,7.33333352 L2.67142527,7.33333352 L11.5845689,7.33265753 L7.57484482,3.83536128 C7.32486346,3.61732826 7.27683989,3.25438929 7.4466569,2.98185763 Z" id="Shape" transform="translate(8.014276, 8.000000) scale(1, -1) rotate(-90.000000) translate(-8.014276, -8.000000) "></path>
                        </g>
                    </g>
                </g>
            </g>
        </g>
    </g>
</svg>