<?xml version="1.0" encoding="UTF-8"?>
<svg width="40px" height="40px" viewBox="0 0 40 40" version="1.1" xmlns="http://www.w3.org/2000/svg" xmlns:xlink="http://www.w3.org/1999/xlink">
    <title>Details</title>
    <g id="Details" stroke="none" stroke-width="1" fill="none" fill-rule="evenodd">
        <path d="M35.0416667,1 C37.2250833,1 39,2.77491667 39,4.95833333 L39,35.0416667 C39,37.2250833 37.2250833,39 35.0416667,39 L4.95833333,39 C2.77491667,39 1,37.2250833 1,35.0416667 L1,4.95833333 C1,2.77491667 2.77491667,1 4.95833333,1 L35.0416667,1 Z M37.416,8.916 L2.583,8.916 L2.58333333,35.0416667 C2.58333333,36.3510833 3.64891667,37.4166667 4.95833333,37.4166667 L35.0416667,37.4166667 C36.3510833,37.4166667 37.4166667,36.3510833 37.4166667,35.0416667 L37.416,8.916 Z M31.875,27.9166667 C32.312,27.9166667 32.6666667,28.2713333 32.6666667,28.7083333 C32.6666667,29.1453333 32.312,29.5 31.875,29.5 L8.125,29.5 C7.688,29.5 7.33333333,29.1453333 7.33333333,28.7083333 C7.33333333,28.2713333 7.688,27.9166667 8.125,27.9166667 L31.875,27.9166667 Z M31.875,21.5833333 C32.312,21.5833333 32.6666667,21.938 32.6666667,22.375 C32.6666667,22.812 32.312,23.1666667 31.875,23.1666667 L8.125,23.1666667 C7.688,23.1666667 7.33333333,22.812 7.33333333,22.375 C7.33333333,21.938 7.688,21.5833333 8.125,21.5833333 L31.875,21.5833333 Z M31.875,15.25 C32.312,15.25 32.6666667,15.6046667 32.6666667,16.0416667 C32.6666667,16.4786667 32.312,16.8333333 31.875,16.8333333 L8.125,16.8333333 C7.688,16.8333333 7.33333333,16.4786667 7.33333333,16.0416667 C7.33333333,15.6046667 7.688,15.25 8.125,15.25 L31.875,15.25 Z M35.0416667,2.58333333 L4.95833333,2.58333333 C3.64891667,2.58333333 2.58333333,3.64891667 2.58333333,4.95833333 L2.583,7.333 L37.416,7.333 L37.4166667,4.95833333 C37.4166667,3.64891667 36.3510833,2.58333333 35.0416667,2.58333333 Z M8.6,3.85 C9.12467051,3.85 9.55,4.27532949 9.55,4.8 C9.55,5.32467051 9.12467051,5.75 8.6,5.75 C8.07532949,5.75 7.65,5.32467051 7.65,4.8 C7.65,4.27532949 8.07532949,3.85 8.6,3.85 Z M13.35,3.85 C13.8746705,3.85 14.3,4.27532949 14.3,4.8 C14.3,5.32467051 13.8746705,5.75 13.35,5.75 C12.8253295,5.75 12.4,5.32467051 12.4,4.8 C12.4,4.27532949 12.8253295,3.85 13.35,3.85 Z M18.1,3.85 C18.6246705,3.85 19.05,4.27532949 19.05,4.8 C19.05,5.32467051 18.6246705,5.75 18.1,5.75 C17.5753295,5.75 17.15,5.32467051 17.15,4.8 C17.15,4.27532949 17.5753295,3.85 18.1,3.85 Z" id="Combined-Shape" fill="#0062FF"></path>
    </g>
</svg>