<?xml version="1.0" encoding="UTF-8"?>
<svg width="20px" height="16px" viewBox="0 0 20 16" version="1.1" xmlns="http://www.w3.org/2000/svg" xmlns:xlink="http://www.w3.org/1999/xlink">
    <title>Icon/Visibility</title>
    <g id="V2" stroke="none" stroke-width="1" fill="none" fill-rule="evenodd">
        <g id="Login" transform="translate(-559.000000, -372.000000)">
            <g id="Password" transform="translate(277.000000, 355.000000)">
                <g id="iconspace_Visible_25px" transform="translate(280.000000, 13.000000)">
                    <polygon id="Path" points="0 0 24 0 24 24 0 24"></polygon>
                    <polygon id="Path" points="0 0 24 0 24 24 0 24"></polygon>
                    <path d="M2.10998657,11.4374931 C3.95423793,6.90818122 7.75922504,4 12,4 C16.240775,4 20.0457621,6.90818122 21.8900134,11.4374931 C22.0366622,11.797649 22.0366622,12.202351 21.8900134,12.5625069 C20.0457621,17.0918188 16.240775,20 12,20 C7.75922504,20 3.95423793,17.0918188 2.10998657,12.5625069 C1.96333781,12.202351 1.96333781,11.797649 2.10998657,11.4374931 Z M12,18.1496599 C15.4190494,18.1496599 18.5537468,15.7867518 20.1499109,12 C18.5537468,8.21324823 15.4190494,5.85034014 12,5.85034014 C8.58095056,5.85034014 5.44625324,8.21324823 3.85008906,12 C5.44625324,15.7867518 8.58095056,18.1496599 12,18.1496599 Z M12,15.6462585 C10.0212258,15.6462585 8.4171123,14.013773 8.4171123,12 C8.4171123,9.98622703 10.0212258,8.3537415 12,8.3537415 C13.9787742,8.3537415 15.5828877,9.98622703 15.5828877,12 C15.5828877,14.013773 13.9787742,15.6462585 12,15.6462585 Z M12,13.7959184 C12.9746201,13.7959184 13.7647059,12.9918583 13.7647059,12 C13.7647059,11.0081417 12.9746201,10.2040816 12,10.2040816 C11.0253799,10.2040816 10.2352941,11.0081417 10.2352941,12 C10.2352941,12.9918583 11.0253799,13.7959184 12,13.7959184 Z" id="Combined-Shape" fill="#B5B5BE"></path>
                </g>
            </g>
        </g>
    </g>
</svg>