<?xml version="1.0" encoding="UTF-8"?>
<svg width="40px" height="40px" viewBox="0 0 40 40" version="1.1" xmlns="http://www.w3.org/2000/svg" xmlns:xlink="http://www.w3.org/1999/xlink">
    <title>WebURL</title>
    <g id="WebURL" stroke="none" stroke-width="1" fill="none" fill-rule="evenodd">
        <path d="M26.0681818,6 C26.5323636,6 26.9090909,6.38577778 26.9090909,6.86111111 C26.9090909,7.33644444 26.5323636,7.72222222 26.0681818,7.72222222 L4.20454545,7.72222222 C2.81368182,7.72222222 1.68181818,8.88127778 1.68181818,10.3055556 L1.68181818,32.6944444 C1.68181818,34.1187222 2.81368182,35.2777778 4.20454545,35.2777778 L32.7954545,35.2777778 C34.1863182,35.2777778 35.3181818,34.1187222 35.3181818,32.6944444 L35.3181818,17.1944444 C35.3181818,16.7191111 35.6949091,16.3333333 36.1590909,16.3333333 C36.6232727,16.3333333 37,16.7191111 37,17.1944444 L37,32.6944444 C37,35.0693889 35.1146818,37 32.7954545,37 L4.20454545,37 C1.88531818,37 0,35.0693889 0,32.6944444 L0,10.3055556 C0,7.93061111 1.88531818,6 4.20454545,6 L26.0681818,6 Z M34.4947507,3.25070533 L39.3669848,8.02205496 C39.7297027,8.108521 40,8.43909868 40,8.83333333 L39.9960498,8.91852881 C40.0198795,9.16431845 39.9358944,9.41818377 39.7440945,9.60704975 L34.4947507,14.7497232 C34.3232721,14.916003 34.0993001,15 33.8753281,15 C33.6513561,15 33.4273841,14.916003 33.2559055,14.7497232 C32.9146982,14.4137352 32.9146982,13.8720403 33.2559055,13.5360523 L37.207,9.666 L35.8928571,9.66666667 C26.3807143,9.66666667 18.6428571,17.5166667 18.6428571,27.1666667 C18.6428571,27.6266667 18.2748571,28 17.8214286,28 C17.368,28 17,27.6266667 17,27.1666667 C17,16.5983333 25.4755,8 35.8928571,8 L36.866,8 L33.2559055,4.46437627 C32.9146982,4.12838827 32.9146982,3.58669333 33.2559055,3.25070533 C33.5988626,2.91643156 34.1517935,2.91643156 34.4947507,3.25070533 Z" id="Combined-Shape" fill="#0062FF"></path>
    </g>
</svg>