<?xml version="1.0" encoding="UTF-8"?>
<svg width="20px" height="20px" viewBox="0 0 20 20" version="1.1" xmlns="http://www.w3.org/2000/svg" xmlns:xlink="http://www.w3.org/1999/xlink">
    <title>Alert_Silent</title>
    <g id="V2" stroke="none" stroke-width="1" fill="none" fill-rule="evenodd" stroke-linecap="round" stroke-linejoin="round">
        <g id="Push-Notifications-2-1_Drafts" transform="translate(-1200.000000, -861.000000)" stroke="#9599B6">
            <g id="Column-4" transform="translate(1152.000000, 223.000000)">
                <g id="Notif-Behavior" transform="translate(0.000000, 444.000000)">
                    <g id="Notif2" transform="translate(0.000000, 176.000000)">
                        <g id="Alert_Silent" transform="translate(48.000000, 18.000000)">
                            <g id="silent" transform="translate(2.000000, 1.000000)">
                                <path d="M11.826087,12.6666667 C11.826087,14.1395556 10.5025507,15.3333333 8.86956522,15.3333333 C7.23657971,15.3333333 5.91304348,14.1395556 5.91304348,12.6666667" id="Stroke-228"></path>
                                <path d="M7.02173913,1.66666667 L7.02173913,1.66666667 C7.02173913,0.93 7.68326087,0.333333333 8.5,0.333333333 C9.31673913,0.333333333 9.97826087,0.93 9.97826087,1.66666667" id="Stroke-230"></path>
                                <line x1="0.369565217" y1="1" x2="16.6304348" y2="15.6666667" id="Stroke-232"></line>
                                <path d="M4.25643043,4.5058 C4.13299565,4.87313333 4.06499565,5.26246667 4.06499565,5.66646667 C4.06499565,8.39713333 2.35686522,10.3035333 1.93925652,11.0768667 C1.87938696,11.1882 1.84760435,11.3088667 1.84760435,11.4328667 C1.84760435,11.8802 2.2496913,12.2428667 2.74564783,12.2428667 C2.74564783,12.2428667 12.7820499,12.2495333 12.8271368,12.2428667" id="Stroke-234"></path>
                                <path d="M14.8343797,11.989903 C14.8343797,11.989903 14.8992915,11.6715365 14.460737,11.0746279 C14.0221824,10.4777194 12.9350783,8.1642 12.9350783,5.66686667 C12.9350783,3.45753333 10.9490348,1.66686667 8.50029565,1.66686667 C7.05455652,1.66686667 5.77438261,2.29353333 4.96429565,3.25886667" id="Stroke-236"></path>
                            </g>
                        </g>
                    </g>
                </g>
            </g>
        </g>
    </g>
</svg>