<?xml version="1.0" encoding="UTF-8"?>
<svg width="40px" height="40px" viewBox="0 0 40 40" version="1.1" xmlns="http://www.w3.org/2000/svg" xmlns:xlink="http://www.w3.org/1999/xlink">
    <title>AppScreen</title>
    <g id="AppScreen" stroke="none" stroke-width="1" fill="none" fill-rule="evenodd">
        <path d="M35.6521739,0 C38.0504348,0 40,1.94956522 40,4.34782609 L40,35.6521739 C40,38.0504348 38.0504348,40 35.6521739,40 L16.5217391,40 C14.1234783,40 12.173913,38.0504348 12.173913,35.6521739 L12.173913,25.2173913 C12.173913,24.7373913 12.5634783,24.3478261 13.0434783,24.3478261 C13.5234783,24.3478261 13.9130435,24.7373913 13.9130435,25.2173913 L13.912913,31.999 L38.2352941,32 L38.259913,32.001 L38.2605639,7.73866386 L38.2479537,7.73901349 L38.2479537,7.73901349 L13.912913,7.739 L13.9130435,14.7826087 C13.9130435,15.2626087 13.5234783,15.6521739 13.0434783,15.6521739 C12.5634783,15.6521739 12.173913,15.2626087 12.173913,14.7826087 L12.173913,4.34782609 C12.173913,1.94956522 14.1234783,0 16.5217391,0 L35.6521739,0 Z M38.2605639,33.7386639 L38.2479537,33.7390135 L38.2479537,33.7390135 L13.912913,33.739 L13.9130435,35.6521739 C13.9130435,37.0904348 15.0834783,38.2608696 16.5217391,38.2608696 L35.6521739,38.2608696 C37.0904348,38.2608696 38.2608696,37.0904348 38.2608696,35.6521739 L38.2605639,33.7386639 Z M26.2,35.1 C26.7522847,35.1 27.2,35.5477153 27.2,36.1 C27.2,36.6522847 26.7522847,37.1 26.2,37.1 C25.6477153,37.1 25.2,36.6522847 25.2,36.1 C25.2,35.5477153 25.6477153,35.1 26.2,35.1 Z M24.0921739,14.1669565 L29.3095652,19.3843478 L29.323411,19.3984714 L29.345,19.422 L29.322,19.398 L29.368,19.45 L29.3928215,19.4804857 L29.3928215,19.4804857 C29.4102191,19.503719 29.4263318,19.5276946 29.4412443,19.5524732 L29.4515942,19.5702415 L29.4515942,19.5702415 L29.4632855,19.5913226 L29.4853814,19.635908 L29.5056096,19.6834035 L29.5056096,19.6834035 C29.5440323,19.7810475 29.5652174,19.8880648 29.5652174,20 C29.5652174,20.1131012 29.5435886,20.2211815 29.5042443,20.3203275 C29.4995287,20.3319556 29.4947154,20.3433727 29.4896471,20.3547049 C29.47927,20.3780799 29.467804,20.4009071 29.4553907,20.4231344 L29.4413111,20.4473232 L29.4413111,20.4473232 C29.4267154,20.4716679 29.4110474,20.4950468 29.3943147,20.5175891 C29.3874532,20.526751 29.3804258,20.5358394 29.3731942,20.5448193 C29.3588938,20.562645 29.344047,20.5796744 29.3285683,20.5961019 L29.3095652,20.6156522 L29.3095652,20.6156522 L24.0921739,25.8330435 C23.9234783,26.0017391 23.7008696,26.0869565 23.4782609,26.0869565 C23.2556522,26.0869565 23.0330435,26.0017391 22.8626087,25.8330435 C22.5234783,25.4921739 22.5234783,24.9426087 22.8626087,24.6017391 L26.597,20.8686087 L0.869565217,20.8695652 C0.389565217,20.8695652 8.84625706e-13,20.48 8.84625706e-13,20 C8.84625706e-13,19.52 0.389565217,19.1304348 0.869565217,19.1304348 L26.596,19.1296087 L22.8626087,15.3982609 C22.5234783,15.0573913 22.5234783,14.5078261 22.8626087,14.1669565 C23.2034783,13.8278261 23.7530435,13.8278261 24.0921739,14.1669565 Z M35.6521739,1.73913043 L16.5217391,1.73913043 C15.0834783,1.73913043 13.9130435,2.90956522 13.9130435,4.34782609 L13.912913,5.999 L38.2352941,6 L38.259913,6.001 L38.2608696,4.34782609 C38.2608696,2.90956522 37.0904348,1.73913043 35.6521739,1.73913043 Z M30.3,3.2 C30.6865993,3.2 31,3.51340068 31,3.9 C31,4.28659932 30.6865993,4.6 30.3,4.6 L21.7,4.6 C21.3134007,4.6 21,4.28659932 21,3.9 C21,3.51340068 21.3134007,3.2 21.7,3.2 L30.3,3.2 Z" id="Combined-Shape" fill="#0062FF"></path>
    </g>
</svg>