<?xml version="1.0" encoding="UTF-8"?>
<svg width="40px" height="40px" viewBox="0 0 40 40" version="1.1" xmlns="http://www.w3.org/2000/svg" xmlns:xlink="http://www.w3.org/1999/xlink">
    <title>NoAction</title>
    <g id="NoAction" stroke="none" stroke-width="1" fill="none" fill-rule="evenodd">
        <path d="M33.4254792,6.5575 C40.8338958,13.9516667 40.8338958,26.0166667 33.4254792,33.4266667 C29.7220625,37.1316667 24.8564792,38.9683333 19.9908958,38.9683333 C15.1253125,38.9683333 10.2597292,37.1316667 6.5563125,33.4266667 C-0.852104167,26.0166667 -0.852104167,13.9516667 6.5563125,6.5575 C13.9647292,-0.8525 26.0170625,-0.8525 33.4254792,6.5575 Z M32.8533494,8.23837363 L8.25012383,32.8517326 C15.0759331,39.0897801 25.7033993,38.9067026 32.3060625,32.3025 C38.9093671,25.6976558 39.091796,15.0657295 32.8533494,8.23837363 Z M19.9908958,2.58333333 C15.5306458,2.58333333 11.0703958,4.2775 7.67572917,7.66583333 C1.0724246,14.2706775 0.889995644,24.9026038 7.12844229,31.7299597 L31.7389844,7.12444654 C28.4229166,4.09703774 24.2069062,2.58333333 19.9908958,2.58333333 Z" id="Combined-Shape" fill="#0062FF"></path>
    </g>
</svg>