<svg width="24" height="24" viewBox="0 0 24 24" fill="none" xmlns="http://www.w3.org/2000/svg">
<path fill-rule="evenodd" clip-rule="evenodd" d="M17.5 8C17.776 8 18 8.22 18 8.5V16.5C18 17.71 17.14 18.72 16 18.95V22.5C16 23.33 15.327 24 14.5 24C13.673 24 13 23.33 13 22.5V19H11V22.5C11 23.33 10.327 24 9.5 24C8.673 24 8 23.33 8 22.5V18.95C6.86 18.72 6 17.71 6 16.5V8.5C6 8.22 6.224 8 6.5 8H17.5ZM3.5 8C4.327 8 5 8.67 5 9.5V16.5C5 17.33 4.327 18 3.5 18C2.673 18 2 17.33 2 16.5V9.5C2 8.67 2.673 8 3.5 8ZM20.5 8C21.327 8 22 8.67 22 9.5V16.5C22 17.33 21.327 18 20.5 18C19.673 18 19 17.33 19 16.5V9.5C19 8.67 19.673 8 20.5 8ZM16.146 0.15C16.342 -0.05 16.658 -0.05 16.854 0.15C17.049 0.34 17.049 0.66 16.854 0.85L15.635 2.07C17.088 3.06 18 4.64 18 6.5C18 6.78 17.776 7 17.5 7H6.5C6.224 7 6 6.78 6 6.5C6 4.64 6.912 3.06 8.365 2.07L7.146 0.85C6.951 0.66 6.951 0.34 7.146 0.15C7.342 -0.05 7.658 -0.05 7.854 0.15L9.274 1.57C10.084 1.21 11.005 1 12 1C12.995 1 13.916 1.21 14.726 1.57L16.146 0.15ZM14.5 4C14.224 4 14 4.22 14 4.5C14 4.78 14.224 5 14.5 5C14.776 5 15 4.78 15 4.5C15 4.22 14.776 4 14.5 4ZM9.5 4C9.224 4 9 4.22 9 4.5C9 4.78 9.224 5 9.5 5C9.776 5 10 4.78 10 4.5C10 4.22 9.776 4 9.5 4Z" fill="#67E08E"/>
</svg>
