<svg width="24" height="24" viewBox="0 0 24 24" fill="none" xmlns="http://www.w3.org/2000/svg">
<path fill-rule="evenodd" clip-rule="evenodd" d="M1 0C0.447715 0 0 0.447715 0 1V16C0 16.5523 0.447715 17 1 17H7V23C7 23.5523 7.44772 24 8 24H23C23.5523 24 24 23.5523 24 23V8C24 7.44772 23.5523 7 23 7H17V1C17 0.447715 16.5523 0 16 0H1ZM15.96 9.96C16.4989 9.96 16.9382 9.53374 16.9592 9H22V22H9V16.9592C9.53374 16.9382 9.96 16.4989 9.96 15.96C9.96 15.4209 9.53334 14.9814 8.99924 14.9608C8.97863 14.4267 8.53914 14 8 14C7.44772 14 7 14.4477 7 15H2V2H15L15 7C14.4477 7 14 7.44772 14 8C14 8.53914 14.4267 8.97863 14.9608 8.99924C14.9814 9.53334 15.4209 9.96 15.96 9.96ZM9 11.5C9 10.9477 8.55229 10.5 8 10.5C7.44772 10.5 7 10.9477 7 11.5V12.5C7 13.0523 7.44772 13.5 8 13.5C8.55229 13.5 9 13.0523 9 12.5V11.5ZM7 8C7 7.44772 7.44772 7 8 7H8.96C9.51229 7 9.96 7.44772 9.96 8C9.96 8.53914 9.53334 8.97863 8.99924 8.99924C8.97863 9.53334 8.53914 9.96 8 9.96C7.44772 9.96 7 9.51229 7 8.96V8ZM11.5 7C10.9477 7 10.5 7.44772 10.5 8C10.5 8.55229 10.9477 9 11.5 9H12.5C13.0523 9 13.5 8.55229 13.5 8C13.5 7.44772 13.0523 7 12.5 7H11.5ZM17 11.5C17 10.9477 16.5523 10.5 16 10.5C15.4477 10.5 15 10.9477 15 11.5V12.5C15 13.0523 15.4477 13.5 16 13.5C16.5523 13.5 17 13.0523 17 12.5V11.5ZM15.96 14C16.5123 14 16.96 14.4477 16.96 15V15.96C16.96 16.5123 16.5123 16.96 15.96 16.96H15C14.4477 16.96 14 16.5123 14 15.96C14 15.4209 14.4267 14.9814 14.9608 14.9608C14.9814 14.4267 15.4209 14 15.96 14ZM11.5 15C10.9477 15 10.5 15.4477 10.5 16C10.5 16.5523 10.9477 17 11.5 17H12.5C13.0523 17 13.5 16.5523 13.5 16C13.5 15.4477 13.0523 15 12.5 15H11.5Z" fill="#9599B6"/>
</svg>
