<?xml version="1.0" encoding="UTF-8"?>
<svg width="14px" height="18px" viewBox="0 0 14 18" version="1.1" xmlns="http://www.w3.org/2000/svg" xmlns:xlink="http://www.w3.org/1999/xlink">
    <title>Icon/Logout</title>
    <g id="V2" stroke="none" stroke-width="1" fill="none" fill-rule="evenodd" stroke-linecap="round" stroke-linejoin="round">
        <g id="Dashboard---dropdown" transform="translate(-1139.000000, -255.000000)" stroke="#9599B6">
            <g id="Expand" transform="translate(1112.500000, 61.000000)">
                <g id="Logout" transform="translate(23.500000, 193.000000)">
                    <g id="Logout" transform="translate(4.000000, 2.000000)">
                        <path d="M10.1818182,6.54545455 L1.45454545,6.54545455 C0.650909091,6.54545455 0,7.19636364 0,8 L0,14.5454545 C0,15.3490909 0.650909091,16 1.45454545,16 L10.1818182,16 C10.9854545,16 11.6363636,15.3490909 11.6363636,14.5454545 L11.6363636,8 C11.6363636,7.19636364 10.9854545,6.54545455 10.1818182,6.54545455 Z" id="Stroke-2684"></path>
                        <path d="M5.81818182,0 L5.81818182,0 C3.408,0 1.45454545,1.75810909 1.45454545,3.92727273 L1.45454545,6.54545455 L10.1818182,6.54545455 L10.1818182,3.92727273 C10.1818182,1.75810909 8.22836364,0 5.81818182,0 Z" id="Stroke-2685"></path>
                        <path d="M7.36363636,10.2272727 C7.36363636,11.0560227 6.69238636,11.7272727 5.86363636,11.7272727 C5.03488636,11.7272727 4.36363636,11.0560227 4.36363636,10.2272727 C4.36363636,9.39852273 5.03488636,8.72727273 5.86363636,8.72727273 C6.69238636,8.72727273 7.36363636,9.39852273 7.36363636,10.2272727 Z" id="Stroke-2687"></path>
                        <line x1="5.81818182" y1="11.6363636" x2="5.81818182" y2="13.8181818" id="Stroke-2686"></line>
                    </g>
                </g>
            </g>
        </g>
    </g>
</svg>