<svg width="20" height="20" viewBox="0 0 20 20" fill="none" xmlns="http://www.w3.org/2000/svg">
<path fill-rule="evenodd" clip-rule="evenodd" d="M14.9998 13.3334V3.33341C14.9998 2.41294 14.2536 1.66675 13.3332 1.66675H3.33317C2.4127 1.66675 1.6665 2.41294 1.6665 3.33341V13.3334C1.6665 14.2539 2.4127 15.0001 3.33317 15.0001H13.3332C14.2536 15.0001 14.9998 14.2539 14.9998 13.3334ZM3.33317 3.33341H13.3332V13.3334H3.33317V3.33341ZM16.6665 15.0001V5.00008C17.587 5.00008 18.3332 5.74627 18.3332 6.66675V15.0001C18.3332 16.841 16.8408 18.3334 14.9998 18.3334H6.6665C5.74603 18.3334 4.99984 17.5872 4.99984 16.6667H14.9998C15.9203 16.6667 16.6665 15.9206 16.6665 15.0001Z" fill="#9599B6"/>
</svg>
