<?xml version="1.0" encoding="UTF-8"?>
<svg width="22px" height="17px" viewBox="0 0 22 17" version="1.1" xmlns="http://www.w3.org/2000/svg" xmlns:xlink="http://www.w3.org/1999/xlink">
    <title>Icon/Email</title>
    <g id="V2" stroke="none" stroke-width="1" fill="none" fill-rule="evenodd">
        <g id="Login" transform="translate(-294.000000, -298.000000)" fill="#B5B5BE">
            <g id="Email" transform="translate(277.000000, 281.000000)">
                <g id="Component/icon/ic_Someone’s-activity" transform="translate(16.000000, 13.000000)">
                    <path d="M20,4 C21.6568542,4 23,5.34314575 23,7 L23,18 C23,19.6568542 21.6568542,21 20,21 L4,21 C2.34314575,21 1,19.6568542 1,18 L1,7 C1,5.34314575 2.34314575,4 4,4 L20,4 Z M21,9.361 L13.720387,14.4577816 C12.6874266,15.1808539 11.3125734,15.1808539 10.279613,14.4577816 L10.279613,14.4577816 L3,9.362 L3,18 C3,18.5522847 3.44771525,19 4,19 L20,19 C20.5522847,19 21,18.5522847 21,18 L21,9.361 Z M20,6 L4,6 C3.47334018,6 3.04177134,6.40713286 3.00285722,6.92383482 L11.4265377,12.8193178 C11.7708578,13.0603419 12.2291422,13.0603419 12.5734623,12.8193178 L12.5734623,12.8193178 L20.995,6.923 L20.9932723,6.88337887 C20.9355072,6.38604019 20.5128358,6 20,6 Z" id="Shape"></path>
                </g>
            </g>
        </g>
    </g>
</svg>