<svg width="18" height="18" viewBox="0 0 18 18" fill="none" xmlns="http://www.w3.org/2000/svg">
<path fill-rule="evenodd" clip-rule="evenodd" d="M17.9989 1.47795V6.47795C17.9989 6.75409 17.7749 6.97795 17.4986 6.97795H12.4952C12.2188 6.97795 11.9948 6.75409 11.9948 6.47795V6.18795C11.9929 6.05236 12.0472 5.92203 12.1449 5.82795L13.9261 4.04795C12.625 2.72624 10.8481 1.98067 8.99276 1.97795C5.18862 1.99196 2.09103 5.03751 2.01517 8.83831C1.93931 12.6391 4.91291 15.8057 8.71346 15.9713C12.514 16.1368 15.7521 13.2409 16.0076 9.44795C16.0235 9.18359 16.2429 8.97747 16.5079 8.97795H17.5086C17.645 8.982 17.7744 9.03947 17.8688 9.13795C17.9608 9.23843 18.0078 9.37206 17.9989 9.50795C17.7593 13.7447 14.5908 17.2387 10.3951 17.8926C6.19934 18.5466 2.11652 16.183 0.597149 12.2203C-0.922227 8.25772 0.534693 3.77289 4.09346 1.45767C7.65222 -0.857555 12.3458 -0.374062 15.3571 2.61795L16.8482 1.12795C16.9423 1.03029 17.0727 0.975985 17.2084 0.977951H17.4986C17.7749 0.977951 17.9989 1.20181 17.9989 1.47795ZM9.87337 8.61795V4.47795C9.87337 4.20181 9.64935 3.97795 9.37302 3.97795H8.6125C8.33617 3.97795 8.11216 4.20181 8.11216 4.47795V9.13795C8.11708 9.26917 8.17057 9.39389 8.26226 9.48795L11.5545 12.778C11.6485 12.8726 11.7764 12.9258 11.9098 12.9258C12.0432 12.9258 12.1711 12.8726 12.265 12.778L12.7954 12.248C12.8901 12.1541 12.9434 12.0263 12.9434 11.893C12.9434 11.7596 12.8901 11.6318 12.7954 11.538L9.87337 8.61795Z" fill="#9599B6"/>
</svg>
