<svg width="64" height="64" viewBox="0 0 64 64" fill="none" xmlns="http://www.w3.org/2000/svg">
<path fill-rule="evenodd" clip-rule="evenodd" d="M11.1674 23.0581C11.1674 13.1886 19.9958 5.35956 30.6654 5.35956C40.0891 5.35956 48.0368 11.4621 49.7844 19.6849C57.2532 19.9803 63.3722 25.561 63.3722 32.6001C63.3722 39.834 56.9099 45.5276 49.1614 45.5276H37.2247C36.6725 45.5276 36.2247 45.0799 36.2247 44.5276C36.2247 43.9753 36.6725 43.5276 37.2247 43.5276H49.1614C56.0027 43.5276 61.3722 38.5419 61.3722 32.6001C61.3722 26.6664 56.0172 21.6861 49.1893 21.6726L49.1878 21.6728C49.1766 21.6743 49.1456 21.6785 49.1146 21.6819C49.081 21.6856 49.035 21.6898 48.9815 21.6913C48.4791 21.7052 48.0444 21.3439 47.9661 20.8473C46.7766 13.2981 39.5621 7.35956 30.6654 7.35956C20.9028 7.35956 13.1674 14.4809 13.1674 23.0581C13.1674 23.8062 13.2478 24.5496 13.3686 25.3048C13.4148 25.5939 13.332 25.8888 13.142 26.1116C12.952 26.3343 12.6739 26.4627 12.3811 26.4627C12.3194 26.4627 12.2662 26.4586 12.2271 26.4546C12.1926 26.4511 12.1605 26.4467 12.1446 26.4446L12.1413 26.4442L12.1374 26.4436C6.7693 26.4581 2.59912 30.371 2.59912 34.9856C2.59912 39.6088 6.78481 43.5276 12.1674 43.5276H24.651C25.2033 43.5276 25.651 43.9753 25.651 44.5276C25.651 45.0799 25.2033 45.5276 24.651 45.5276H12.1674C5.87727 45.5276 0.599121 40.9006 0.599121 34.9856C0.599121 29.3631 5.36824 24.9043 11.2423 24.4771C11.1956 24.0145 11.1674 23.5413 11.1674 23.0581ZM31.7807 22.1511C31.9424 22.1951 32.0951 22.2805 32.2222 22.4071L42.5069 32.6473C42.8983 33.037 42.8997 33.6702 42.51 34.0615C42.1203 34.4529 41.4871 34.4543 41.0958 34.0646L32.5164 25.5223V57.5601C32.5164 58.1124 32.0686 58.5601 31.5164 58.5601C30.9641 58.5601 30.5164 58.1124 30.5164 57.5601V25.5229L21.9376 34.0646C21.5462 34.4543 20.913 34.4529 20.5234 34.0615C20.1337 33.6702 20.1351 33.037 20.5264 32.6473L30.7961 22.422C30.978 22.2332 31.2335 22.1157 31.5164 22.1157C31.5175 22.1157 31.5186 22.1157 31.5197 22.1157C31.61 22.116 31.6975 22.1283 31.7807 22.1511Z" fill="#0062FF"/>
</svg>
