<?xml version="1.0" encoding="UTF-8"?>
<svg width="100px" height="80px" viewBox="0 0 100 80" version="1.1" xmlns="http://www.w3.org/2000/svg" xmlns:xlink="http://www.w3.org/1999/xlink">
    <title>Accident</title>
    <defs>
        <polygon id="path-1" points="0 0.01358 16.52202 0.01358 16.52202 16.60598 0 16.60598"></polygon>
    </defs>
    <g id="Page-1" stroke="none" stroke-width="1" fill="none" fill-rule="evenodd">
        <g id="New-Claim-1-1_ChooseEvent" transform="translate(-448.000000, -308.000000)">
            <g id="Actions" transform="translate(233.000000, 298.000000)">
                <g id="Action-2" transform="translate(182.000000, 0.000000)">
                    <g id="Accident" transform="translate(33.000000, 10.000000)">
                        <rect id="Rectangle" x="0" y="0" width="100" height="80"></rect>
                        <g id="Illustration" transform="translate(7.000000, 5.000000)">
                            <path d="M41.2589246,17.3897066 C41.1632572,17.3897066 41.0835344,17.3135367 41.0782196,17.21611 C41.0746763,17.116912 41.1508559,17.0336565 41.2518382,17.0283423 C41.6663968,17.0106284 42.0880419,17 42.5026006,17 L42.561064,17 C42.6602746,17 42.741769,17.0814841 42.741769,17.1806821 C42.741769,17.2798802 42.6602746,17.3613643 42.561064,17.3613643 L42.5026006,17.3613643 C42.0933568,17.3613643 41.6770265,17.3702213 41.2677827,17.3897066 L41.2589246,17.3897066 Z M45.0466443,17.4782763 C45.0395578,17.4782763 45.034243,17.4782763 45.0289281,17.4782763 C44.6214559,17.4393056 44.2086689,17.4109633 43.7976535,17.391478 C43.6966712,17.3879352 43.6204917,17.3029083 43.6258065,17.2037103 C43.6293497,17.1027408 43.7073009,17.0371993 43.813598,17.0318851 C44.2299283,17.0513704 44.6498018,17.0797127 45.0608172,17.1186834 C45.1600278,17.1275403 45.2344358,17.2143386 45.2238061,17.3153081 C45.214948,17.4074205 45.1369968,17.4782763 45.0466443,17.4782763 L45.0466443,17.4782763 Z M38.783974,17.6129022 C38.6953931,17.6129022 38.6174419,17.5473606 38.6050406,17.4570195 C38.5908676,17.3578215 38.6599608,17.2674804 38.7591714,17.2533093 C39.1684152,17.1983961 39.5882887,17.1505685 40.0028473,17.1133692 C40.1002863,17.1062836 40.1888672,17.1771394 40.1977253,17.2763374 C40.2065834,17.3755354 40.1339471,17.4641051 40.0347365,17.4711907 C39.6254927,17.50839 39.2127056,17.5562176 38.8070051,17.6111308 C38.798147,17.6111308 38.7910605,17.6129022 38.783974,17.6129022 L38.783974,17.6129022 Z M47.5074219,17.8183838 C47.4967922,17.8183838 47.4861625,17.8183838 47.4755328,17.8166125 C47.0716039,17.7422139 46.6623601,17.674901 46.2548879,17.6182164 C46.1574489,17.6058166 46.0883558,17.5137041 46.1007571,17.4162775 C46.11493,17.3170795 46.2088258,17.2479951 46.3062648,17.2621663 C46.7172802,17.3188508 47.1318389,17.3861638 47.5410827,17.4623337 C47.6385217,17.4782763 47.7040716,17.5739315 47.6845838,17.6713582 C47.6686392,17.7581565 47.5924596,17.8183838 47.5074219,17.8183838 L47.5074219,17.8183838 Z M36.3373693,18.0592934 C36.2558749,18.0592934 36.1814669,18.0043802 36.1619791,17.9193533 C36.1389481,17.823698 36.2009547,17.7262714 36.2966221,17.7032433 C36.7023227,17.6111308 37.1133381,17.5261039 37.5225819,17.449934 C37.6182493,17.4339914 37.7156883,17.4977616 37.7334045,17.5951883 C37.7511206,17.6926149 37.6855708,17.7882702 37.5881318,17.8059841 C37.1842028,17.8786112 36.7767306,17.9636381 36.3781165,18.0557506 C36.3639436,18.057522 36.3497707,18.0592934 36.3373693,18.0592934 L36.3373693,18.0592934 Z M49.9309956,18.3834584 C49.9132794,18.3834584 49.8973349,18.381687 49.8796187,18.3763728 C49.4845478,18.264775 49.0823905,18.1620342 48.6837764,18.0681503 C48.588109,18.0468936 48.527874,17.949467 48.5491334,17.8520403 C48.5721645,17.7563851 48.6696035,17.6943863 48.7652708,17.7174144 C49.1691998,17.8112983 49.576672,17.9158105 49.9788293,18.0291797 C50.0744967,18.0557506 50.1311885,18.1549486 50.1028426,18.2506039 C50.0798115,18.3303166 50.0071752,18.3834584 49.9309956,18.3834584 L49.9309956,18.3834584 Z M33.9421416,18.7288802 C33.865962,18.7288802 33.7968689,18.6810525 33.7702946,18.6048826 C33.7401771,18.5109987 33.791554,18.4082579 33.8872214,18.3781442 C34.2822922,18.2470611 34.6844496,18.1248349 35.0848353,18.0132371 C35.178731,17.9866662 35.2797133,18.0433508 35.3062875,18.1372347 C35.3328618,18.2346613 35.27617,18.3338594 35.1805027,18.3604303 C34.7872034,18.4702567 34.3885893,18.5907115 33.9988333,18.7200232 C33.9811172,18.7253374 33.9616294,18.7288802 33.9421416,18.7288802 L33.9421416,18.7288802 Z M52.2890194,19.1664144 C52.26776,19.1664144 52.2447289,19.1628716 52.2234695,19.1540146 C51.8461149,19.0087603 51.4545872,18.8688203 51.061288,18.7377371 C50.9656206,18.7076234 50.9160153,18.6048826 50.9479044,18.5092274 C50.9780219,18.4153435 51.0790042,18.3639731 51.1764432,18.3958582 C51.5732857,18.5287127 51.9701281,18.6704242 52.3545693,18.8174498 C52.4466934,18.8528777 52.4927555,18.9573899 52.4573231,19.0495024 C52.4307488,19.1221295 52.3616557,19.1664144 52.2890194,19.1664144 L52.2890194,19.1664144 Z M31.6142353,19.6163484 C31.5451422,19.6163484 31.4778207,19.5756063 31.4494748,19.5082933 C31.4087276,19.4179523 31.4512464,19.3098973 31.5433705,19.2709266 C31.9242684,19.1044156 32.3157961,18.9449902 32.7037804,18.7979645 C32.7959046,18.7625366 32.9004301,18.8085929 32.937634,18.9024767 C32.9712948,18.9945892 32.9252327,19.0991014 32.831337,19.1345293 C32.450439,19.2797836 32.0659979,19.4374376 31.6868716,19.6021772 C31.662069,19.6128056 31.6372663,19.6163484 31.6142353,19.6163484 L31.6142353,19.6163484 Z M54.5620055,20.1601662 C54.5354312,20.1601662 54.508857,20.154852 54.4822827,20.1406809 C54.1155577,19.9599987 53.7382031,19.7864021 53.3643916,19.6216625 C53.2722675,19.5826919 53.2315203,19.4764083 53.2704959,19.3842958 C53.3130147,19.2939547 53.4175402,19.2514413 53.5096643,19.2921833 C53.8887906,19.4569229 54.2696885,19.6340623 54.6417283,19.8182872 C54.7303092,19.8625721 54.7675132,19.9706271 54.7249944,20.0591968 C54.6931053,20.1229669 54.629327,20.1601662 54.5620055,20.1601662 L54.5620055,20.1601662 Z M29.3784531,20.712841 C29.3146749,20.712841 29.2544399,20.6791845 29.2207791,20.6207285 C29.1729454,20.5321588 29.2030629,20.4223324 29.2916438,20.3762762 C29.6565972,20.1743373 30.0304086,19.979484 30.4042201,19.7970305 C30.492801,19.7527457 30.6008697,19.7899449 30.6451601,19.880286 C30.6894506,19.9706271 30.6522466,20.0786821 30.5636657,20.1211955 C30.1951691,20.3018777 29.8266725,20.4931882 29.4652624,20.6915843 C29.4369165,20.7075268 29.4085706,20.712841 29.3784531,20.712841 L29.3784531,20.712841 Z M56.735781,21.3576283 C56.7056635,21.3576283 56.6720028,21.3487713 56.6436569,21.3310574 C56.2928765,21.1167187 55.933238,20.9076943 55.5753711,20.7110696 C55.4885618,20.663242 55.4584443,20.5534156 55.5045064,20.4666173 C55.5523401,20.3780476 55.663952,20.3461625 55.7507613,20.3957615 C56.1121714,20.595929 56.4771248,20.8067249 56.8314484,21.0228349 C56.9164861,21.0759767 56.9430603,21.1858031 56.8899118,21.27083 C56.8580227,21.3275146 56.7977877,21.3576283 56.735781,21.3576283 L56.735781,21.3576283 Z M27.2525113,22.0095011 C27.1958195,22.0095011 27.1373561,21.9811588 27.1036954,21.9297884 C27.0487752,21.8483043 27.068263,21.7349351 27.1515291,21.6800219 C27.4969946,21.4461979 27.8530899,21.2194596 28.2074135,21.0033495 C28.2924512,20.9519791 28.4022915,20.97855 28.4536684,21.0635769 C28.506817,21.1486038 28.4784711,21.2602016 28.3934334,21.311572 C28.0444246,21.5241393 27.6954159,21.7473349 27.3534936,21.9793874 C27.323376,22.0006441 27.2879437,22.0095011 27.2525113,22.0095011 L27.2525113,22.0095011 Z M58.7944013,22.7481722 C58.7571974,22.7481722 58.7182218,22.7357725 58.6881043,22.710973 C58.3603549,22.4700634 58.0237474,22.2291539 57.6818251,21.9988727 C57.5985591,21.9421882 57.5772997,21.8305904 57.6322198,21.7473349 C57.68714,21.6640794 57.8005235,21.6428226 57.8837896,21.6995072 C58.2292551,21.9333312 58.5711775,22.1777835 58.9024701,22.4222358 C58.9821929,22.4824632 58.9999091,22.594061 58.939674,22.6755451 C58.9042417,22.7233727 58.8510931,22.7481722 58.7944013,22.7481722 L58.7944013,22.7481722 Z M25.2558976,23.4921576 C25.2027491,23.4921576 25.1496005,23.4691294 25.1159398,23.426616 C25.0521615,23.3486747 25.0627912,23.2353055 25.1407424,23.1715353 C25.4614053,22.9111405 25.7944696,22.652517 26.1293054,22.4027505 C26.2090282,22.3425231 26.3206402,22.360237 26.3826468,22.4399498 C26.4411102,22.5196625 26.4251656,22.6330317 26.3436712,22.693259 C26.0141502,22.9377114 25.6846292,23.192792 25.3692812,23.4514155 C25.3356204,23.4797578 25.2948732,23.4921576 25.2558976,23.4921576 L25.2558976,23.4921576 Z M60.7201503,24.3193984 C60.6776315,24.3193984 60.6351126,24.3052272 60.5996803,24.2733421 C60.2931903,24.0005475 59.9778423,23.7295243 59.6624942,23.4709008 C59.584543,23.4071307 59.5721417,23.2937615 59.63592,23.2175915 C59.6979266,23.1396502 59.8130818,23.1290219 59.891033,23.1910206 C60.2099243,23.4531869 60.5305872,23.7277529 60.8406203,24.0040903 C60.9150283,24.0714033 60.9221148,24.1847725 60.8547933,24.259171 C60.8193609,24.299913 60.7697556,24.3193984 60.7201503,24.3193984 L60.7201503,24.3193984 Z M23.3992418,25.1484106 C23.3531797,25.1484106 23.305346,25.1306966 23.2716853,25.0952688 C23.2025922,25.024413 23.2025922,24.9092724 23.2734569,24.8401881 C23.5675455,24.5514509 23.8740354,24.2644852 24.1876119,23.984605 C24.2620198,23.917292 24.377175,23.9243776 24.4427249,23.9987761 C24.5082748,24.0731747 24.5029599,24.1865439 24.4285519,24.2538568 C24.1185188,24.5301942 23.8155721,24.8136172 23.5250267,25.0970402 C23.4913659,25.132468 23.4453039,25.1484106 23.3992418,25.1484106 L23.3992418,25.1484106 Z M62.4953117,26.0606783 C62.447478,26.0606783 62.3996443,26.041193 62.364212,26.0022223 C62.0842963,25.7028568 61.7937509,25.4052626 61.5014339,25.1182969 C61.4305692,25.0492125 61.4287976,24.934072 61.4996623,24.8632162 C61.5687554,24.7923605 61.682139,24.7905891 61.7530037,24.8614448 C62.0488639,25.1519534 62.3429526,25.4530903 62.6281831,25.75777 C62.6955046,25.8303971 62.6919613,25.9437663 62.619325,26.0110793 C62.5838926,26.0447357 62.5396022,26.0606783 62.4953117,26.0606783 L62.4953117,26.0606783 Z M21.7020316,26.9658604 C21.6595127,26.9658604 21.6187655,26.9516893 21.5868764,26.9215756 C21.5106968,26.8578054 21.5018387,26.7444362 21.565617,26.6682663 C21.8349029,26.3529582 22.1148186,26.0376502 22.3982775,25.7347419 C22.4673706,25.6621147 22.5807542,25.6568005 22.6533905,25.7258849 C22.7260269,25.7949692 22.7295701,25.9083384 22.6622486,25.9809656 C22.3823329,26.2803311 22.1041889,26.590325 21.8402178,26.9020902 C21.8047854,26.9446037 21.7534085,26.9658604 21.7020316,26.9658604 L21.7020316,26.9658604 Z M64.1057126,27.954298 C64.0525641,27.954298 64.0011872,27.9312699 63.9639832,27.8852137 C63.7159566,27.5628201 63.4519855,27.2404264 63.1862428,26.9251184 C63.1206929,26.8489484 63.1313226,26.7355792 63.2075022,26.6718091 C63.2819102,26.6062675 63.3952937,26.6151245 63.4608436,26.6912944 C63.7319012,27.0101453 63.9976439,27.3378531 64.2509853,27.6637895 C64.3112203,27.7417308 64.2970474,27.8551 64.2173246,27.9170988 C64.1836638,27.9418983 64.1464599,27.954298 64.1057126,27.954298 L64.1057126,27.954298 Z M20.1784399,28.9267931 C20.141236,28.9267931 20.1058036,28.9161648 20.0739145,28.894908 C19.9906484,28.8364521 19.9711606,28.7230829 20.0313956,28.6433702 C20.2705641,28.3014912 20.5221339,27.9649264 20.7737036,27.63899 C20.8374819,27.5592773 20.9490938,27.5451061 21.0288167,27.6071049 C21.1067679,27.6673323 21.1209408,27.7807015 21.0607058,27.8604142 C20.809136,28.1810364 20.5611095,28.5140584 20.3254842,28.8506232 C20.2900519,28.9019936 20.2333601,28.9267931 20.1784399,28.9267931 L20.1784399,28.9267931 Z M65.5407234,29.9878579 C65.48226,29.9878579 65.4237966,29.9595156 65.3883642,29.9046024 C65.1686835,29.5591806 64.9366016,29.2137589 64.6992047,28.8789655 C64.6425129,28.7974814 64.6620007,28.6841122 64.7434952,28.6274276 C64.8249896,28.570743 64.9366016,28.588457 64.995065,28.6699411 C65.2342334,29.01182 65.4698586,29.3607846 65.6930825,29.7115205 C65.7462311,29.794776 65.7232,29.9063738 65.6381624,29.9595156 C65.6080449,29.9790009 65.5761557,29.9878579 65.5407234,29.9878579 L65.5407234,29.9878579 Z M18.837325,31.018809 C18.8054358,31.018809 18.7753183,31.009952 18.7469724,30.9940095 C18.6601632,30.9444104 18.6318173,30.8328127 18.6814226,30.7477858 C18.8887019,30.3864215 19.1083826,30.0286 19.3316064,29.6796354 C19.384755,29.5963799 19.4981386,29.5715804 19.5814046,29.6247222 C19.6646707,29.6796354 19.6877017,29.7912332 19.6345532,29.8744887 C19.4148725,30.2181391 19.1987351,30.5724178 18.9932274,30.9284679 C18.9595666,30.9851525 18.8993316,31.018809 18.837325,31.018809 L18.837325,31.018809 Z M66.7843993,32.1454153 C66.7206211,32.1454153 66.6568428,32.1099874 66.6249537,32.0462173 C66.4353905,31.6830816 66.2369693,31.3181745 66.02969,30.9621244 C65.9818563,30.8753261 66.0119738,30.7654997 66.0987831,30.7159007 C66.1820491,30.6663017 66.2936611,30.6946439 66.3432664,30.7814422 C66.5505457,31.1428065 66.7542818,31.5130278 66.9456166,31.8814777 C66.989907,31.9700473 66.9562463,32.0781024 66.8676654,32.1241586 C66.8410911,32.1383297 66.8127452,32.1454153 66.7843993,32.1454153 L66.7843993,32.1454153 Z M17.6928596,33.2206512 C17.668057,33.2206512 17.6414827,33.215337 17.61668,33.2047087 C17.5263275,33.1621952 17.4873519,33.0541402 17.5280991,32.9637992 C17.7017177,32.5935779 17.8877376,32.2144997 18.0790724,31.842507 C18.1251345,31.7539373 18.2349748,31.7202808 18.3235557,31.7663371 C18.4121366,31.8123933 18.4457974,31.9204483 18.3997353,32.009018 C18.2084005,32.3756965 18.0276955,32.7476891 17.8558485,33.116139 C17.825731,33.1816806 17.7601811,33.2206512 17.6928596,33.2206512 L17.6928596,33.2206512 Z M67.8278824,34.4074849 C67.7552461,34.4074849 67.6896962,34.3649715 67.6595787,34.2941158 C67.5054479,33.9150375 67.3406874,33.5324165 67.1688405,33.1586525 C67.1280932,33.0683114 67.1652972,32.9620278 67.2574214,32.9195143 C67.3477739,32.8770009 67.454071,32.9159715 67.4965898,33.008084 C67.6702084,33.3871622 67.8385121,33.7750974 67.9944145,34.1577184 C68.0316185,34.2516023 67.9873281,34.3561145 67.8952039,34.3933138 C67.8721729,34.4021708 67.8509135,34.4074849 67.8278824,34.4074849 L67.8278824,34.4074849 Z M16.753902,35.5199201 C16.7344142,35.5199201 16.7149264,35.5163773 16.693667,35.5092918 C16.5997712,35.4756353 16.5519375,35.3728945 16.5838267,35.2790106 C16.7202413,34.8910754 16.8708288,34.497826 17.0302744,34.1098908 C17.06925,34.0177784 17.1720039,33.9717221 17.2658996,34.0106928 C17.3580238,34.047892 17.4023142,34.1524043 17.3651103,34.2462881 C17.2092079,34.6289091 17.0603919,35.0168443 16.925749,35.3994654 C16.8974031,35.4738639 16.82831,35.5199201 16.753902,35.5199201 L16.753902,35.5199201 Z M68.6587714,36.7581243 C68.5808202,36.7581243 68.5099554,36.7067538 68.4851528,36.6288125 C68.368226,36.2355631 68.2371262,35.8405424 68.09894,35.4526072 C68.0670509,35.3587233 68.1148846,35.2542111 68.210552,35.2205546 C68.3044477,35.1886695 68.4072016,35.2382685 68.4408623,35.3321524 C68.5790485,35.7254018 68.7101483,36.1257367 68.8306183,36.5243003 C68.8607358,36.6199556 68.8058157,36.720925 68.7101483,36.7492673 C68.6924321,36.7545815 68.6764875,36.7581243 68.6587714,36.7581243 L68.6587714,36.7581243 Z M16.0293102,37.8971303 C16.0151372,37.8971303 15.9991927,37.8953589 15.9832481,37.8918162 C15.8893523,37.8670167 15.8291173,37.76959 15.85392,37.6721634 C15.9566738,37.2735998 16.0682858,36.8679507 16.192299,36.4676157 C16.2206449,36.3719604 16.3233988,36.3188186 16.4172945,36.3471609 C16.5111903,36.3772746 16.5661105,36.4764727 16.5377646,36.5721279 C16.4172945,36.9689201 16.303911,37.3674837 16.2029287,37.760733 C16.1834409,37.8422171 16.1108046,37.8971303 16.0293102,37.8971303 L16.0293102,37.8971303 Z M69.2699796,39.1672196 C69.184942,39.1672196 69.1087624,39.1087636 69.0928178,39.0219653 C69.0095518,38.6198589 68.915656,38.2142098 68.8164454,37.819189 C68.7916427,37.7235338 68.8501061,37.6243357 68.9475451,37.5995362 C69.0449841,37.5747367 69.1406515,37.6349641 69.1672258,37.7306193 C69.268208,38.1309543 69.3603322,38.5419176 69.4453698,38.9493381 C69.4648576,39.0485362 69.402851,39.1441914 69.3036404,39.1636768 C69.291239,39.1654482 69.2788377,39.1672196 69.2699796,39.1672196 L69.2699796,39.1672196 Z M15.5261706,40.3327965 C15.5155409,40.3327965 15.5066828,40.3310252 15.4960531,40.3292538 C15.3968425,40.3133112 15.3312926,40.2211988 15.3472372,40.1220007 C15.4110154,39.7145802 15.487195,39.3000741 15.5722327,38.8926535 C15.5934921,38.7934555 15.6891595,38.7314567 15.7848269,38.7527135 C15.8840375,38.7721988 15.9460441,38.867854 15.9247847,38.9652807 C15.8415186,39.367387 15.7671107,39.776579 15.7033324,40.1804567 C15.6873879,40.2690264 15.6112083,40.3327965 15.5261706,40.3327965 L15.5261706,40.3327965 Z M69.6544208,41.6223711 C69.5658399,41.6223711 69.4878887,41.5550581 69.477259,41.4629457 C69.4311969,41.0537537 69.3762767,40.641019 69.3124985,40.2371413 C69.2965539,40.1397146 69.3638754,40.0476022 69.463086,40.0316596 C69.5640682,40.0174885 69.6526492,40.0848014 69.6685937,40.1822281 C69.732372,40.59142 69.7890638,41.0076975 69.8351258,41.4222036 C69.8475272,41.5214017 69.7748908,41.6099713 69.6756802,41.6223711 C69.6685937,41.6223711 69.6632789,41.6223711 69.6544208,41.6223711 L69.6544208,41.6223711 Z M15.2427117,42.8021192 C15.2391685,42.8021192 15.2373968,42.8021192 15.232082,42.8021192 C15.1328714,42.7950337 15.0566918,42.7082354 15.0637783,42.6090373 C15.0903525,42.198074 15.1293281,41.7800251 15.1753902,41.3637476 C15.1877915,41.2645496 15.2781441,41.1936938 15.3773547,41.2043222 C15.4747937,41.2149506 15.5456584,41.3035202 15.5332571,41.4044897 C15.4889666,41.815453 15.4517626,42.2281877 15.4234167,42.6338368 C15.4163303,42.7294921 15.3383791,42.8021192 15.2427117,42.8021192 L15.2427117,42.8021192 Z M69.8191813,44.1040935 C69.7199706,44.1040935 69.6420194,44.0243808 69.6402478,43.9269542 C69.6313897,43.5195336 69.6136736,43.1050275 69.5853277,42.6922928 C69.5800128,42.5930948 69.6544208,42.5062965 69.755403,42.5009823 C69.852842,42.4938967 69.9396513,42.5700667 69.9449662,42.6692647 C69.973312,43.0873136 69.9910282,43.5089053 69.9998863,43.9198686 C70.0034295,44.0190666 69.9237067,44.1005507 69.8227245,44.1040935 L69.8191813,44.1040935 Z M15.1860199,45.2891559 C15.0885809,45.2891559 15.0088581,45.2094431 15.0070865,45.1102451 C15.0017716,44.9083062 15,44.704596 15,44.5008857 C15,44.2865471 15.0017716,44.0722084 15.0070865,43.8596412 C15.0088581,43.7604432 15.0868093,43.6630165 15.1913348,43.6842732 C15.2905454,43.6860446 15.3702682,43.7693001 15.3684966,43.8684982 C15.3631817,44.0775226 15.3614101,44.2900899 15.3614101,44.5008857 C15.3614101,44.7010532 15.3631817,44.902992 15.366725,45.1031595 C15.3684966,45.204129 15.2905454,45.2856131 15.1895631,45.2873845 C15.1877915,45.2891559 15.1877915,45.2891559 15.1860199,45.2891559 L15.1860199,45.2891559 Z M69.7589462,46.5893588 C69.755403,46.5893588 69.7518598,46.5893588 69.7465449,46.5875874 C69.6473343,46.5805018 69.5711547,46.4954749 69.5782412,46.3962769 C69.6083587,45.9906277 69.6278465,45.5743502 69.6367046,45.1616155 C69.6402478,45.0641889 69.718199,44.9862475 69.8174096,44.9862475 L69.8209529,44.9862475 C69.9219351,44.9897903 69.9998863,45.0712744 69.9981147,45.1704725 C69.987485,45.5885214 69.9679972,46.0083417 69.9396513,46.4210764 C69.9343364,46.5167316 69.8546136,46.5893588 69.7589462,46.5893588 L69.7589462,46.5893588 Z M15.352552,47.7673355 C15.2604279,47.7673355 15.1824767,47.7000225 15.171847,47.6079101 C15.1257849,47.1916326 15.0885809,46.7718123 15.0620066,46.360849 C15.0549202,46.2616509 15.1293281,46.1748527 15.2303104,46.1695385 C15.3401507,46.1642243 15.4145587,46.2386228 15.4216451,46.3378209 C15.4482194,46.74347 15.4854234,47.1562047 15.5314855,47.567168 C15.5421152,47.6663661 15.4712504,47.7567071 15.3720398,47.7673355 C15.3649533,47.7673355 15.3596385,47.7673355 15.352552,47.7673355 L15.352552,47.7673355 Z M69.477259,49.0586814 C69.4666292,49.0586814 69.4577712,49.05691 69.4471414,49.05691 C69.3479308,49.0409675 69.282381,48.9470836 69.2983255,48.849657 C69.3638754,48.4404651 69.4205672,48.0295018 69.4666292,47.625624 C69.4790306,47.526426 69.5693831,47.4573416 69.6668221,47.4661986 C69.7660327,47.4785983 69.8368974,47.5689394 69.8244961,47.6663661 C69.7802057,48.075558 69.7199706,48.4936069 69.6544208,48.9063416 C69.6402478,48.9949113 69.5640682,49.0586814 69.477259,49.0586814 L69.477259,49.0586814 Z M15.742308,50.2242584 C15.659042,50.2242584 15.5828624,50.164031 15.5651462,50.0790042 C15.4818801,49.6715836 15.4057006,49.2570775 15.3401507,48.8478856 C15.3242061,48.750459 15.3915276,48.6565751 15.4907382,48.6424039 C15.5881772,48.6282328 15.682073,48.6937744 15.6962459,48.791201 C15.7600242,49.1950787 15.8362038,49.6042707 15.9176982,50.006377 C15.9389576,50.1038037 15.876951,50.1994589 15.7777404,50.2207156 C15.7653391,50.222487 15.7547093,50.2242584 15.742308,50.2242584 L15.742308,50.2242584 Z M68.9705762,51.4925763 C68.9546316,51.4925763 68.9404586,51.4908049 68.9245141,51.4872621 C68.8288467,51.4624626 68.7686117,51.3632645 68.795186,51.2676093 C68.8979398,50.8655029 68.9918356,50.4616252 69.07333,50.064833 C69.0945894,49.9674064 69.1902568,49.9054076 69.2876958,49.9248929 C69.3851348,49.9443782 69.4471414,50.0400335 69.425882,50.1374601 C69.3443876,50.5395665 69.2487202,50.9505298 69.1441947,51.3561789 C69.1247069,51.437663 69.0520706,51.4925763 68.9705762,51.4925763 L68.9705762,51.4925763 Z M16.3552879,52.6333537 C16.2773367,52.6333537 16.2047004,52.5819833 16.1834409,52.504042 C16.0611993,52.103707 15.9478157,51.6980579 15.8450619,51.2994943 C15.8220308,51.2020677 15.8804942,51.1046411 15.9761616,51.0798415 C16.0753722,51.055042 16.1710396,51.113498 16.1976139,51.2109247 C16.2968245,51.604174 16.4084365,52.004509 16.5271349,52.3995298 C16.5572524,52.495185 16.5023322,52.5961545 16.4084365,52.6262682 C16.3907203,52.6315823 16.3730041,52.6333537 16.3552879,52.6333537 L16.3552879,52.6333537 Z M68.2406695,53.8697865 C68.2211817,53.8697865 68.1999222,53.8662437 68.1804344,53.8591581 C68.0883103,53.8255016 68.0369334,53.7227608 68.0723657,53.6288769 C68.210552,53.2409417 68.3398801,52.8476924 68.4603501,52.4562144 C68.488696,52.3605591 68.5896782,52.3056459 68.683574,52.337531 C68.7792414,52.3658733 68.8323899,52.4668427 68.8058157,52.5607266 C68.683574,52.9575188 68.5507026,53.3578537 68.4107448,53.7493317 C68.3859422,53.8237302 68.3150774,53.8697865 68.2406695,53.8697865 L68.2406695,53.8697865 Z M17.1897201,54.9822216 C17.1170837,54.9822216 17.0497622,54.9397082 17.0214163,54.8688525 C16.8637423,54.4809173 16.7149264,54.0876679 16.5749686,53.6979613 C16.5430794,53.602306 16.5909131,53.4995652 16.6848089,53.4676801 C16.7804763,53.4322522 16.8814585,53.4818513 16.9151192,53.5757351 C17.0533055,53.9618989 17.2003498,54.3516055 17.3562522,54.7342265 C17.3934562,54.826339 17.3491657,54.9308512 17.2570416,54.9680505 C17.2340105,54.9769075 17.2127511,54.9822216 17.1897201,54.9822216 L17.1897201,54.9822216 Z M67.2999402,56.167284 C67.2751376,56.167284 67.2485633,56.1619698 67.2237606,56.1513414 C67.1334081,56.108828 67.0944325,56.000773 67.1351797,55.9122033 C67.3105699,55.5366678 67.4753304,55.1575896 67.6294612,54.7820542 C67.6666652,54.6899417 67.7729623,54.6456569 67.8650864,54.6828561 C67.9554389,54.7218268 68.001501,54.826339 67.9625254,54.9184515 C67.806623,55.2993011 67.6400909,55.6836935 67.4629291,56.0645431 C67.4328116,56.1300847 67.3672617,56.167284 67.2999402,56.167284 L67.2999402,56.167284 Z M18.2332032,57.2442913 C18.1676533,57.2442913 18.1056467,57.207092 18.0719859,57.1450932 C17.8806512,56.7731006 17.6946312,56.3940224 17.5227843,56.0202583 C17.4784938,55.9281458 17.519241,55.8218622 17.6095936,55.7793488 C17.6981745,55.7386067 17.8080148,55.7775774 17.848762,55.8679185 C18.020609,56.2381397 18.201314,56.6119038 18.3944204,56.9803536 C18.4387109,57.0671519 18.4050501,57.1769783 18.3164692,57.2230346 C18.289895,57.2372057 18.2615491,57.2442913 18.2332032,57.2442913 L18.2332032,57.2442913 Z M66.1537033,58.3691262 C66.1218141,58.3691262 66.0916966,58.3602693 66.0633507,58.3443267 C65.9765414,58.2947277 65.9481955,58.1831299 65.9978009,58.098103 C66.2033086,57.7420529 66.4035014,57.3771458 66.5912929,57.0175529 C66.637355,56.9289832 66.748967,56.8953267 66.8357762,56.941383 C66.9225855,56.9874392 66.9580179,57.0954942 66.9101842,57.1840639 C66.7206211,57.548971 66.5186566,57.9174209 66.3096057,58.2787851 C66.2759449,58.3372411 66.2157099,58.3691262 66.1537033,58.3691262 L66.1537033,58.3691262 Z M19.4786508,59.3983059 C19.4201874,59.3983059 19.361724,59.3699636 19.3262916,59.3150504 C19.1030677,58.9660859 18.883387,58.606493 18.6761077,58.2451287 C18.6265024,58.1583304 18.6548483,58.048504 18.7416576,57.998905 C18.8284669,57.9475345 18.9365356,57.9776482 18.9879125,58.0644465 C19.1934202,58.4204966 19.4095576,58.7765467 19.6310099,59.1219685 C19.6841585,59.205224 19.6611274,59.3168218 19.5760898,59.3699636 C19.5459722,59.3894489 19.5123115,59.3983059 19.4786508,59.3983059 L19.4786508,59.3983059 Z M64.8108167,60.4575993 C64.7736127,60.4575993 64.7381803,60.4469709 64.7062912,60.4239428 C64.6247968,60.3672582 64.6070806,60.253889 64.6637724,60.1741763 C64.9029408,59.8376115 65.1350228,59.4939612 65.3547035,59.1503108 C65.407852,59.0670553 65.5194639,59.0440272 65.60273,59.0953976 C65.6877677,59.1503108 65.7125703,59.2619086 65.6576502,59.3469355 C65.4344263,59.6923572 65.2005727,60.0430932 64.957861,60.3832007 C64.9224286,60.4310284 64.8675085,60.4575993 64.8108167,60.4575993 L64.8108167,60.4575993 Z M20.9172047,61.4300944 C20.8622845,61.4300944 20.809136,61.4070663 20.7737036,61.36101 C20.5185906,61.0315308 20.2670208,60.6931946 20.0278524,60.3548584 C19.969389,60.271603 19.9888768,60.1600052 20.0703712,60.1033206 C20.1518657,60.046636 20.2634776,60.0643499 20.321941,60.145834 C20.5575662,60.4806274 20.8073644,60.8154208 21.0589342,61.1395858 C21.1209408,61.2175271 21.1049962,61.3308963 21.027045,61.3928951 C20.9951559,61.4176946 20.9544087,61.4300944 20.9172047,61.4300944 L20.9172047,61.4300944 Z M63.2836818,62.418532 C63.241163,62.418532 63.2004157,62.4043608 63.166755,62.3760186 C63.0905754,62.310477 63.0799457,62.1971078 63.1454956,62.1209379 C63.4130099,61.8091726 63.6752094,61.486779 63.9267792,61.1643853 C63.9870142,61.0846726 64.1021694,61.0722729 64.1801206,61.1325002 C64.2580718,61.194499 64.2722447,61.3060968 64.2120097,61.3858095 C63.9586683,61.7117459 63.691154,62.0394538 63.4200964,62.3547618 C63.384664,62.3972753 63.3350587,62.418532 63.2836818,62.418532 L63.2836818,62.418532 Z M22.5293773,63.3237141 C22.4815436,63.3237141 22.4337099,63.3024574 22.3982775,63.2652581 C22.113047,62.9623498 21.8331313,62.6470418 21.5638453,62.3317337 C21.5000671,62.2555638 21.5089252,62.1421946 21.5851048,62.0784244 C21.6595127,62.0128829 21.7746679,62.0217398 21.8384462,62.0979098 C22.1041889,62.409675 22.3823329,62.7196689 22.6622486,63.0190344 C22.7295701,63.0916616 22.7260269,63.2068022 22.6533905,63.2741151 C22.6179582,63.3060002 22.5736677,63.3237141 22.5293773,63.3237141 L22.5293773,63.3237141 Z M61.5864716,64.2342104 C61.5368663,64.2342104 61.4908042,64.2164965 61.4553718,64.1792972 C61.3862787,64.1084415 61.3880504,63.9933009 61.4589151,63.9242166 C61.7530037,63.6372508 62.0435491,63.3396567 62.3234648,63.0402912 C62.3925579,62.967664 62.5059414,62.9658926 62.5785778,63.0332056 C62.6512141,63.1005185 62.6547574,63.2156591 62.5874359,63.2882863 C62.303977,63.5911946 62.0098883,63.8905601 61.7104849,64.18284 C61.6750525,64.2164965 61.630762,64.2342104 61.5864716,64.2342104 L61.5864716,64.2342104 Z M24.3063103,65.0614513 C24.2637914,65.0614513 24.2212726,65.0455087 24.1858402,65.015395 C23.8758071,64.7390576 23.5710887,64.4520919 23.2734569,64.1615833 C23.2025922,64.0907276 23.2008205,63.9773584 23.2699137,63.9065026 C23.3390068,63.8356469 23.4523903,63.8321041 23.5232551,63.9029598 C23.8173437,64.1899256 24.122062,64.47512 24.4267803,64.7461432 C24.5011883,64.8116848 24.5082748,64.9268253 24.4409533,65.0012239 C24.4055209,65.0401945 24.3559156,65.0614513 24.3063103,65.0614513 L24.3063103,65.0614513 Z M59.7280441,65.8886921 C59.6766672,65.8886921 59.6235186,65.865664 59.5880863,65.8213791 C59.5260796,65.7434378 59.5367094,65.6300686 59.6128889,65.5680698 C59.9317802,65.3094464 60.2488999,65.0384231 60.5553898,64.7673999 C60.6297978,64.700087 60.7431813,64.7071725 60.8087312,64.7815711 C60.8760527,64.8559696 60.8689662,64.9693388 60.7945583,65.0348804 C60.4862967,65.3129891 60.1638622,65.5857838 59.8414277,65.84795 C59.8095386,65.8745209 59.7670197,65.8886921 59.7280441,65.8886921 L59.7280441,65.8886921 Z M26.2338309,66.630906 C26.1948553,66.630906 26.1576513,66.6202776 26.1257622,66.5954781 C25.7926979,66.3492544 25.4596337,66.0906309 25.1371992,65.8284647 C25.0610196,65.7646945 25.0503899,65.6513253 25.1123966,65.573384 C25.1761748,65.4972141 25.2895584,65.4848143 25.365738,65.5485845 C25.6846292,65.807208 26.0123786,66.0622886 26.340128,66.306741 C26.4198508,66.3651969 26.437567,66.4785661 26.3791036,66.5582788 C26.3418996,66.6061065 26.288751,66.630906 26.2338309,66.630906 L26.2338309,66.630906 Z M57.7278872,67.3678057 C57.6711954,67.3678057 57.612732,67.3412348 57.5790713,67.288093 C57.5241511,67.2066089 57.5436389,67.0950111 57.626905,67.0383265 C57.9723705,66.806274 58.3107496,66.5671358 58.6384989,66.3244549 C58.7164501,66.2659989 58.8316053,66.2837128 58.8900687,66.3634256 C58.9485321,66.4431383 58.9325876,66.5565075 58.8528647,66.6149634 C58.5215721,66.8611872 58.1778782,67.1038681 57.8306411,67.337692 C57.7987519,67.3589488 57.7633196,67.3678057 57.7278872,67.3678057 L57.7278872,67.3678057 Z M28.2924512,68.0196786 C28.2605621,68.0196786 28.2286729,68.0108216 28.1985554,67.9931077 C27.8424602,67.7752263 27.4881365,67.5484879 27.1462142,67.3182067 C27.0629482,67.2632935 27.0434604,67.1499243 27.0983805,67.0666688 C27.1533007,66.9851847 27.2666843,66.9621566 27.3481787,67.0188412 C27.6847861,67.247351 28.0337949,67.4705466 28.3863469,67.6866566 C28.4713846,67.738027 28.4979589,67.8478534 28.446582,67.9328803 C28.4129212,67.9895649 28.3526862,68.0196786 28.2924512,68.0196786 L28.2924512,68.0196786 Z M55.6019454,68.6626945 C55.5381671,68.6626945 55.4761605,68.6272666 55.4442714,68.5688106 C55.3946661,68.4802409 55.4283268,68.3704145 55.5151361,68.3225869 C55.8765462,68.1259622 56.2361847,67.9169377 56.5851935,67.7043705 C56.6702311,67.6530001 56.7818431,67.679571 56.83322,67.7645979 C56.8845969,67.8496248 56.8597943,67.9612226 56.7747566,68.012593 C56.420433,68.228703 56.0554796,68.4394989 55.6887547,68.6396663 C55.6604088,68.6538375 55.6302913,68.6626945 55.6019454,68.6626945 L55.6019454,68.6626945 Z M30.4679983,69.2153693 C30.4431957,69.2153693 30.4148498,69.2082837 30.3882755,69.1958839 C30.0126924,69.011659 29.6406526,68.8185771 29.2792425,68.620181 C29.1924332,68.5723534 29.1623157,68.462527 29.2083778,68.3739573 C29.2579831,68.287159 29.3660518,68.2552739 29.4546327,68.3031015 C29.810728,68.4997262 30.1774529,68.6892654 30.5477211,68.8717189 C30.6380737,68.9160037 30.673506,69.0240587 30.6309872,69.1143998 C30.5990981,69.17817 30.5353198,69.2153693 30.4679983,69.2153693 L30.4679983,69.2153693 Z M53.3643916,69.7556443 C53.2952985,69.7556443 53.227977,69.7166736 53.1978595,69.6475893 C53.1588839,69.5572482 53.1996311,69.4509646 53.2917553,69.4102226 C53.66911,69.2454829 54.0482362,69.0718864 54.4167328,68.8912042 C54.5053137,68.8486908 54.6133824,68.8841187 54.6559013,68.9744597 C54.7019634,69.0648008 54.6629878,69.1710844 54.5744068,69.2153693 C54.202367,69.3978228 53.8179259,69.5749622 53.4352564,69.7414732 C53.4122253,69.7521015 53.3891943,69.7556443 53.3643916,69.7556443 L53.3643916,69.7556443 Z M32.742756,70.2055783 C32.7232682,70.2055783 32.7002372,70.2020355 32.6789778,70.1949499 C32.2909934,70.0461529 31.9012374,69.8867274 31.5238827,69.7202164 C31.4317586,69.6812458 31.3910114,69.5749622 31.429987,69.4846211 C31.4707342,69.3925086 31.5752597,69.3499952 31.6673838,69.3907372 C32.0411952,69.5537054 32.4256364,69.7095881 32.8065343,69.8566137 C32.9004301,69.8920416 32.9482638,69.9965538 32.9110598,70.0904377 C32.8827139,70.1630648 32.8153924,70.2055783 32.742756,70.2055783 L32.742756,70.2055783 Z M51.0347137,70.6413411 C50.9585341,70.6413411 50.889441,70.5935135 50.8628668,70.5173436 C50.8309776,70.4234597 50.8841262,70.3207189 50.9780219,70.2906052 C51.3713212,70.1612934 51.7646204,70.0213533 52.1455183,69.8760991 C52.2376425,69.8406712 52.3421679,69.8884988 52.3776003,69.9806113 C52.4130327,70.0744952 52.3669706,70.1790074 52.2730748,70.2144352 C51.8868621,70.3614609 51.488248,70.501401 51.0914055,70.6324841 C51.0719177,70.6395697 51.0524299,70.6413411 51.0347137,70.6413411 L51.0347137,70.6413411 Z M35.1025515,70.9867629 C35.0883785,70.9867629 35.0706623,70.9849915 35.0547178,70.9796773 C34.6525604,70.8663081 34.2504031,70.7440819 33.8571039,70.6147702 C33.7649797,70.5828851 33.7118312,70.4819157 33.7437203,70.3862604 C33.7738378,70.2923766 33.8765917,70.2392348 33.9722591,70.2728912 C34.3567002,70.4004316 34.7553143,70.5208863 35.1521568,70.6324841 C35.2478241,70.659055 35.3045159,70.7582531 35.2779417,70.8556797 C35.253139,70.9353924 35.1822743,70.9867629 35.1025515,70.9867629 L35.1025515,70.9867629 Z M48.639486,71.3091565 C48.5562199,71.3091565 48.4818119,71.2524719 48.4623241,71.167445 C48.4410647,71.0717898 48.5012997,70.9743631 48.5987387,70.9531064 C48.9973528,70.8609939 49.4012818,70.7582531 49.794581,70.6484267 C49.8937916,70.6218558 49.9930022,70.6785404 50.0178049,70.7741956 C50.0443792,70.8698509 49.989459,70.9690489 49.8937916,70.9956198 C49.4916343,71.1072176 49.0841621,71.2117298 48.6784616,71.3038423 C48.6660602,71.3073851 48.6518873,71.3091565 48.639486,71.3091565 L48.639486,71.3091565 Z M37.5261251,71.5482946 C37.5154954,71.5482946 37.5048657,71.5465232 37.4924644,71.5447518 C37.0849922,71.4703533 36.6704335,71.383555 36.2682762,71.2896712 C36.1708372,71.2684144 36.1106022,71.1709878 36.1318616,71.0735611 C36.1548927,70.9761345 36.2523317,70.9159071 36.3497707,70.9389352 C36.7466131,71.0310477 37.1540853,71.1160746 37.5580143,71.1904731 C37.6572249,71.2081871 37.7210031,71.3020709 37.7032869,71.3994976 C37.6855708,71.4880672 37.6111628,71.5482946 37.5261251,71.5482946 L37.5261251,71.5482946 Z M46.1911096,71.7537763 C46.1025287,71.7537763 46.0245775,71.6864633 46.0139478,71.5978937 C45.9997749,71.4986956 46.0706396,71.4083545 46.1680786,71.3941834 C46.5773224,71.3392702 46.9865662,71.2737286 47.3887235,71.2011015 C47.4843909,71.1833875 47.5800583,71.2471577 47.5977745,71.3463558 C47.6154906,71.4437824 47.5517124,71.5376663 47.4525018,71.5553802 C47.0468012,71.6297787 46.6304709,71.6953203 46.2176839,71.7502335 C46.2088258,71.7520049 46.1999677,71.7537763 46.1911096,71.7537763 L46.1911096,71.7537763 Z M39.9886744,71.8866308 C39.9833595,71.8866308 39.9780447,71.8866308 39.9709582,71.8848594 C39.5563996,71.8476602 39.1382977,71.7998325 38.7290539,71.7431479 C38.6316149,71.7307482 38.5625218,71.6386357 38.5749231,71.5394377 C38.589096,71.442011 38.6776769,71.3711553 38.7786592,71.3853264 C39.1825881,71.442011 39.5953752,71.4880672 40.004619,71.5270379 C40.1056012,71.5341235 40.1782375,71.6226932 40.1693794,71.7218912 C40.1605214,71.8157751 40.0807985,71.8866308 39.9886744,71.8866308 L39.9886744,71.8866308 Z M43.716159,71.9734291 C43.6204917,71.9734291 43.5407688,71.8972592 43.535454,71.8016039 C43.5319107,71.7024059 43.6080903,71.617379 43.7090726,71.6120648 C44.120088,71.5961223 44.5364183,71.56778 44.9403472,71.5305807 C45.0377862,71.5252665 45.1281387,71.5961223 45.1352252,71.6953203 C45.1440833,71.7945183 45.0714469,71.8813166 44.9740079,71.8901736 C44.5629925,71.9273729 44.143119,71.9557152 43.7250171,71.9734291 C43.7214739,71.9734291 43.7197023,71.9734291 43.716159,71.9734291 L43.716159,71.9734291 Z M42.4742547,72 L42.4742547,72 C42.0561528,72 41.6362793,71.9893716 41.2217206,71.9698863 C41.12251,71.9663435 41.0445588,71.8813166 41.0498737,71.7821186 C41.0551885,71.6829205 41.1419978,71.6138362 41.2376652,71.6102934 C41.646909,71.6297787 42.0632393,71.6386357 42.4742547,71.6386357 C42.5734653,71.6386357 42.6531881,71.7201198 42.6531881,71.8210892 C42.6531881,71.9202873 42.5716937,72 42.4742547,72 L42.4742547,72 Z" id="Fill-1" fill="#FFFFFF"></path>
                            <path d="M39.6190572,54.7312153 C39.4623042,54.2458396 39.3337315,53.7481089 39.2227715,53.2450832 C39.3337315,53.7481089 39.4623042,54.2458396 39.6190572,54.7312153 M16.8493622,47.48235 C16.808853,47.5441251 16.770105,47.6129602 16.7313571,47.6765003 C16.770105,47.6129602 16.808853,47.5458901 16.8493622,47.48235 M68.9741398,55.6507816 C68.1234465,51.005295 64.1271255,47.473525 59.2836337,47.3199697 C59.6147524,44.9266263 59.2942014,42.3267776 58.2656198,39.6563288 L55.8192162,33.3093797 L56.9464288,33.3093797 L56.9464288,33.2829047 C57.6368465,33.2829047 58.195169,30.9866364 58.195169,28.1538074 C58.195169,25.3209783 57.6368465,23.026475 56.9464288,23.026475 L56.9464288,23 L52.8849408,23 C51.5956914,23 50.4191632,23.4783157 49.5173931,24.2637418 C48.2351887,24.5443772 47.2717742,25.6863338 47.2717742,27.0542108 C47.2717742,27.6525466 47.4549462,28.2049924 47.766691,28.6638931 C47.942818,30.4465456 49.0242376,31.9609178 50.5459746,32.7428139 L53.865968,41.3577912 C54.8980721,44.0388301 54.9614778,46.5363086 54.0984557,48.5501765 C52.4886551,49.4291478 51.1377612,50.7246596 50.202527,52.2990419 C48.8569169,52.8691377 47.2629678,53.1727181 45.4752791,53.1727181 L39.2051588,53.1727181 C38.9691487,52.0731215 38.8423373,50.9346949 38.8423373,49.7627332 C38.8423373,47.8212305 39.1875461,45.9644478 39.8110356,44.2382753 C40.1632896,43.267524 39.7106432,42.5191629 38.6785392,42.5191629 L39.4006598,42.5191629 C39.9167118,42.5191629 40.3341327,42.0990923 40.3341327,41.5837115 L40.3341327,40.5953101 C40.3341327,39.1444781 39.1593658,37.9654564 37.7116021,37.9654564 L27.0841006,37.9654564 C25.6363368,37.9654564 24.4598087,39.1444781 24.4598087,40.5953101 L24.4598087,41.5837115 C24.4598087,42.0990923 24.8789909,42.5191629 25.3950429,42.5191629 L26.4429984,42.5191629 C22.5100831,42.5191629 19.6268845,44.001765 17.6137532,46.4427635 C17.5626764,46.4056984 17.5239285,46.3545134 17.462284,46.3245083 C16.8511234,46.0244579 16.1131514,46.2803833 15.8137356,46.8893091 L14.4505128,49.6762481 C14.151097,50.288704 14.4029585,51.02824 15.0141191,51.3282905 C15.0211642,51.3318205 15.026448,51.3300555 15.0334931,51.3335855 C15.0334931,51.3300555 15.0352544,51.3265255 15.0370156,51.3229955 C14.556189,52.7826525 14.2127414,54.3623298 14.0119566,56.0302572 C13.8886678,57.0557237 14.7358385,57.8976299 15.7679426,57.8976299 L19.4754153,57.8976299 C19.6762001,61.8512355 22.9292653,65 26.9273476,65 C30.9236686,65 34.1767338,61.8512355 34.3757572,57.8976299 L39.1470369,57.8976299 L45.4752791,57.8976299 C47.0498542,57.8976299 48.5205144,57.6999496 49.8907823,57.3540091 C50.1197473,57.4563792 50.3716089,57.5146243 50.6410832,57.5146243 L51.4882539,57.5146243 C51.4882539,61.6482602 54.8346664,65 58.9577988,65 C63.0844538,65 66.429105,61.6482602 66.429105,57.5146243 L67.278037,57.5146243 C68.3101411,57.5146243 69.1608344,56.6674231 68.9741398,55.6507816" id="Fill-3" fill="#808080"></path>
                            <path d="M50,55.5008841 C50,59.6403395 53.3582881,63 57.5,63 C61.6434803,63 65,59.6403395 65,55.5008841 C65,51.3578923 61.6434803,48 57.5,48 C53.3582881,48 50,51.3578923 50,55.5008841" id="Fill-5" fill="#54575D"></path>
                            <path d="M53,55.0016764 C53,57.2062028 54.7908195,59 57.0008384,59 C59.2108573,59 61,57.2062028 61,55.0016764 C61,52.7937972 59.2108573,51 57.0008384,51 C54.7908195,51 53,52.7937972 53,55.0016764" id="Fill-7" fill="#D6E5FF"></path>
                            <path d="M17,55.5008841 C17,59.6403395 20.3582881,63 24.5017685,63 C28.6434803,63 32,59.6403395 32,55.5008841 C32,51.3578923 28.6434803,48 24.5017685,48 C20.3582881,48 17,51.3578923 17,55.5008841" id="Fill-9" fill="#54575D"></path>
                            <path d="M21,55.0016764 C21,57.2062028 22.7908195,59 25.0025152,59 C27.2108573,59 29,57.2062028 29,55.0016764 C29,52.7937972 27.2108573,51 25.0025152,51 C22.7908195,51 21,52.7937972 21,55.0016764" id="Fill-11" fill="#D6E5FF"></path>
                            <path d="M66.9742483,53.1742739 C67.1601592,54.1701245 66.3130372,55 65.285266,55 L48.7181556,55 C47.6903844,55 46.8397547,54.1701245 47.0256655,53.1742739 C47.8955879,48.5235131 52.029473,45 56.9999569,45 C61.9704408,45 66.1078337,48.5235131 66.9742483,53.1742739" id="Fill-13" fill="#FFCC00"></path>
                            <path d="M51.4129043,21 L55.6861523,21 L55.6861523,21.0256761 C56.4107143,21.0256761 57,23.2509415 57,25.9982883 C57,28.7456351 56.4107143,30.9743239 55.6861523,30.9743239 L55.6861523,31 L51.4129043,31 C48.4220013,31 46,28.759329 46,25.9982883 C46,23.2389593 48.4220013,21 51.4129043,21" id="Fill-15" fill="#FFCC33"></path>
                            <path d="M51,25 C51,23.3444444 49.6565781,22 48,22 C46.3434219,22 45,23.3444444 45,25 C45,26.6592593 46.3434219,28 48,28 C49.6565781,28 51,26.6592593 51,25" id="Fill-17" fill="#54575D"></path>
                            <path d="M50,24.9990277 C50,23.8945066 49.1039845,23 48,23 C46.8960155,23 46,23.8945066 46,24.9990277 C46,26.1035489 46.8960155,27 48,27 C49.1039845,27 50,26.1035489 50,24.9990277" id="Fill-19" fill="#32343A"></path>
                            <path d="M54.9991079,31 C55.338091,31 56,29.2348677 56,26 C56,22.7651323 55.338091,21 54.9991079,21 C54.661909,21 54,22.7651323 54,26 C54,29.2348677 54.661909,31 54.9991079,31" id="Fill-21" fill="#7AD3FF"></path>
                            <path d="M35.356707,36 C36.8159325,36 38,37.2945736 38,38.8875969 L38,39.9748062 C38,40.5406977 37.5792744,41 37.0591368,41 L22.9426384,41 C22.4225008,41 22,40.5406977 22,39.9748062 L22,38.8875969 C22,37.2945736 23.1858427,36 24.6450682,36 L35.356707,36 Z" id="Fill-23" fill="#54575D"></path>
                            <path d="M38.8393473,53.3679559 C39.2582899,54.2958797 38.841153,55 37.7829616,55 L13.8129392,55 C12.7547478,55 11.8843582,54.1805348 12.0125692,53.1785837 C12.9533844,45.7551934 16.7148396,40 24.7560111,40 L37.3008164,40 C38.3590078,40 38.8230952,40.7299438 38.4637435,41.6768048 C37.8244947,43.3604958 37.4687546,45.1715827 37.4687546,47.0653047 C37.4687546,49.3085045 37.9617346,51.4363595 38.8393473,53.3679559" id="Fill-25" fill="#FFCC33"></path>
                            <path d="M12.6467168,49 C12.6402914,48.9965617 12.6354724,49 12.6290471,48.9948426 C12.0716482,48.7043101 11.8419421,47.9822765 12.1150193,47.3874583 L13.3583239,44.6712368 C13.6314012,44.0781378 14.3044562,43.8305834 14.861855,44.1228351 C14.9180768,44.1503412 14.9534162,44.2001959 15,44.2362975 C13.9751572,45.5617449 13.2057219,47.1863204 12.6467168,49" id="Fill-27" fill="#FF5320"></path>
                            <path d="M46,24.013 L45.992,23.993 L46.008,23.987 C46.004,23.997 46.002,24.005 46,24.013" id="Fill-29" fill="#FFCC00"></path>
                            <path d="M38.016039,54.3388239 C37.6009393,53.3750613 37.277891,52.3604822 37.0555782,51.3091049 L43.2403897,51.3091049 C46.8199731,51.3091049 49.628409,50.0842504 51.1411782,47.8588351 C52.6001059,45.7087685 52.7355778,42.7684166 51.5128574,39.5792388 L48.23027,31 C48.9267343,31.3644775 49.7065659,31.5905236 50.5471862,31.5905236 L53.4407262,31.5905236 L55.8531674,37.8900259 C57.6420907,42.5651503 57.3294633,47.0475223 54.9760739,50.5118105 C52.5688432,54.0514474 48.4004782,56 43.2403897,56 L37,56 C38.0177758,56 38.4189809,55.2833111 38.016039,54.3388239" id="Fill-31" fill="#FFCC00"></path>
                            <g id="Group-37" transform="translate(2.000000, 1.000000)" fill="#808080">
                                <path d="M34.9396042,0.83015 C31.7946042,1.27815 29.4854375,2.0534 26.7902292,3.13665 C23.5159583,4.4544 21.256375,5.98565 19.0534583,8.88365 C17.388875,11.07115 16.2856458,12.9524 13.4841875,15.91865 C13.3354375,16.0744 13.1778333,16.23715 13.0184583,16.3999 L11.2458542,14.6114 L8.19116667,17.56715 L8.18939583,17.56715 L7.41554167,18.31615 L6.593875,17.48665 L0.0010625,23.86015 L9.66095833,33.6164 L16.2537708,27.2429 L15.4303333,26.4134 L16.2041875,25.6644 L19.2624167,22.7069 L17.3286667,20.75215 C19.2765833,19.78265 20.6135625,19.72315 23.7355417,17.7124 C27.8686667,15.05065 31.4298125,11.7519 33.2980417,9.2494 C33.4910625,8.99215 33.6646042,8.7524 33.8275208,8.52665 C33.91075,8.41115 33.9833542,8.3044 34.0577292,8.1959 C34.1285625,8.09615 34.1993958,7.9929 34.261375,7.8984 C34.3481458,7.77065 34.4225208,7.65165 34.495125,7.5344 C34.5323125,7.4749 34.5677292,7.41365 34.6031458,7.3559 C34.67575,7.2299 34.7412708,7.10915 34.7979375,6.9954 C34.813875,6.96215 34.8280417,6.9324 34.8404375,6.9009 C35.2016875,6.1239 35.1450208,5.6164 34.5517917,5.21565 C33.74075,4.66615 31.74325,7.2124 29.6271042,8.7069 C28.9471042,9.18815 28.3379375,9.52065 27.7960625,9.7569 C26.2147083,10.4429 25.2389792,10.26965 25.0158542,10.21365 C25.0158542,10.2119 25.0123125,10.2119 25.0105417,10.2119 C24.98575,10.2049 24.9680417,10.19965 24.9680417,10.19965 C24.9680417,10.19965 27.8102292,7.0444 29.53325,5.9769 C31.5148125,4.7484 32.232,4.4684 34.442,3.8244 C35.961375,3.38165 38.0474167,3.28365 38.915125,1.9379 C38.9647083,1.8609 39.000125,1.78565 39.032,1.71215 C39.0355417,1.6999 39.0408542,1.6859 39.0461667,1.67015 C39.3171042,0.91065 38.4635625,0.32615 34.9396042,0.83015" id="Fill-33"></path>
                                <path d="M77.5053021,17.446575 L76.6871771,18.281325 L72.8391563,14.592325 L71.0700938,16.394825 C67.9038438,13.153825 66.7705104,11.199075 65.0067604,8.899575 C62.7879063,6.012075 60.5247813,4.491325 57.2451979,3.189325 C54.5429063,2.118325 52.2337396,1.351825 49.0834271,0.917825 C48.7806146,0.875825 48.5043646,0.844325 48.2405104,0.818075 C48.1519688,0.809325 48.0687396,0.802325 47.9837396,0.793575 C47.7978021,0.777825 47.6207188,0.765575 47.4524896,0.756825 C47.3887396,0.753325 47.3196771,0.748075 47.2594688,0.748075 C47.0487396,0.739325 46.8539479,0.739325 46.6768646,0.742825 C46.6272813,0.744575 46.5847813,0.748075 46.5387396,0.749825 C46.4006146,0.755075 46.2713438,0.765575 46.1544688,0.779575 C46.1137396,0.783075 46.0747813,0.786575 46.0358229,0.791825 C45.7418646,0.833825 45.5151979,0.898575 45.3451979,0.980825 C45.3328021,0.987825 45.3204063,0.993075 45.3080104,1.000075 C45.1415521,1.087575 45.0317604,1.194325 44.9786354,1.316825 L44.9768646,1.316825 L44.9786354,1.316825 C44.8830104,1.530325 44.9432188,1.780575 45.1132188,2.041325 C45.9862396,3.385325 48.0740521,3.474575 49.5951979,3.910325 C51.8069688,4.543825 52.5276979,4.822075 54.5128021,6.038325 C54.9696771,6.320075 55.5062396,6.747075 56.0463438,7.221325 C56.0445729,7.221325 56.0428021,7.219575 56.0410313,7.217825 C57.3585313,8.372825 58.7096771,9.820075 59.0266563,10.164825 C59.0284271,10.166575 59.0284271,10.166575 59.0301979,10.168325 C59.0726979,10.215575 59.0974896,10.241825 59.0974896,10.241825 C59.0974896,10.241825 57.3939479,10.842075 54.4331146,8.771825 C52.3081146,7.284325 50.2999896,4.750325 49.4907188,5.303325 C49.4570729,5.324325 49.4411354,5.350575 49.4128021,5.371575 L49.4145729,5.371575 C48.4990521,6.078575 49.0781146,7.093575 50.7621771,9.330075 C52.6428021,11.823825 56.2181146,15.108575 60.3636354,17.751075 C63.4980104,19.749575 64.8332188,19.798575 66.7882188,20.761075 L64.8580104,22.726325 L68.7078021,26.413575 L67.8896771,27.248325 L74.5108229,33.592075 L84.1264479,23.792075 L77.5053021,17.446575 Z" id="Fill-35"></path>
                            </g>
                            <path d="M8.86436535,27.766413 C8.86436535,27.766413 10.4626705,25.1571181 15.1925284,21.6868973 C18.6423356,19.1518506 19.62699,19.9455995 23.7484722,17.2443782 C27.8523712,14.5555316 31.3883356,11.2232003 33.2433542,8.69345703 C34.9594663,6.3564056 35.5274009,5.33637635 34.4882388,4.62041127 C33.6829321,4.06531736 31.6995568,6.63748819 29.5983745,8.14720219 C26.6690276,10.2526699 24.972257,9.65514839 24.972257,9.65514839 C24.972257,9.65514839 27.7943469,6.46777795 29.505184,5.3894108 C31.4727346,4.14840467 32.1848507,3.86378645 34.3792235,3.21499835 C35.8878547,2.76774116 37.9591457,2.66874352 38.8207183,1.30929378 C39.3816197,0.421850654 38.7732439,-0.377201725 34.873309,0.190266889 C31.7505478,0.642827529 29.4577096,1.42596957 26.7815595,2.52024706 C23.5304415,3.85141175 21.2868361,5.39824987 19.0994966,8.32398369 C17.1108463,10.9827775 15.9380525,13.1872428 11.656564,17.3964103 C9.14042025,19.8713513 3.87076069,22.5213059 3.08127883,23.3079836 C2.29531359,24.0911257 7.43309979,29.132934 8.86436535,27.766413" id="Fill-38" fill="#FFCE8B"></path>
                            <path d="M38.8156107,1.50184493 C37.9298191,2.90701074 35.8003036,3.00920462 34.2492643,3.46907706 C31.9932072,4.14063683 31.2610732,4.43261933 29.2382143,5.71369258 C27.4792852,6.82687588 24.5778655,10.1171537 24.5778655,10.1171537 C24.5778655,10.1171537 25.6209304,10.4784821 27.4810929,9.64815684 C27.4792852,9.64815684 27.4792852,9.65180663 27.4756697,9.65363152 C25.5847756,11.6427623 22.641778,11.0405484 23.0358649,10.295993 C23.4299518,9.55143764 26.7128042,5.71551747 29.4099494,4.37239794 C32.1089024,3.02927842 34.6252738,2.47268676 37.0006417,2.31574617 C38.3980232,2.22267674 38.8535732,1.54564231 39,1 C38.9909613,1.1569406 38.9258827,1.32665543 38.8156107,1.50184493" id="Fill-40" fill="#FFA932"></path>
                            <path d="M15.1934724,22 C13.4310704,20.844888 12.3366188,18.7277843 12,17.2496019 C12.5868799,16.6558021 13.113838,16.0962947 13.5896866,15.5746895 C15.2904045,15.8237605 17.8811353,16.7153626 19.2663833,16.4662915 C21.2684719,16.1035142 23.1930149,15.0548891 25.9881844,13.9593375 C28.7815915,12.863786 33.7057426,7.5755388 34.417753,6.09916127 C34.6433404,5.62809215 34.7878574,5.27794883 34.8601159,5 C35.3007163,5.71833528 34.6838757,6.77057012 33.2439933,8.76674806 C31.3846592,11.3477015 27.8404688,14.7516722 23.7270227,17.496868 C19.6135765,20.2420639 18.6142946,19.453339 15.1934724,22" id="Fill-42" fill="#FFA932"></path>
                            <polygon id="Fill-44" fill="#FCFCFC" points="19 22.2304553 10.0450554 31 2 22.7713239 10.9549446 14"></polygon>
                            <polygon id="Fill-46" fill="#DDDDDD" points="14.0419056 23.200542 7.96515218 17 3 21.849458 9.07851787 28.05 10.9876489 30 15.9510366 25.150542 19 22.1735772 17.0891045 20.2271003"></polygon>
                            <g id="Group-50" transform="translate(0.000000, 17.000000)">
                                <mask id="mask-2" fill="white">
                                    <use xlink:href="#path-1"></use>
                                </mask>
                                <g id="Clip-49"></g>
                                <polygon id="Fill-48" fill="#0E3952" mask="url(#mask-2)" points="16.52202 10.05038 9.81882 16.60598 -0.00018 6.56918 6.70302 0.01358"></polygon>
                            </g>
                            <polygon id="Fill-51" fill="#092538" points="16 26.3201549 9.24410401 33 7 30.6798451 13.7540818 24"></polygon>
                            <path d="M16.7161868,21.3010809 C17.1017642,21.6954717 17.0930407,22.3306851 16.6987398,22.7180955 C16.3044389,23.1002706 15.6711149,23.0932902 15.2855374,22.7006445 C14.8982153,22.3045087 14.9069388,21.6710404 15.299495,21.2853751 C15.6955406,20.8997098 16.3271199,20.9049451 16.7161868,21.3010809" id="Fill-53" fill="#FFFFFF"></path>
                            <path d="M75.1695785,27.7688712 C75.1695785,27.7688712 73.5651997,25.1528983 68.8344741,21.6862459 C65.3819913,19.1572946 64.4035832,19.9600235 60.2830476,17.264133 C56.1765393,14.58245 52.6363855,11.2489937 50.7760075,8.71826645 C49.0541496,6.37756569 48.4842883,5.35106717 49.5152989,4.63180783 C50.3166116,4.07060795 52.3067426,6.64218208 54.4090925,8.15351467 C57.3408098,10.2526864 59.0293527,9.64353587 59.0293527,9.64353587 C59.0293527,9.64353587 56.2010872,6.45570744 54.4879964,5.37770641 C52.5224132,4.14342186 51.8105249,3.86282192 49.6205041,3.21815244 C48.1125633,2.77594115 46.0470353,2.68536775 45.1808461,1.32143893 C44.6179984,0.433464436 45.2211747,-0.371040454 49.1155193,0.18127968 C52.2313456,0.621715028 54.5195579,1.39958068 57.1935226,2.48646146 C60.4426087,3.80776751 62.6834788,5.35106717 64.8805133,8.281383 C66.8741512,10.9435305 68.0524491,13.154587 72.341313,17.365362 C74.8592233,19.837483 80.1282486,22.4747673 80.9172874,23.2597367 C81.7080795,24.0482581 76.6038756,29.1328 75.1695785,27.7688712" id="Fill-55" fill="#FFCE8B"></path>
                            <path d="M45,0.594720368 C45.3935249,0.531784818 45.8731334,0.519197708 46.4317982,0.574940624 C48.6682143,0.783527018 57.2449492,2.04583434 60.66194,6.00717767 C64.0806877,9.96492468 68.0335048,13.4983063 67.4028109,16.1919478 C67.0865855,17.531576 66.9144184,19.3585051 66.9565818,20.7466835 C67.511733,21.0487741 68.1178316,21.4281856 68.8328523,21.9568442 C68.8521772,21.9748258 68.8697453,21.9856147 68.8890701,22 C70.2980299,21.1800397 72.4694441,19.8871637 73,18.1771149 C72.7681014,17.9775193 72.5485004,17.7797218 72.3464676,17.5837225 C68.0510729,13.3184904 66.8687414,11.0815812 64.8730079,8.38614146 C62.6717279,5.41917981 60.424771,3.85658002 57.1711633,2.51875004 C54.4902748,1.41827699 52.1993977,0.63068354 49.0757937,0.184740214 C46.333417,-0.210854671 45.2248714,0.0768506999 45,0.594720368" id="Fill-57" fill="#FFA932"></path>
                            <path d="M55.870951,6.13060666 C57.4349505,7.5425316 59.0411707,9.36213818 59.0411707,9.36213818 C59.0411707,9.36213818 57.2734107,10.0035822 54.2041534,7.79125481 C52.0031728,6.20167044 49.9196758,3.49189661 49.0807699,4.08284798 C49.045892,4.10528917 49.0293709,4.13521075 49,4.15578185 C49.5727322,4.40450505 50.2941545,4.87389996 51.1055252,5.80894959 C52.9962758,7.99696572 59.4101424,13.0163121 60.7740528,11.8175785 C61.8332403,10.8862691 58.9952787,8.08860059 55.870951,6.13060666" id="Fill-59" fill="#FFA932"></path>
                            <polygon id="Fill-61" fill="#FCFCFC" points="73.0078386 14 82 22.7339613 73.9939381 31 65 22.2695971"></polygon>
                            <polygon id="Fill-63" fill="#DDDDDD" points="74.0788433 18.9298633 68 25.1671813 73.0095485 30 79.0883918 23.7644464 81 21.802382 75.9904515 16.9695633 72.915564 14 71.0039558 15.9603"></polygon>
                            <polygon id="Fill-65" fill="#0E3952" points="77.4754063 17 84 23.2883156 74.5245937 33 68 26.7134186"></polygon>
                            <polygon id="Fill-67" fill="#092538" points="77.2305371 17 84 23.66408 81.7694629 26 75 19.33592"></polygon>
                            <path d="M67.2818683,21.303691 C67.6673831,20.9058735 68.3006041,20.8988943 68.6965853,21.2827533 C69.0925666,21.6666122 69.103033,22.2982348 68.7157739,22.6960522 C68.3337479,23.0921249 67.7005269,23.1025938 67.3045457,22.7187348 C66.9085644,22.333131 66.8963536,21.7015085 67.2818683,21.303691" id="Fill-69" fill="#FFFFFF"></path>
                        </g>
                    </g>
                </g>
            </g>
        </g>
    </g>
</svg>