<svg width="24" height="24" viewBox="0 0 24 24" fill="none" xmlns="http://www.w3.org/2000/svg">
<path fill-rule="evenodd" clip-rule="evenodd" d="M16.5 6C17.661 6 19.479 7.01 20.708 8.94C20.792 9.07 20.81 9.23 20.757 9.38C20.705 9.52 20.587 9.64 20.439 9.68C18.98 10.15 18 11.48 18 13C18 14.73 19.3 16.21 21.025 16.45C21.169 16.47 21.298 16.55 21.377 16.67C21.456 16.8 21.478 16.95 21.437 17.09C20.449 20.41 18.09 24 16 24C14.597 24 13.769 23.63 13.103 23.33C12.688 23.15 12.361 23 12 23C11.639 23 11.312 23.15 10.897 23.33C10.231 23.63 9.403 24 8 24C5.364 24 2 18.11 2 13.5C2 8.65 5.633 6 7.5 6C8.448 6 9.335 6.3 10.119 6.56C10.791 6.79 11.426 7 12 7C12.574 7 13.209 6.79 13.881 6.56C14.665 6.3 15.552 6 16.5 6ZM16.5 0C16.776 0 17 0.22 17 0.5C17 3.53 14.533 6 11.5 6C11.224 6 11 5.78 11 5.5C11 2.47 13.467 0 16.5 0Z" fill="black"/>
</svg>
