<?xml version="1.0" encoding="UTF-8"?>
<svg width="12px" height="13px" viewBox="0 0 12 13" version="1.1" xmlns="http://www.w3.org/2000/svg" xmlns:xlink="http://www.w3.org/1999/xlink">
    <title>Shape</title>
    <g id="V2" stroke="none" stroke-width="1" fill="none" fill-rule="evenodd">
        <g id="Dashboard+Ticket-tooltip" transform="translate(-651.000000, -468.000000)" fill="#FF9F3D">
            <g id="Top-Module-Today" transform="translate(78.000000, 257.000000)">
                <g id="Group-Copy-2" transform="translate(24.000000, 77.000000)">
                    <g id="module-4" transform="translate(0.000000, 129.000000)">
                        <path d="M554.485715,6.22802742 C554.728407,5.95076514 555.150313,5.92238931 555.42807,6.16464823 L555.42807,6.16464823 L560.770921,10.8246676 C560.893025,10.9311661 560.966184,11.07097 560.990379,11.2173771 C560.995901,11.2550956 560.999346,11.2938174 560.999346,11.3333427 L560.994907,11.2496355 C560.997066,11.2683024 560.998437,11.2870441 560.999021,11.3058061 L560.999346,11.3333427 C560.999346,11.342906 560.999145,11.3524224 560.998745,11.3618877 C560.997937,11.3712413 560.997225,11.3808977 560.996303,11.3905378 C560.979595,11.5919965 560.87309,11.7674199 560.717106,11.8777199 L555.42878,16.5014173 C555.151366,16.7440674 554.729419,16.7162862 554.486336,16.4393662 C554.243253,16.1624463 554.271084,15.7412515 554.548498,15.4986014 L554.548498,15.4986014 L558.547932,12 L549.645788,12.0000093 C549.310473,12.0000093 549.032874,11.7533343 548.985173,11.4318578 L548.977932,11.3333427 C548.977932,10.9651528 549.276941,10.666676 549.645788,10.666676 L549.645788,10.666676 L558.558932,10.666 L554.549208,7.16870375 C554.299226,6.95067072 554.251203,6.58773176 554.42102,6.3152001 Z" id="Shape" transform="translate(554.988639, 11.333342) rotate(-90.000000) translate(-554.988639, -11.333342) "></path>
                    </g>
                </g>
            </g>
        </g>
    </g>
</svg>