<?xml version="1.0" encoding="UTF-8"?>
<svg width="20px" height="14px" viewBox="0 0 20 14" version="1.1" xmlns="http://www.w3.org/2000/svg" xmlns:xlink="http://www.w3.org/1999/xlink">
    <title>Icon/Navigation/Arrow - Back</title>
    <g id="V2" stroke="none" stroke-width="1" fill="none" fill-rule="evenodd">
        <g id="Login_Forgot-PW" transform="translate(-280.000000, -147.000000)" fill="#0062FF" fill-rule="nonzero">
            <g id="Group-2" transform="translate(280.000000, 142.000000)">
                <g id="Icon/Navigation/Arrow---Back" transform="translate(0.000000, 5.000000)">
                    <path d="M20,6.49789916 L20,7.49789916 C20,7.77404154 19.7761424,7.99789916 19.5,7.99789916 L3.33,7.99789916 L7.78,12.4378992 C7.87465633,12.5317825 7.92789916,12.6595804 7.92789916,12.7928992 C7.92789916,12.9262179 7.87465633,13.0540159 7.78,13.1478992 L7.07,13.8478992 C6.9761167,13.9425555 6.84831877,13.9957983 6.715,13.9957983 C6.58168123,13.9957983 6.4538833,13.9425555 6.36,13.8478992 L0.22,7.71789916 C0.0793075126,7.5773818 0,7.38674451 0,7.18789916 L0,6.80789916 C0.00230400548,6.60948503 0.0811160227,6.41961972 0.22,6.27789916 L6.36,0.147899162 C6.4538833,0.0532428368 6.58168123,0 6.715,0 C6.84831877,0 6.9761167,0.0532428368 7.07,0.147899162 L7.78,0.857899162 C7.87406407,0.950062749 7.92707144,1.07620947 7.92707144,1.20789916 C7.92707144,1.33958886 7.87406407,1.46573558 7.78,1.55789916 L3.33,5.99789916 L19.5,5.99789916 C19.7761424,5.99789916 20,6.22175679 20,6.49789916 Z" id="Path"></path>
                </g>
            </g>
        </g>
    </g>
</svg>