<?xml version="1.0" encoding="UTF-8"?>
<svg width="18px" height="18px" viewBox="0 0 18 18" version="1.1" xmlns="http://www.w3.org/2000/svg" xmlns:xlink="http://www.w3.org/1999/xlink">
    <title>Component/Checkbox/Checked</title>
    <defs>
        <path d="M13.4723885,3 C15.9500918,3 16.9527593,3.27847683 17.9305371,3.80139811 C18.9083149,4.32431939 19.6756806,5.09168511 20.1986019,6.06946289 C20.7215232,7.04724067 21,8.0499082 21,10.5276115 L21,13.4723885 C21,15.9500918 20.7215232,16.9527593 20.1986019,17.9305371 C19.6756806,18.9083149 18.9083149,19.6756806 17.9305371,20.1986019 C16.9527593,20.7215232 15.9500918,21 13.4723885,21 L10.5276115,21 C8.0499082,21 7.04724067,20.7215232 6.06946289,20.1986019 C5.09168511,19.6756806 4.32431939,18.9083149 3.80139811,17.9305371 C3.27847683,16.9527593 3,15.9500918 3,13.4723885 L3,10.5276115 C3,8.0499082 3.27847683,7.04724067 3.80139811,6.06946289 C4.32431939,5.09168511 5.09168511,4.32431939 6.06946289,3.80139811 C7.04724067,3.27847683 8.0499082,3 10.5276115,3 L13.4723885,3 Z M16.7179004,8.80385416 C16.3334297,8.40736872 15.7003396,8.39762888 15.3038542,8.78209961 L15.3038542,8.78209961 L10.84375,13.1070491 L9.19614584,11.5093723 C8.7996604,11.1249016 8.16657034,11.1346415 7.78209961,11.5311269 C7.39762888,11.9276123 7.40736872,12.5607024 7.80385416,12.9451731 L7.80385416,12.9451731 L10.1476042,15.2179004 C10.5354911,15.5940332 11.1520089,15.5940332 11.5398958,15.2179004 L11.5398958,15.2179004 L16.6961458,10.2179004 C17.0926313,9.83342966 17.1023711,9.2003396 16.7179004,8.80385416 Z" id="path-1"></path>
    </defs>
    <g id="Page-1" stroke="none" stroke-width="1" fill="none" fill-rule="evenodd">
        <g id="New-Claim-2-2_EventDetailSelected" transform="translate(-328.000000, -593.000000)">
            <g id="Medical" transform="translate(233.000000, 450.000000)">
                <g id="Hospitalization" transform="translate(36.000000, 86.000000)">
                    <g id="Med-Opt-1" transform="translate(32.000000, 38.000000)">
                        <g id="Component/Checkbox/Checked" transform="translate(24.000000, 16.000000)">
                            <rect id="bounds" fill="#50A1FF" opacity="0" x="0" y="0" width="24" height="24"></rect>
                            <mask id="mask-2" fill="white">
                                <use xlink:href="#path-1"></use>
                            </mask>
                            <use id="bg" fill="#000000" xlink:href="#path-1"></use>
                            <g id="Group" mask="url(#mask-2)" fill="#22DE86">
                                <g id="Color/🎨indigo">
                                    <rect id="bg" x="0" y="0" width="24" height="24"></rect>
                                </g>
                            </g>
                        </g>
                    </g>
                </g>
            </g>
        </g>
    </g>
</svg>