<svg width="24" height="24" viewBox="0 0 24 24" fill="none" xmlns="http://www.w3.org/2000/svg">
<path d="M17.831 8.71931L10.9514 15.8089C10.8403 15.9308 10.6852 16 10.5229 16C10.3606 16 10.2055 15.9308 10.0945 15.8089L7.18105 12.8444C7.06518 12.7259 7 12.5647 7 12.3965C7 12.2284 7.06518 12.0671 7.18105 11.9487L7.82983 11.2801C7.9409 11.1582 8.09598 11.089 8.25828 11.089C8.42058 11.089 8.57565 11.1582 8.68672 11.2801L10.5229 13.1597L16.3253 7.1803C16.5633 6.9399 16.9442 6.9399 17.1822 7.1803L17.831 7.84889C18.0563 8.09254 18.0563 8.47566 17.831 8.71931Z" fill="#67E08E"/>
</svg>
