<?xml version="1.0" encoding="UTF-8"?>
<svg width="100px" height="80px" viewBox="0 0 100 80" version="1.1" xmlns="http://www.w3.org/2000/svg" xmlns:xlink="http://www.w3.org/1999/xlink">
    <title>Group 4</title>
    <defs>
        <polygon id="path-1" points="0.3322 0.236443268 21.4132 0.236443268 21.4132 37 0.3322 37"></polygon>
        <polygon id="path-3" points="0.4132 0.236443268 21.4932 0.236443268 21.4932 37 0.4132 37"></polygon>
        <polygon id="path-5" points="0.7951 0.817057564 49.175 0.817057564 49.175 16.8205 0.7951 16.8205"></polygon>
        <polygon id="path-7" points="0.7951 0.817057564 49.175 0.817057564 49.175 16.8205 0.7951 16.8205"></polygon>
    </defs>
    <g id="Page-1" stroke="none" stroke-width="1" fill="none" fill-rule="evenodd">
        <g id="New-Claim-1-1_ChooseEvent" transform="translate(-1174.000000, -308.000000)">
            <g id="Actions" transform="translate(233.000000, 298.000000)">
                <g id="Action-6" transform="translate(908.000000, 0.000000)">
                    <g id="Group-4" transform="translate(33.000000, 10.000000)">
                        <rect id="Rectangle" x="0" y="0" width="100" height="80"></rect>
                        <g id="Illustration" transform="translate(11.000000, 9.000000)">
                            <polygon id="Fill-1" fill="#768399" points="3.8673 5.8676 0.0003 11.4966 6.4193 52.6426 42.2533 47.0516 35.0673 1.0006"></polygon>
                            <polygon id="Fill-2" fill="#E0E0F5" points="4.8672 4.8677 1.0002 10.4957 7.4192 51.6427 43.2532 46.0517 36.0672 0.0007"></polygon>
                            <polygon id="Fill-3" fill="#768399" points="4.8673 4.8678 1.0003 10.4958 5.6323 9.7728"></polygon>
                            <polygon id="Fill-4" fill="#AF101B" points="20.0597 56.3517 16.5777 55.1997 13.4377 57.3847 12.0057 48.2097 18.6277 47.1767"></polygon>
                            <g id="Group-35" transform="translate(4.000000, 7.646900)">
                                <path d="M15.7237,35.6843 C16.1527,38.4273 14.2757,40.9983 11.5327,41.4263 C8.7887,41.8543 6.2187,39.9773 5.7897,37.2343 C5.3627,34.4913 7.2397,31.9203 9.9827,31.4923 C12.7257,31.0643 15.2957,32.9413 15.7237,35.6843" id="Fill-5" fill="#FB3D3E"></path>
                                <path d="M14.6896,35.8459 C15.0286,38.0169 13.5426,40.0529 11.3716,40.3909 C9.1996,40.7299 7.1646,39.2439 6.8256,37.0729 C6.4866,34.9009 7.9716,32.8659 10.1436,32.5269 C12.3156,32.1879 14.3506,33.6739 14.6896,35.8459" id="Fill-7" fill="#B51521"></path>
                                <polygon id="Fill-9" fill="#768399" points="29.3839 3.553 1.2209 7.947 0.7589 4.984 28.9219 0.59"></polygon>
                                <polygon id="Fill-11" fill="#768399" points="30.2765 9.2756 2.1135 13.6696 1.6515 10.7066 29.8145 6.3126"></polygon>
                                <polygon id="Fill-13" fill="#768399" points="31.17 14.9978 3.007 19.3918 2.544 16.4288 30.707 12.0348"></polygon>
                                <polygon id="Fill-15" fill="#768399" points="21.8439 22.3147 3.8999 25.1147 3.4369 22.1507 21.3819 19.3517"></polygon>
                                <polygon id="Fill-17" fill="#768399" points="34.1036 33.8 21.9206 35.7 21.4586 32.738 33.6406 30.837"></polygon>
                                <g id="Group-21" transform="translate(26.000000, 17.000000)">
                                    <mask id="mask-2" fill="white">
                                        <use xlink:href="#path-1"></use>
                                    </mask>
                                    <g id="Clip-20"></g>
                                    <path d="M21.4132,5.6614 C21.4132,0.1464 0.3322,-5.3216 0.3322,11.7694 C0.3322,25.5134 17.7092,34.2054 21.4132,37.0004 L21.4132,5.6614 Z" id="Fill-19" fill="#FB7A6A" mask="url(#mask-2)"></path>
                                </g>
                                <g id="Group-24" transform="translate(47.000000, 17.000000)">
                                    <mask id="mask-4" fill="white">
                                        <use xlink:href="#path-3"></use>
                                    </mask>
                                    <g id="Clip-23"></g>
                                    <path d="M0.4132,5.6614 C0.4132,0.1464 21.4932,-5.3216 21.4932,11.7694 C21.4932,25.5134 4.1172,34.2054 0.4132,37.0004 L0.4132,5.6614 Z" id="Fill-22" fill="#B51D00" mask="url(#mask-4)"></path>
                                </g>
                                <path d="M28.2794,30.3782 C28.2794,30.3782 27.2924,23.9692 32.2954,20.6052 C37.2974,17.2412 41.9924,20.6052 41.9924,20.6052 C41.9924,20.6052 31.3864,17.5742 28.2794,30.3782" id="Fill-25" fill="#FACEB4"></path>
                                <path d="M48.0909,52.3113 C48.0909,52.3113 58.8299,45.7203 62.8079,40.3223 C66.7849,34.9243 67.2959,31.3443 67.2399,30.3783 C66.8989,32.5703 62.5799,42.4803 48.0909,52.3113" id="Fill-27" fill="#A01600"></path>
                                <g id="Group-31" transform="translate(25.000000, 31.000000)">
                                    <mask id="mask-6" fill="white">
                                        <use xlink:href="#path-5"></use>
                                    </mask>
                                    <g id="Clip-30"></g>
                                    <path d="M38.3741,6.5325 C38.3601,6.5325 20.1441,6.5315 20.1441,6.5315 L20.1431,6.5315 C19.8791,6.5315 19.6511,6.7165 19.5991,6.9745 L19.5041,7.4285 L19.1661,6.3945 C19.0921,6.1695 18.8841,6.0155 18.6461,6.0115 C18.4141,6.0115 18.1961,6.1545 18.1161,6.3775 L17.5481,7.9345 L16.9591,5.1235 C16.9061,4.8745 16.6911,4.6925 16.4371,4.6825 C16.1791,4.6775 15.9531,4.8375 15.8821,5.0825 L13.2961,13.9655 L10.6621,1.2605 C10.6111,1.0165 10.4041,0.8355 10.1551,0.8185 C9.9071,0.8005 9.6771,0.9525 9.5941,1.1885 L6.8721,8.8805 L6.0641,6.8795 C5.9781,6.6695 5.7751,6.5315 5.5491,6.5315 L1.3511,6.5325 C1.0431,6.5325 0.7951,6.7815 0.7951,7.0885 C0.7951,7.3945 1.0431,7.6435 1.3511,7.6435 L5.1741,7.6425 L6.3921,10.6565 C6.4781,10.8705 6.6881,11.0155 6.9191,11.0035 C7.1501,10.9985 7.3531,10.8515 7.4311,10.6335 L9.9781,3.4355 L12.6601,16.3775 C12.7121,16.6275 12.9281,16.8105 13.1831,16.8205 C13.1901,16.8205 13.1971,16.8205 13.2051,16.8205 C13.4511,16.8205 13.6691,16.6585 13.7381,16.4195 L16.3271,7.5285 L16.8591,10.0685 C16.9101,10.3105 17.1161,10.4905 17.3631,10.5095 C17.6101,10.5245 17.8401,10.3775 17.9251,10.1445 L18.6091,8.2675 L19.0981,9.7575 C19.1761,9.9965 19.4071,10.1535 19.6571,10.1385 C19.9081,10.1235 20.1191,9.9435 20.1701,9.6975 L20.5951,7.6425 L22.4701,7.6435 C22.4821,7.6435 22.4941,7.6365 22.5081,7.6355 C22.5211,7.6365 38.3121,7.6435 38.3261,7.6435 L48.6191,7.6435 C48.9261,7.6435 49.1751,7.3945 49.1751,7.0885 C49.1751,6.7815 48.9261,6.5325 48.6191,6.5325 L38.3741,6.5325 Z" id="Fill-29" fill="#768399" mask="url(#mask-6)"></path>
                                </g>
                                <g id="Group-34" transform="translate(25.000000, 30.000000)">
                                    <mask id="mask-8" fill="white">
                                        <use xlink:href="#path-7"></use>
                                    </mask>
                                    <g id="Clip-33"></g>
                                    <path d="M38.3741,6.5325 C38.3601,6.5325 20.1441,6.5315 20.1441,6.5315 L20.1431,6.5315 C19.8791,6.5315 19.6511,6.7165 19.5991,6.9745 L19.5041,7.4285 L19.1661,6.3945 C19.0921,6.1695 18.8841,6.0155 18.6461,6.0115 C18.4141,6.0115 18.1961,6.1545 18.1161,6.3775 L17.5481,7.9345 L16.9591,5.1235 C16.9061,4.8745 16.6911,4.6925 16.4371,4.6825 C16.1791,4.6775 15.9531,4.8375 15.8821,5.0825 L13.2961,13.9655 L10.6621,1.2605 C10.6111,1.0165 10.4041,0.8355 10.1551,0.8185 C9.9071,0.8005 9.6771,0.9525 9.5941,1.1885 L6.8721,8.8805 L6.0641,6.8795 C5.9781,6.6695 5.7751,6.5315 5.5491,6.5315 L1.3511,6.5325 C1.0431,6.5325 0.7951,6.7815 0.7951,7.0885 C0.7951,7.3945 1.0431,7.6435 1.3511,7.6435 L5.1741,7.6425 L6.3921,10.6565 C6.4781,10.8705 6.6881,11.0155 6.9191,11.0035 C7.1501,10.9985 7.3531,10.8515 7.4311,10.6335 L9.9781,3.4355 L12.6601,16.3775 C12.7121,16.6275 12.9281,16.8105 13.1831,16.8205 C13.1901,16.8205 13.1971,16.8205 13.2051,16.8205 C13.4511,16.8205 13.6691,16.6585 13.7381,16.4195 L16.3271,7.5285 L16.8591,10.0685 C16.9101,10.3105 17.1161,10.4905 17.3631,10.5095 C17.6101,10.5245 17.8401,10.3775 17.9251,10.1445 L18.6091,8.2675 L19.0981,9.7575 C19.1761,9.9965 19.4071,10.1535 19.6571,10.1385 C19.9081,10.1235 20.1191,9.9435 20.1701,9.6975 L20.5951,7.6425 L22.4701,7.6435 C22.4821,7.6435 22.4941,7.6365 22.5081,7.6355 C22.5211,7.6365 38.3121,7.6435 38.3261,7.6435 L48.6191,7.6435 C48.9261,7.6435 49.1751,7.3945 49.1751,7.0885 C49.1751,6.7815 48.9261,6.5325 48.6191,6.5325 L38.3741,6.5325 Z" id="Fill-32" fill="#FFFFFF" mask="url(#mask-8)"></path>
                                </g>
                            </g>
                        </g>
                    </g>
                </g>
            </g>
        </g>
    </g>
</svg>