<?xml version="1.0" encoding="UTF-8"?>
<svg width="32px" height="32px" viewBox="0 0 32 32" version="1.1" xmlns="http://www.w3.org/2000/svg" xmlns:xlink="http://www.w3.org/1999/xlink">
    <title>Declined</title>
    <g id="Page-1" stroke="none" stroke-width="1" fill="none" fill-rule="evenodd">
        <g id="Dashboard" transform="translate(-1135.000000, -554.000000)">
            <g id="Stats---Declined" transform="translate(1095.000000, 510.000000)">
                <g id="Icon" transform="translate(26.000000, 30.000000)">
                    <g id="Declined" transform="translate(14.000000, 14.000000)">
                        <rect id="Rectangle" x="0" y="0" width="32" height="32"></rect>
                        <path d="M13.0448155,16 L8.61203875,11.5672232 C7.79598708,10.7511716 7.79598708,9.42809042 8.61203875,8.61203875 C9.42809042,7.79598708 10.7511716,7.79598708 11.5672232,8.61203875 L16,13.0448155 L20.4327768,8.61203875 C21.2488284,7.79598708 22.5719096,7.79598708 23.3879613,8.61203875 C24.2040129,9.42809042 24.2040129,10.7511716 23.3879613,11.5672232 L18.9551845,16 L23.3879613,20.4327768 C24.2040129,21.2488284 24.2040129,22.5719096 23.3879613,23.3879613 C22.5719096,24.2040129 21.2488284,24.2040129 20.4327768,23.3879613 L16,18.9551845 L11.5672232,23.3879613 C10.7511716,24.2040129 9.42809042,24.2040129 8.61203875,23.3879613 C7.79598708,22.5719096 7.79598708,21.2488284 8.61203875,20.4327768 L13.0448155,16 L13.0448155,16 Z" id="Combined-Shape" fill="#F0F2F4"></path>
                    </g>
                </g>
            </g>
        </g>
    </g>
</svg>