<?xml version="1.0" encoding="UTF-8"?>
<svg width="20px" height="20px" viewBox="0 0 20 20" version="1.1" xmlns="http://www.w3.org/2000/svg" xmlns:xlink="http://www.w3.org/1999/xlink">
    <title>Delete icon</title>
    <g id="V2" stroke="none" stroke-width="1" fill="none" fill-rule="evenodd">
        <g id="Push-Notifications-2-1_Drafts" transform="translate(-1330.000000, -180.000000)">
            <g id="Top-Header" transform="translate(597.000000, 94.000000)">
                <g id="Delete-icon" transform="translate(733.000000, 86.000000)">
                    <g id="Group" transform="translate(3.000000, 1.000000)" stroke="#0062FF" stroke-linecap="round" stroke-linejoin="round">
                        <g id="Delete">
                            <path d="M10.7058824,17 L3.29411765,17 C2.38411765,17 1.64705882,16.23925 1.64705882,15.3 L0.823529412,3.4 L13.1764706,3.4 L12.3529412,15.3 C12.3529412,16.23925 11.6158824,17 10.7058824,17 Z" id="Stroke-2635"></path>
                            <path d="M6.58823529,0 C5.67823529,0 4.94117647,0.76075 4.94117647,1.7 L0,1.7 L0,3.4 L14,3.4 L14,1.7 L9.05882353,1.7 C9.05882353,0.76075 8.32176471,0 7.41176471,0 L6.58823529,0 Z" id="Stroke-2636"></path>
                            <line x1="7" y1="5.95" x2="7" y2="14.45" id="Stroke-2638"></line>
                            <line x1="3.70588235" y1="5.95" x2="4.13857275" y2="14.45" id="Stroke-2637"></line>
                            <line x1="10.2941176" y1="5.95" x2="9.89310454" y2="14.45" id="Stroke-2639"></line>
                        </g>
                    </g>
                    <rect id="Rectangle" x="0" y="0" width="20" height="20"></rect>
                </g>
            </g>
        </g>
    </g>
</svg>