<?xml version="1.0" encoding="UTF-8"?>
<svg width="100px" height="80px" viewBox="0 0 100 80" version="1.1" xmlns="http://www.w3.org/2000/svg" xmlns:xlink="http://www.w3.org/1999/xlink">
    <title>Permanent Disability</title>
    <defs>
        <polygon id="path-1" points="7.22380677e-05 0.411893281 40.5841429 0.411893281 40.5841429 63 7.22380677e-05 63"></polygon>
        <polygon id="path-3" points="0.584480017 0.410571665 19.5337987 0.410571665 19.5337987 14.944744 0.584480017 14.944744"></polygon>
        <polygon id="path-5" points="0 0.360984258 21.5558783 0.360984258 21.5558783 36.8025584 0 36.8025584"></polygon>
        <polygon id="path-7" points="0 65 42.5836818 65 42.5836818 0.410571665 0 0.410571665"></polygon>
    </defs>
    <g id="Page-1" stroke="none" stroke-width="1" fill="none" fill-rule="evenodd">
        <g id="New-Claim-1-1_ChooseEvent" transform="translate(-993.000000, -308.000000)">
            <g id="Actions" transform="translate(233.000000, 298.000000)">
                <g id="Action-5" transform="translate(727.000000, 0.000000)">
                    <g id="Permanent-Disability" transform="translate(33.000000, 10.000000)">
                        <rect id="Rectangle" x="0" y="0" width="100" height="80"></rect>
                        <g id="Illustration" transform="translate(28.000000, 7.000000)">
                            <g id="Group-3" transform="translate(2.000000, 2.000000)">
                                <mask id="mask-2" fill="white">
                                    <use xlink:href="#path-1"></use>
                                </mask>
                                <g id="Clip-2"></g>
                                <path d="M37.5204667,30.4142253 C35.6208,29.8854901 33.8031333,29.1824466 32.1377524,28.4096798 C31.8253714,28.2198775 27.7878476,25.781498 27.1279429,25.500668 L25.8940381,24.2592055 C25.9818952,24.1526838 26.0697524,24.0480988 26.1537048,23.9357668 C26.1615143,23.9241462 26.1693238,23.9125257 26.175181,23.9028419 C26.3274667,23.6994822 26.4738952,23.4883755 26.616419,23.267585 C26.6320381,23.2443439 26.6457048,23.2211028 26.6593714,23.1978617 C26.7940857,22.9848182 26.9229429,22.7679012 27.0518,22.5393636 C27.0713238,22.4986917 27.0928,22.4541462 27.1162286,22.4134743 C27.2294667,22.1965573 27.3446571,21.9796403 27.4539905,21.7472292 C27.4832762,21.685253 27.5106095,21.6155296 27.5418476,21.5496798 C27.6375143,21.3366364 27.7351333,21.1235929 27.8249429,20.8969921 C27.8659429,20.8020909 27.8991333,20.6975059 27.938181,20.5987312 C28.0162762,20.3973083 28.0943714,20.1958854 28.1666095,19.9847787 C28.2115143,19.8472688 28.2544667,19.7039486 28.2993714,19.5625652 C28.3579429,19.3805099 28.4184667,19.2023281 28.4731333,19.0125257 C28.5688,18.6794032 28.6605619,18.3346601 28.7445143,17.98217 C29.8495619,17.6490474 29.5176571,15.6948577 30.2771333,13.6961225 C30.6598,12.6986917 29.9393714,12.5398775 29.4590857,12.5321304 C29.4610381,12.5050158 29.4590857,12.4837115 29.4590857,12.4585336 C29.4688476,12.4527233 29.4766571,12.439166 29.4883714,12.4352925 C30.1307048,12.2164387 30.1248476,12.17383 30.1268,10.4268735 C30.1307048,9.35584585 30.4079429,7.75995652 29.7519429,5.71280237 C29.3380381,4.41904743 27.3095143,0.411893281 20.7241333,0.411893281 C14.1231333,0.411893281 12.1258476,4.30671542 11.7060857,5.58497628 C11.036419,7.63600395 11.3175619,9.35003557 11.3195143,10.4268735 C11.323419,12.17383 11.3156095,12.2164387 11.9598952,12.4352925 L11.9618476,12.4372292 C11.4835143,12.4449763 10.800181,12.607664 11.1633238,13.5857273 C11.8993714,15.5902727 11.5459905,17.5425257 12.6490857,17.8911423 C13.2640857,20.6064783 14.244181,22.7543439 15.505419,24.2979407 L14.572181,25.2372688 C14.5546095,25.2488893 12.0282286,27.0094032 10.2437524,27.9119328 C8.35775238,28.8086522 6.24722857,29.6279012 4.04299048,30.2147391 C0.436942857,31.1734348 -1.42562857,60.3119723 1.30575238,61.7819723 C2.00470476,62.1596403 4.32218095,62.4520909 7.83646667,62.6554506 L7.83646667,62.6573874 L8.23084762,62.6786917 C8.4378,62.6903123 8.64865714,62.699996 8.86341905,62.7116166 L9.25389524,62.7329209 L9.25389524,62.7309842 C11.4229905,62.8336324 13.9532762,62.9072292 16.7900857,62.9517747 L16.7959429,62.9692055 L18.4535143,63.0001937 L22.2548,63.0001937 L22.2606571,63.0001937 L22.8717524,63.0001937 L23.879181,63.0001937 L23.879181,62.9982569 C27.9108476,62.9905099 31.3782762,62.9227233 34.0706095,62.789087 C34.0706095,61.7238696 34.1155143,60.8465178 34.1877524,60.1086126 C36.1049905,59.7077036 37.6903238,59.0763202 38.6548,58.0788893 C40.1347048,56.546913 40.2811333,55.013 40.279181,54.2867154 C41.1362762,45.5964783 40.1776571,31.1521304 37.5204667,30.4142253" id="Fill-1" fill="#808080" mask="url(#mask-2)"></path>
                            </g>
                            <polygon id="Fill-4" fill="#F6C5A2" points="17 24.9141791 17.7860592 24 25.4142347 24 26 25.4676617 21.6766744 29"></polygon>
                            <polygon id="Fill-5" fill="#FCFCFC" points="26.3944113 24 21.0010188 28.1399844 15.6055887 24 14 25.5128319 15.1430651 28.1286524 20.9969437 41 21.0010188 40.8130208 21.0030563 41 26.8589725 28.1286524 28 25.5128319"></polygon>
                            <polygon id="Fill-6" fill="#23262B" points="13.7677292 25 12.7358537 25.5964598 10 32.4713413 11.8838646 40.2233695 17.2290586 61.9688126 18.9093155 62 23.3807759 62 24.4007907 62 34 31.8495417 29.5799358 25.5418818 29.3585372 25.4112844 29.0185322 25.2163629 25.2013837 29.3935307 21.9990116 41.3305237 20.2772424 41.3753556 16.703237 28.3292593"></polygon>
                            <g id="Group-61">
                                <path d="M25.0961682,34.9640547 L29.3551227,32.5833422 L28.4716682,26.4764656 C28.1159409,26.2515775 27.7914864,26.028628 27.5158955,25.8076172 C27.5158955,25.8076172 26.4018045,27.3294896 24.5782136,28.4209727 L20.7414409,40.7529859 L17.0395318,28.3725054 C15.24135,27.2616355 14.1546227,25.7300696 14.1546227,25.7300696 C13.8751227,25.9510804 13.54285,26.1740298 13.1734409,26.3950406 L12.2235318,32.4864076 L16.4512136,34.91171 L13.5506682,36.8368302 L20.8118045,49.9889097 C20.9017136,49.9908484 21.0873955,49.9889097 21.2320318,49.9889097 L27.9752136,36.9182552 L25.0961682,34.9640547 Z" id="Fill-7" fill="#1B648A"></path>
                                <polygon id="Fill-9" fill="#729FB2" points="20.7422227 28.5233355 19.3427682 29.4829876 19.8783136 30.741198 21.8367682 30.741198 22.2784955 29.4383977"></polygon>
                                <polygon id="Fill-11" fill="#729FB2" points="19.8546636 31.0052477 19.1627545 33.8531848 20.7420273 39.4133505 22.4581182 33.8085949 21.7896636 31.0052477"></polygon>
                                <path d="M12.6625227,17.9078393 C13.9622955,23.6366711 16.8608864,26.8762237 20.6663864,27.1301922 C24.4738409,26.9208136 27.4095682,23.71228 28.7757955,17.9970191 C29.8840227,17.6655029 29.55175,15.7093637 30.3101136,13.7066959 C30.6951591,12.7082701 29.9719773,12.5492974 29.4911591,12.5434814 C29.6299318,5.49827838 25.8400682,2.92563546 20.8071136,2.76084673 C15.7682955,2.86747473 11.9510682,5.39940514 12.0038409,12.4465468 C11.5230227,12.4484855 10.8076591,12.5997034 11.1751136,13.5961906 C11.9119773,15.6046744 11.5601591,17.5569362 12.6625227,17.9078393" id="Fill-13" fill="#FFBE93"></path>
                                <path d="M29.4919409,12.5432875 C29.6287591,5.50196189 25.8447591,2.92931897 20.8137591,2.76065286 L20.8137591,27.1144888 C24.55085,26.8295012 27.4259864,23.6364772 28.7765773,17.9968252 C29.88285,17.665309 29.5505773,15.7091698 30.3108955,13.7084408 C30.6939864,12.7080762 29.9727591,12.5491036 29.4919409,12.5432875" id="Fill-15" fill="#FFA870"></path>
                                <g id="Group-19" transform="translate(10.687621, 0.000000)">
                                    <mask id="mask-4" fill="white">
                                        <use xlink:href="#path-3"></use>
                                    </mask>
                                    <g id="Clip-18"></g>
                                    <path d="M10.0604655,0.410377796 C3.45019275,0.410377796 1.45264729,4.30908534 1.03242002,5.58862138 C0.360056383,7.64169511 0.643465474,9.35743662 0.645420019,10.4353488 C0.647374565,12.1840481 0.641510928,12.2286379 1.28651093,12.4457713 C1.93151093,12.6648434 2.0937382,14.944744 2.0937382,14.944744 C2.0937382,14.0006015 2.84037456,11.8408998 3.19219275,10.0476106 C3.32901093,9.35743662 4.42942002,5.44321955 8.97764729,6.7421425 C14.4523291,8.30666611 15.9553746,5.98993041 16.9267837,10.0476106 C17.3489655,11.8234515 18.0232837,14.0006015 18.0232837,14.944744 C18.0232837,14.944744 18.1874655,12.6648434 18.8324655,12.4457713 C19.4755109,12.2286379 19.4696473,12.1840481 19.4716018,10.4353488 C19.4755109,9.36325269 19.7550109,7.76577133 19.0963291,5.71657498 C18.6819655,4.42152941 16.6511927,0.410377796 10.0604655,0.410377796" id="Fill-17" fill="#0F3E5F" mask="url(#mask-4)"></path>
                                </g>
                                <path d="M14.1419182,14.1382486 C14.1419182,14.1382486 13.9875091,12.629947 15.3713273,12.629947 C16.7551455,12.629947 16.7727364,12.7307589 16.7727364,12.7307589 L15.2951,16.3754979 L15.6449636,16.5112063 L17.1304182,12.629947 L17.8321,12.7152494 L16.3446909,16.5112063 L17.0639636,16.5112063 L18.4810091,12.7307589 C18.4810091,12.7307589 19.6791455,13.137884 19.6439636,13.88428 C19.6087818,14.6287374 19.0966909,16.5790605 17.7480545,16.7147688 C16.3955091,16.8504772 14.6716,16.7128302 14.4155545,15.9160282 C14.1575545,15.1211649 14.0911,14.7353654 14.1419182,14.1382486" id="Fill-20" fill="#FFFFFF"></path>
                                <path d="M27.2567227,14.1382486 C27.2567227,14.1382486 27.4111318,12.629947 26.0273136,12.629947 L25.8553136,12.7404524 L24.7119045,16.437536 L24.3600864,16.462739 L25.5719045,12.629947 L24.7724955,12.629947 L23.57045,16.406517 L23.0818136,16.3599884 L24.2213136,12.7307589 C24.2213136,12.7307589 21.6432682,12.6958625 21.7546773,13.88428 C21.8250409,14.6267987 22.3039045,16.5790605 23.6525409,16.7147688 C22.1338591,16.5616123 26.6899045,16.833029 26.9830864,15.9160282 C27.2410864,15.1211649 27.3075409,14.7353654 27.2567227,14.1382486" id="Fill-22" fill="#FFFFFF"></path>
                                <path d="M26.6899045,15.8033902 C26.2911773,16.2473505 25.41945,16.3597945 24.2955864,16.3229594 C23.1756318,16.2861243 22.0048591,15.2586181 22.0048591,14.1962154 C22.0048591,13.3063563 22.68895,12.9360663 23.5724045,12.9360663 L26.3517682,12.9360663 C27.2137227,12.9360663 27.1648591,15.2721889 26.6899045,15.8033902 M27.4951773,13.0426943 C27.2606318,12.5270025 26.8462682,12.2303828 26.3517682,12.2303828 L23.5724045,12.2303828 C22.1866318,12.2303828 21.29145,13.0019818 21.29145,14.1962154 C21.29145,15.6017664 22.7397682,16.978237 24.2721318,17.0286429 C24.4128591,17.0325203 24.5457682,17.034459 24.6786773,17.034459 C25.9647682,17.034459 26.7504955,16.7998774 27.2215409,16.2725534 C27.8157227,15.6095211 27.8782682,13.8899022 27.4951773,13.0426943" id="Fill-24" fill="#0F3E5F"></path>
                                <path d="M15.1401045,12.9350969 L17.9214227,12.9350969 C18.8048773,12.9350969 19.4889682,13.3053869 19.4889682,14.1952461 C19.4889682,15.2595874 18.3181955,16.2870936 17.1962864,16.3239287 C16.0743773,16.3588252 15.1987409,16.2483198 14.8039227,15.8024209 C14.3289682,15.2712196 14.2801045,12.9350969 15.1401045,12.9350969 M14.2722864,16.2715841 C14.7433318,16.8008467 15.5271045,17.0354283 16.8131955,17.0354283 C16.9461045,17.0354283 17.0790136,17.0334896 17.2197409,17.0276736 C18.7540591,16.9772676 20.2004227,15.600797 20.2004227,14.1952461 C20.2004227,13.0010124 19.3052409,12.2294134 17.9214227,12.2294134 L15.1401045,12.2294134 C14.6475591,12.2294134 14.2312409,12.5260331 13.9966955,13.0436636 C13.6136045,13.8908716 13.67615,15.6085518 14.2722864,16.2715841" id="Fill-26" fill="#0F3E5F"></path>
                                <g id="Group-30" transform="translate(0.000000, 26.226181)">
                                    <mask id="mask-6" fill="white">
                                        <use xlink:href="#path-5"></use>
                                    </mask>
                                    <g id="Clip-29"></g>
                                    <path d="M21.5306864,27.7159138 C21.4759591,26.7465684 20.7430045,25.6415145 20.7430045,25.6415145 L11.7716409,10.387894 L14.8852318,8.8097995 L10.9409591,6.42327092 L12.8388227,0.360984258 C10.4151864,1.76071914 7.32895909,3.1430058 4.04727727,4.01735543 C0.437231818,4.97700746 -1.42740455,34.1426744 1.30700455,35.6160795 C2.49536818,36.2558476 8.31795909,36.6552179 16.8104591,36.7870489 L16.8104591,36.7889876 L16.8964591,36.7889876 C17.2189591,36.792865 17.53755,36.798681 17.8678682,36.8025584 L17.8659136,36.792865 L21.5306864,36.8025584 C21.5306864,36.8025584 21.5873682,28.687198 21.5306864,27.7159138" id="Fill-28" fill="#175B82" mask="url(#mask-6)"></path>
                                </g>
                                <path d="M37.5620636,30.4430273 C34.2745182,29.5260265 31.2117455,28.09915 28.8076545,26.668396 L30.6332,32.7578244 L26.6654727,35.099763 L29.7634273,36.7166313 L21.2337909,51.2064076 C21.2337909,51.2064076 22.2599273,52.9764325 22.2794727,54.3199453 C22.2990182,55.6634582 22.2794727,63.0615029 22.2794727,63.0615029 L23.5772909,63.042116 L23.5714273,63.0615029 C27.7522,63.0576255 31.3368364,62.9878326 34.1083818,62.8501856 C34.1083818,57.7456123 35.0739273,56.7588186 35.7423818,56.4079155 C36.4323364,56.047319 39.9896091,57.540111 40.2945182,54.6340133 C41.2033818,45.9700033 40.2534727,31.1894234 37.5620636,30.4430273" id="Fill-31" fill="#0F3E5F"></path>
                                <path d="M20.4674136,55.4595079 C20.4674136,55.8705104 20.1312318,56.2039652 19.7149136,56.2039652 C19.30055,56.2039652 18.9643682,55.8705104 18.9643682,55.4595079 C18.9643682,55.0465667 19.30055,54.7131118 19.7149136,54.7131118 C20.1312318,54.7131118 20.4674136,55.0465667 20.4674136,55.4595079" id="Fill-33" fill="#23262B"></path>
                                <path d="M20.4674136,61.0815178 C20.4674136,61.4925203 20.1312318,61.8279138 19.7149136,61.8279138 C19.30055,61.8279138 18.9643682,61.4925203 18.9643682,61.0815178 C18.9643682,60.6705153 19.30055,60.3370605 19.7149136,60.3370605 C20.1312318,60.3370605 20.4674136,60.6705153 20.4674136,61.0815178" id="Fill-35" fill="#23262B"></path>
                                <path d="M8.27632727,42.8760464 C8.27632727,42.8760464 8.83337273,53.2771234 8.93305455,57.3212328 C9.02100909,60.8128152 9.26532727,62.7922187 9.26532727,62.7922187 L7.84241818,62.7185485 C7.84241818,62.7185485 8.08869091,50.0143065 8.27632727,42.8760464" id="Fill-37" fill="#23262B"></path>
                                <path d="M33.6758409,42.8760464 C33.6758409,42.8760464 21.7433409,59.1532958 16.9547045,59.4634863 C13.5694318,59.6806197 24.2490682,63.0306777 24.2490682,63.0306777 L34.10975,62.8503795 C34.10975,62.8503795 33.8634773,50.0143065 33.6758409,42.8760464" id="Fill-39" fill="#0F3E5F"></path>
                                <polygon id="Fill-41" fill="#0F3E5F" points="20.7422227 40.752792 21.2328136 49.9887158 21.74295 49.0019221 21.0666773 39.7058989"></polygon>
                                <path d="M14.5885318,25.2603248 C14.5885318,25.2603248 11.4202136,27.4704325 9.66503182,28.2168285 C9.89371364,29.6902336 12.2059409,55.4321723 16.0681227,60.6821475 C20.8841227,58.5689743 28.1980318,57.3340282 28.1980318,57.3340282 C28.1980318,57.3340282 19.3439409,47.3303828 14.5885318,25.2603248" id="Fill-43" fill="#E0FDFF"></path>
                                <path d="M12.8249455,60.0999586 C12.8249455,60.0999586 10.9505364,60.0863877 9.83253636,60.2841342 C8.71258182,60.479942 5.86480909,60.875435 5.56967273,60.2841342 C5.23935455,59.6191632 5.47780909,59.4873322 5.47780909,59.4873322 L6.24008182,59.4853935 C6.24008182,59.4853935 4.77417273,59.5823281 4.76244545,58.6149213 C4.74876364,57.6494532 5.58726364,57.9286247 5.74167273,57.9286247 C5.89803636,57.9286247 4.46925972,57.9596437 4.46925972,56.9709114 C4.46730909,56.2613505 5.19830909,56.1333969 5.41330909,56.1508451 C5.63221818,56.170232 4.80349091,56.1101326 4.88753636,55.3404722 C4.96571818,54.7549876 5.63221818,54.5669345 5.91367273,54.5494863 C6.19121818,54.5339768 6.96912727,54.5494863 6.96912727,54.5494863 C6.96912727,54.5494863 7.77635455,53.9174731 8.55426364,53.6092212 C9.33412727,53.3009693 9.85208182,53.4715742 10.2977182,53.886454 C10.7472636,54.3032726 11.0130818,54.739478 11.0130818,54.739478 C11.0130818,54.739478 11.9004455,54.8771251 12.5689,54.8751864 C13.2373545,54.8732477 12.8249455,60.0999586 12.8249455,60.0999586" id="Fill-45" fill="#FFBE93"></path>
                                <path d="M6.96893182,54.5498741 L9.16388636,54.6603795 C9.16388636,54.6603795 9.10134091,54.1640746 8.89806818,54.1795841 C8.69675,54.1950936 7.14093182,54.5518128 6.96893182,54.5498741" id="Fill-47" fill="#FFA870"></path>
                                <path d="M9.83195,60.2835526 C10.94995,60.0858061 12.8243591,60.099377 12.8243591,60.099377 C12.8243591,60.099377 13.2367682,54.8726661 12.5683136,54.8746048 C12.3787227,54.8765435 12.1734955,54.8649114 11.9741318,54.8494018 C11.9545864,55.5240663 11.8724955,57.8601889 11.6184045,58.4379188 C11.3252227,59.1164606 10.5004045,59.440222 9.42735909,59.5022601 C8.35431364,59.5623596 7.24999545,59.8725501 6.87667727,59.8260215 C6.50335909,59.779493 6.95290455,59.2405369 6.36458636,59.0854416 C5.77235909,58.932285 5.23681364,58.505773 5.38535909,58.2072146 C5.52999545,57.9067175 6.42517727,57.866005 6.37826818,57.389087 C6.33331364,56.9102303 4.98663182,57.2805203 5.08826818,56.7260547 C5.18990455,56.1696504 5.33649545,56.1948534 5.52413182,56.1522022 C5.71176818,56.109551 6.81413182,56.2316885 6.79849545,56.0009843 C6.78285909,55.7683413 5.20163182,56.0785319 5.08240455,55.1518376 C5.07263182,55.0820447 5.05699545,55.0316388 5.03354091,54.9909263 C4.96122273,55.0878608 4.90454091,55.2003049 4.88890455,55.3398906 C4.80485909,56.109551 5.63358636,56.1696504 5.41272273,56.1522022 C5.19772273,56.1328152 4.46672273,56.2607688 4.46867336,56.9703297 C4.46867336,57.6333621 5.10390455,57.8349859 5.47917727,57.897024 C5.17817727,57.871821 4.75208636,57.922227 4.76185909,58.6162784 C4.76967727,59.3491036 5.61013182,59.4693024 6.02058636,59.4848119 L5.47722273,59.4867506 C5.47722273,59.4867506 5.23876818,59.6185816 5.56908636,60.2835526 C5.86617727,60.8748534 8.71395,60.4793604 9.83195,60.2835526" id="Fill-49" fill="#FFA870"></path>
                                <mask id="mask-8" fill="white">
                                    <use xlink:href="#path-7"></use>
                                </mask>
                                <g id="Clip-52"></g>
                                <polygon id="Fill-51" fill="#FCFCFC" mask="url(#mask-8)" points="12.3625 60.1823529 20.4836364 60.1823529 20.4836364 53.8660978 12.3625 53.8660978"></polygon>
                                <polygon id="Fill-53" fill="#DDDDDD" mask="url(#mask-8)" points="15.4532227 57.6841558 15.4532227 53.8649345 20.4842227 53.8649345 20.4842227 58.6709495 20.4842227 60.1831284 15.4532227 60.1831284 12.3630864 60.1831284 12.3630864 57.6841558"></polygon>
                                <polygon id="Fill-54" fill="#175B82" mask="url(#mask-8)" points="16.2149091 60.8298757 24.3340909 60.8298757 24.3340909 53.2166363 16.2149091 53.2166363"></polygon>
                                <polygon id="Fill-55" fill="#0F3E5F" mask="url(#mask-8)" points="16.2149091 60.8298757 24.3340909 60.8298757 24.3340909 57.6736868 16.2149091 57.6736868"></polygon>
                                <path d="M13.0653545,54.9294698 C13.0653545,55.185377 13.2744909,55.3928169 13.5324909,55.3928169 C13.7904909,55.3928169 14.0015818,55.185377 14.0015818,54.9294698 C14.0015818,54.6735626 13.7904909,54.4661226 13.5324909,54.4661226 C13.2744909,54.4661226 13.0653545,54.6735626 13.0653545,54.9294698" id="Fill-56" fill="#FFFFFF" mask="url(#mask-8)"></path>
                                <path d="M18.0109409,54.329251 C18.0109409,54.5851582 18.2181227,54.7925982 18.4761227,54.7925982 C18.7360773,54.7925982 18.9471682,54.5851582 18.9471682,54.329251 C18.9471682,54.0733438 18.7360773,53.8659039 18.4761227,53.8659039 C18.2181227,53.8659039 18.0109409,54.0733438 18.0109409,54.329251" id="Fill-57" fill="#FFFFFF" mask="url(#mask-8)"></path>
                                <path d="M19.5493636,54.329251 C19.5493636,54.5851582 19.7565455,54.7925982 20.0165,54.7925982 C20.2745,54.7925982 20.4855909,54.5851582 20.4855909,54.329251 C20.4855909,54.0733438 20.2745,53.8659039 20.0165,53.8659039 C19.7565455,53.8659039 19.5493636,54.0733438 19.5493636,54.329251" id="Fill-58" fill="#FFFFFF" mask="url(#mask-8)"></path>
                                <path d="M21.1563909,54.329251 C21.1563909,54.5851582 21.3655273,54.7925982 21.6235273,54.7925982 C21.8834818,54.7925982 22.0926182,54.5851582 22.0926182,54.329251 C22.0926182,54.0733438 21.8834818,53.8659039 21.6235273,53.8659039 C21.3655273,53.8659039 21.1563909,54.0733438 21.1563909,54.329251" id="Fill-59" fill="#FFFFFF" mask="url(#mask-8)"></path>
                                <path d="M27.1576273,25.5243745 C27.1576273,25.5243745 27.1849909,33.7638111 20.4672182,50.4229826 C17.0272182,58.6081359 16.0675364,60.6805965 16.0675364,60.6805965 C16.0675364,60.6805965 20.8190364,60.8453853 25.4689,60.827937 C30.8595364,60.8085501 36.4514909,60.4595857 38.6972636,58.1350953 C40.5638545,56.2041591 40.3136727,54.2480199 40.3136727,53.939768 C40.3156273,50.5625684 32.2023091,28.4537365 32.2023091,28.4537365 C32.2023091,28.4537365 27.8456273,25.8171168 27.1576273,25.5243745" id="Fill-60" fill="#FFFFFF" mask="url(#mask-8)"></path>
                            </g>
                        </g>
                    </g>
                </g>
            </g>
        </g>
    </g>
</svg>