<?xml version="1.0" encoding="UTF-8"?>
<svg width="100px" height="80px" viewBox="0 0 100 80" version="1.1" xmlns="http://www.w3.org/2000/svg" xmlns:xlink="http://www.w3.org/1999/xlink">
    <title>Group 4</title>
    <defs>
        <linearGradient x1="94.9847824%" y1="16.2065765%" x2="10.1146161%" y2="100.743442%" id="linearGradient-1">
            <stop stop-color="#F9DA34" offset="0%"></stop>
            <stop stop-color="#F9DA34" stop-opacity="0" offset="100%"></stop>
        </linearGradient>
        <path d="M21.9269001,12.4593496 L33.6331515,0.393460776 C34.683937,-0.0184907801 35.6123191,0.0637658577 36.4182978,0.640230689 C37.2242765,1.21669552 37.5153476,2.25187498 37.2915109,3.74576906 L35.1633435,8.17842403 L21.9269001,12.4593496 Z" id="path-2"></path>
        <linearGradient x1="96.8261839%" y1="36.4547578%" x2="3.6102773%" y2="58.5615113%" id="linearGradient-3">
            <stop stop-color="#FFA932" offset="0%"></stop>
            <stop stop-color="#F7D733" stop-opacity="0.443274457" offset="100%"></stop>
        </linearGradient>
        <path d="M0.0743583038,17.8883301 L10.912148,15.1597155 L11.231324,15.2978445 L22.1680547,12.3258321 L48.6988538,2.76756968 C49.8608687,2.76208844 50.6579002,3.21138164 51.0899482,4.11544929 C51.5219962,5.01951693 51.3836331,5.89040662 50.674859,6.72811837 C42.7980851,9.53904675 38.8407806,11.0276839 38.8029454,11.1940299 C38.7978973,11.216224 38.6428887,11.3758725 38.9061825,11.4696688 C39.0810518,11.5319646 43.8339572,10.3457607 53.164899,7.91105731 C54.1418263,7.75214319 54.8517022,8.15318436 55.2945268,9.1141808 C55.7373513,10.0751772 55.5315429,10.954976 54.6771015,11.753577 C45.6852267,15.0508084 41.1803771,16.7963486 41.1625528,16.9901978 C41.1600242,17.0176978 41.112578,17.181203 41.304125,17.1995141 C41.5579524,17.2237789 46.3044311,16.1664581 55.5435612,14.0275517 C56.3680266,14.2525662 56.8873838,14.7471661 57.1016327,15.5113516 C57.3158817,16.275537 57.1226158,16.9650102 56.521835,17.5797712 C47.7601611,20.7166612 43.2575611,22.3340236 43.0140349,22.4318583 C42.6487456,22.5786104 42.8714009,22.9796858 43.1192077,23.0296073 C43.2844122,23.0628883 47.3428519,22.8182961 55.2945268,22.2958308 C56.1173377,22.55783 56.5264404,23.1155087 56.521835,23.9688666 C56.5172295,24.8222246 56.1081268,25.5352254 55.2945268,26.107869 L30.4422053,29.9262288 L16.6230481,35.2115747 L16.4625448,35.6409952 L5.83877545,39.9727624 L0.0743583038,17.8883301 Z" id="path-4"></path>
        <path d="M21.9269001,12.4593496 L33.6331515,0.393460776 C34.683937,-0.0184907801 35.6123191,0.0637658577 36.4182978,0.640230689 C37.2242765,1.21669552 37.5153476,2.25187498 37.2915109,3.74576906 L35.1633435,8.17842403 L21.9269001,12.4593496 Z" id="path-5"></path>
        <path d="M0.0743583038,17.8883301 L10.912148,15.1597155 L11.231324,15.2978445 L22.1680547,12.3258321 L48.6988538,2.76756968 C49.8608687,2.76208844 50.6579002,3.21138164 51.0899482,4.11544929 C51.5219962,5.01951693 51.3836331,5.89040662 50.674859,6.72811837 C42.7980851,9.53904675 38.8407806,11.0276839 38.8029454,11.1940299 C38.7978973,11.216224 38.6428887,11.3758725 38.9061825,11.4696688 C39.0810518,11.5319646 43.8339572,10.3457607 53.164899,7.91105731 C54.1418263,7.75214319 54.8517022,8.15318436 55.2945268,9.1141808 C55.7373513,10.0751772 55.5315429,10.954976 54.6771015,11.753577 C45.6852267,15.0508084 41.1803771,16.7963486 41.1625528,16.9901978 C41.1600242,17.0176978 41.112578,17.181203 41.304125,17.1995141 C41.5579524,17.2237789 46.3044311,16.1664581 55.5435612,14.0275517 C56.3680266,14.2525662 56.8873838,14.7471661 57.1016327,15.5113516 C57.3158817,16.275537 57.1226158,16.9650102 56.521835,17.5797712 C47.7601611,20.7166612 43.2575611,22.3340236 43.0140349,22.4318583 C42.6487456,22.5786104 42.8714009,22.9796858 43.1192077,23.0296073 C43.2844122,23.0628883 47.3428519,22.8182961 55.2945268,22.2958308 C56.1173377,22.55783 56.5264404,23.1155087 56.521835,23.9688666 C56.5172295,24.8222246 56.1081268,25.5352254 55.2945268,26.107869 L30.4422053,29.9262288 L16.6230481,35.2115747 L16.4625448,35.6409952 L5.83877545,39.9727624 L0.0743583038,17.8883301 Z" id="path-6"></path>
        <rect id="path-7" x="0" y="0" width="9.82015978" height="4.87179487"></rect>
        <path d="M0.70969385,2.86785412 C1.28871233,1.62255582 3.28909179,0.843883253 6.71083223,0.53183641 C11.8434429,0.0637661445 17.497392,0.667784289 19.034092,1.69984526 C20.570792,2.73190624 21.6893191,4.57359523 21.3430106,9.82217041 C20.9967022,15.0707456 16.0179022,16.668047 14.8279796,16.9438409 C14.1813438,17.0937147 11.6621134,17.438131 8.8947797,16.5098523 C6.56973773,15.7299366 4.04911557,13.9209007 2.51785005,11.6288472 C0.281968028,8.28209826 -0.320750704,5.36176724 0.70969385,2.86785412 Z" id="path-9"></path>
        <path d="M0.70969385,2.86785412 C1.28871233,1.62255582 3.28909179,0.843883253 6.71083223,0.53183641 C11.8434429,0.0637661445 17.497392,0.667784289 19.034092,1.69984526 C20.570792,2.73190624 21.6893191,4.57359523 21.3430106,9.82217041 C20.9967022,15.0707456 16.0179022,16.668047 14.8279796,16.9438409 C14.1813438,17.0937147 11.6621134,17.438131 8.8947797,16.5098523 C6.56973773,15.7299366 4.04911557,13.9209007 2.51785005,11.6288472 C0.281968028,8.28209826 -0.320750704,5.36176724 0.70969385,2.86785412 Z" id="path-11"></path>
    </defs>
    <g id="Page-1" stroke="none" stroke-width="1" fill="none" fill-rule="evenodd">
        <g id="New-Claim-1-1_ChooseEvent" transform="translate(-811.000000, -308.000000)">
            <g id="Actions" transform="translate(233.000000, 298.000000)">
                <g id="Action-4" transform="translate(545.000000, 0.000000)">
                    <g id="Group-4" transform="translate(33.000000, 10.000000)">
                        <rect id="Rectangle" x="0" y="0" width="100" height="80"></rect>
                        <g id="Illustration" transform="translate(4.458369, 3.675584)">
                            <g id="glove" transform="translate(59.087490, 36.178201) rotate(-57.000000) translate(-59.087490, -36.178201) translate(29.587490, 15.178201)">
                                <g id="Group-3" transform="translate(0.870441, 1.874499)" fill="#000000" fill-opacity="0.5">
                                    <path d="M21.9269001,12.4593496 L33.6331515,0.393460776 C34.683937,-0.0184907801 35.6123191,0.0637658577 36.4182978,0.640230689 C37.2242765,1.21669552 37.5153476,2.25187498 37.2915109,3.74576906 L35.1633435,8.17842403 L21.9269001,12.4593496 Z" id="Path-18" style="mix-blend-mode: overlay;"></path>
                                    <path d="M0.0743583038,17.8883301 L10.912148,15.1597155 L11.231324,15.2978445 L22.1680547,12.3258321 L48.6988538,2.76756968 C49.8608687,2.76208844 50.6579002,3.21138164 51.0899482,4.11544929 C51.5219962,5.01951693 51.3836331,5.89040662 50.674859,6.72811837 C42.7980851,9.53904675 38.8407806,11.0276839 38.8029454,11.1940299 C38.7978973,11.216224 38.6428887,11.3758725 38.9061825,11.4696688 C39.0810518,11.5319646 43.8339572,10.3457607 53.164899,7.91105731 C54.1418263,7.75214319 54.8517022,8.15318436 55.2945268,9.1141808 C55.7373513,10.0751772 55.5315429,10.954976 54.6771015,11.753577 C45.6852267,15.0508084 41.1803771,16.7963486 41.1625528,16.9901978 C41.1600242,17.0176978 41.112578,17.181203 41.304125,17.1995141 C41.5579524,17.2237789 46.3044311,16.1664581 55.5435612,14.0275517 C56.3680266,14.2525662 56.8873838,14.7471661 57.1016327,15.5113516 C57.3158817,16.275537 57.1226158,16.9650102 56.521835,17.5797712 C47.7601611,20.7166612 43.2575611,22.3340236 43.0140349,22.4318583 C42.6487456,22.5786104 42.8714009,22.9796858 43.1192077,23.0296073 C43.2844122,23.0628883 47.3428519,22.8182961 55.2945268,22.2958308 C56.1173377,22.55783 56.5264404,23.1155087 56.521835,23.9688666 C56.5172295,24.8222246 56.1081268,25.5352254 55.2945268,26.107869 L30.4422053,29.9262288 L16.6230481,35.2115747 L16.4625448,35.6409952 L5.83877545,39.9727624 L0.0743583038,17.8883301 Z" id="Mask" style="mix-blend-mode: overlay;"></path>
                                </g>
                                <g id="Group-3" transform="translate(0.248026, 0.165966)">
                                    <g id="Path-18">
                                        <use fill="#F9B234" xlink:href="#path-2"></use>
                                        <use fill="url(#linearGradient-1)" xlink:href="#path-2"></use>
                                    </g>
                                    <g id="Mask">
                                        <use fill="#FFCE8B" xlink:href="#path-4"></use>
                                        <use fill="url(#linearGradient-3)" xlink:href="#path-4"></use>
                                    </g>
                                </g>
                            </g>
                            <g id="glove" transform="translate(47.393796, 46.820453) rotate(-17.000000) translate(-47.393796, -46.820453) translate(17.893796, 25.820453)">
                                <g id="Group-3" transform="translate(0.870441, 1.874499)" fill="#000000" fill-opacity="0.5">
                                    <path d="M21.9269001,12.4593496 L33.6331515,0.393460776 C34.683937,-0.0184907801 35.6123191,0.0637658577 36.4182978,0.640230689 C37.2242765,1.21669552 37.5153476,2.25187498 37.2915109,3.74576906 L35.1633435,8.17842403 L21.9269001,12.4593496 Z" id="Path-18" style="mix-blend-mode: overlay;"></path>
                                    <path d="M0.0743583038,17.8883301 L10.912148,15.1597155 L11.231324,15.2978445 L22.1680547,12.3258321 L48.6988538,2.76756968 C49.8608687,2.76208844 50.6579002,3.21138164 51.0899482,4.11544929 C51.5219962,5.01951693 51.3836331,5.89040662 50.674859,6.72811837 C42.7980851,9.53904675 38.8407806,11.0276839 38.8029454,11.1940299 C38.7978973,11.216224 38.6428887,11.3758725 38.9061825,11.4696688 C39.0810518,11.5319646 43.8339572,10.3457607 53.164899,7.91105731 C54.1418263,7.75214319 54.8517022,8.15318436 55.2945268,9.1141808 C55.7373513,10.0751772 55.5315429,10.954976 54.6771015,11.753577 C45.6852267,15.0508084 41.1803771,16.7963486 41.1625528,16.9901978 C41.1600242,17.0176978 41.112578,17.181203 41.304125,17.1995141 C41.5579524,17.2237789 46.3044311,16.1664581 55.5435612,14.0275517 C56.3680266,14.2525662 56.8873838,14.7471661 57.1016327,15.5113516 C57.3158817,16.275537 57.1226158,16.9650102 56.521835,17.5797712 C47.7601611,20.7166612 43.2575611,22.3340236 43.0140349,22.4318583 C42.6487456,22.5786104 42.8714009,22.9796858 43.1192077,23.0296073 C43.2844122,23.0628883 47.3428519,22.8182961 55.2945268,22.2958308 C56.1173377,22.55783 56.5264404,23.1155087 56.521835,23.9688666 C56.5172295,24.8222246 56.1081268,25.5352254 55.2945268,26.107869 L30.4422053,29.9262288 L16.6230481,35.2115747 L16.4625448,35.6409952 L5.83877545,39.9727624 L0.0743583038,17.8883301 Z" id="Mask" style="mix-blend-mode: overlay;"></path>
                                </g>
                                <g id="Group-3" transform="translate(0.248026, 0.165966)">
                                    <g id="Path-18">
                                        <use fill="#F9B234" xlink:href="#path-5"></use>
                                        <use fill="url(#linearGradient-1)" xlink:href="#path-5"></use>
                                    </g>
                                    <g id="Mask">
                                        <use fill="#FFCE8B" xlink:href="#path-6"></use>
                                        <use fill="url(#linearGradient-3)" xlink:href="#path-6"></use>
                                    </g>
                                </g>
                            </g>
                            <g id="shades" transform="translate(24.041631, 30.824416) rotate(-45.000000) translate(-24.041631, -30.824416) translate(-0.458369, 21.324416)">
                                <g id="shadow" opacity="0.5" style="mix-blend-mode: overlay;" transform="translate(0.909910, 0.909091)">
                                    <rect id="Rectangle-14" fill="#000000" x="8.92741798" y="0.221445221" width="28.5677375" height="1"></rect>
                                    <path d="M23.6576577,1.77156177 C25.6298484,1.77156177 27.2286249,3.37033824 27.2286249,5.34252897 L27.2285778,10.6285618 L28.5677375,10.6293706 L28.5677375,15.5011655 L18.7475778,15.5011655 L18.7475778,10.6293706 L20.0865778,10.6285618 L20.0866905,5.34252897 C20.0866905,3.37033824 21.6854669,1.77156177 23.6576577,1.77156177 Z M23.6576577,2.47948901 C22.0799051,2.47948901 20.8008839,3.75851019 20.8008839,5.33626277 L20.8008839,5.33626277 L20.8008839,10.9495512 C20.8008839,12.5273037 22.0799051,13.8063249 23.6576577,13.8063249 C25.2354102,13.8063249 26.5144314,12.5273037 26.5144314,10.9495512 L26.5144314,10.9495512 L26.5144314,5.33626277 C26.5144314,3.75851019 25.2354102,2.47948901 23.6576577,2.47948901 Z" id="Combined-Shape" transform="translate(23.657658, 8.636364) scale(1, -1) translate(-23.657658, -8.636364) "></path>
                                    <path d="M26.599206,2.86785412 C27.1782245,1.62255582 29.1786039,0.843883253 32.6003444,0.53183641 C37.7329551,0.0637661445 43.3869042,0.667784289 44.9236042,1.69984526 C46.4603041,2.73190624 47.5788313,4.57359523 47.2325228,9.82217041 C46.8862143,15.0707456 41.9074143,16.668047 40.7174918,16.9438409 C40.0708559,17.0937147 37.5516256,17.438131 34.7842919,16.5098523 C32.4592499,15.7299366 29.9386277,13.9209007 28.4073622,11.6288472 C26.1714802,8.28209826 25.5687614,5.36176724 26.599206,2.86785412 Z" id="Mask" fill="#000000"></path>
                                    <path d="M0.70969385,2.86785412 C1.28871233,1.62255582 3.28909179,0.843883253 6.71083223,0.53183641 C11.8434429,0.0637661445 17.497392,0.667784289 19.034092,1.69984526 C20.570792,2.73190624 21.6893191,4.57359523 21.3430106,9.82217041 C20.9967022,15.0707456 16.0179022,16.668047 14.8279796,16.9438409 C14.1813438,17.0937147 11.6621134,17.438131 8.8947797,16.5098523 C6.56973773,15.7299366 4.04911557,13.9209007 2.51785005,11.6288472 C0.281968028,8.28209826 -0.320750704,5.36176724 0.70969385,2.86785412 Z" id="Mask" fill="#000000" transform="translate(10.814169, 8.751486) scale(-1, 1) translate(-10.814169, -8.751486) "></path>
                                </g>
                                <g>
                                    <rect id="Rectangle-14" fill="#0E1125" x="8.92741798" y="0.221445221" width="28.5677375" height="1"></rect>
                                    <g id="Combined-Shape" transform="translate(23.747578, 4.143357) scale(1, -1) translate(-23.747578, -4.143357) translate(18.747578, 1.643357)">
                                        <mask id="mask-8" fill="white">
                                            <use xlink:href="#path-7"></use>
                                        </mask>
                                        <g id="Mask"></g>
                                        <path d="M4.91007989,-8.85780886 C6.88227061,-8.85780886 8.48104708,-7.25903239 8.48104708,-5.28684166 L8.48104708,0.415046792 C8.48104708,2.38723752 6.88227061,3.98601399 4.91007989,3.98601399 C2.93788917,3.98601399 1.3391127,2.38723752 1.3391127,0.415046792 L1.3391127,-5.28684166 C1.3391127,-7.25903239 2.93788917,-8.85780886 4.91007989,-8.85780886 Z M4.91007989,-8.14988161 C3.33232731,-8.14988161 2.05330614,-6.87086044 2.05330614,-5.29310786 L2.05330614,-5.29310786 L2.05330614,0.320180524 C2.05330614,1.8979331 3.33232731,3.17695428 4.91007989,3.17695428 C6.48783247,3.17695428 7.76685365,1.8979331 7.76685365,0.320180524 L7.76685365,0.320180524 L7.76685365,-5.29310786 C7.76685365,-6.87086044 6.48783247,-8.14988161 4.91007989,-8.14988161 Z" fill="#0E1125" mask="url(#mask-8)"></path>
                                    </g>
                                    <g id="glass2" transform="translate(25.889512, 0.000000)">
                                        <mask id="mask-10" fill="white">
                                            <use xlink:href="#path-9"></use>
                                        </mask>
                                        <use id="Mask" fill="#0E1125" xlink:href="#path-9"></use>
                                        <polygon id="Rectangle-23" fill-opacity="0.2" fill="#FFFFFF" mask="url(#mask-10)" transform="translate(9.275106, 7.060795) rotate(43.000000) translate(-9.275106, -7.060795) " points="7.52935916 -5.20472224 11.1167116 -5.21872466 11.0208533 19.326312 7.43350083 19.3403145"></polygon>
                                        <polygon id="Rectangle-23-Copy" fill-opacity="0.2" fill="#FFFFFF" mask="url(#mask-10)" transform="translate(12.489300, 9.802189) rotate(43.000000) translate(-12.489300, -9.802189) " points="11.5731941 -1.53517777 13.4939901 -1.54267516 13.4054068 21.1395561 11.4846108 21.1470535"></polygon>
                                    </g>
                                    <g id="glass1">
                                        <mask id="mask-12" fill="white">
                                            <use xlink:href="#path-11"></use>
                                        </mask>
                                        <use id="Mask" fill="#0E1125" transform="translate(10.814169, 8.751486) scale(-1, 1) translate(-10.814169, -8.751486) " xlink:href="#path-11"></use>
                                        <polygon id="Rectangle-23" fill-opacity="0.2" fill="#FFFFFF" mask="url(#mask-12)" transform="translate(8.828735, 5.732124) rotate(43.000000) translate(-8.828735, -5.732124) " points="7.08298826 -6.53339357 10.6703407 -6.54739599 10.5744824 17.9976407 6.98712993 18.0116431"></polygon>
                                        <polygon id="Rectangle-23-Copy" fill-opacity="0.2" fill="#FFFFFF" mask="url(#mask-12)" transform="translate(12.042930, 8.473518) rotate(43.000000) translate(-12.042930, -8.473518) " points="11.1268232 -2.86384909 13.0476192 -2.87134649 12.9590359 19.8108848 11.0382399 19.8183822"></polygon>
                                    </g>
                                </g>
                            </g>
                        </g>
                    </g>
                </g>
            </g>
        </g>
    </g>
</svg>