<svg width="24" height="24" viewBox="0 0 24 24" fill="none" xmlns="http://www.w3.org/2000/svg">
<path fill-rule="evenodd" clip-rule="evenodd" d="M19.7099 7.52037L21.0337 6.1966L18.1159 3.27884L16.7921 4.60261L19.7099 7.52037ZM18.0393 9.19092L15.1216 6.27315L4.20671 17.188L3.53516 20.7773L7.12448 20.1058L18.0393 9.19092ZM22.7748 4.59661C23.6584 5.48026 23.6584 6.91294 22.7748 7.79659L8.53644 22.0349C8.368 22.2034 8.15256 22.3169 7.91841 22.3607L2.27406 23.4168C1.45786 23.5695 0.743007 22.8546 0.895715 22.0384L1.95175 16.3941C1.99556 16.1599 2.10914 15.9445 2.27759 15.7761L16.5159 1.53774C17.3996 0.654087 18.8322 0.654087 19.7159 1.53774L22.7748 4.59661ZM22.2618 23.4375H12.7382C11.1706 23.4375 11.1706 21.0625 12.7382 21.0625H22.2618C23.8294 21.0625 23.8294 23.4375 22.2618 23.4375Z" fill="#9599B6"/>
</svg>
