<?xml version="1.0" encoding="UTF-8"?>
<svg width="100px" height="80px" viewBox="0 0 100 80" version="1.1" xmlns="http://www.w3.org/2000/svg" xmlns:xlink="http://www.w3.org/1999/xlink">
    <title>Hospitalisation</title>
    <defs>
        <polygon id="path-1" points="-0.000774363051 0.421063263 49.8562718 0.421063263 49.8562718 40 -0.000774363051 40"></polygon>
    </defs>
    <g id="Page-1" stroke="none" stroke-width="1" fill="none" fill-rule="evenodd">
        <g id="New-Claim-1-1_ChooseEvent" transform="translate(-266.000000, -308.000000)">
            <g id="Actions" transform="translate(233.000000, 298.000000)">
                <g id="Action-1" transform="translate(-0.000000, 0.000000)">
                    <g id="Hospitalisation" transform="translate(33.000000, 10.000000)">
                        <rect id="Rectangle" x="0" y="0" width="100" height="80"></rect>
                        <g id="Illustration" transform="translate(8.000000, 7.000000)">
                            <g id="Group-3" transform="translate(0.000000, 26.000000)">
                                <mask id="mask-2" fill="white">
                                    <use xlink:href="#path-1"></use>
                                </mask>
                                <g id="Clip-2"></g>
                                <path d="M15.9837433,6.87659259 C15.9768966,6.00088889 16.6872414,5.28703704 17.5751724,5.28022222 L24.4251724,5.22911111 L31.9889655,5.17288889 C32.8768966,5.16607407 33.5993103,5.87140741 33.6062069,6.7437037 L33.62,8.55303704 L33.62,8.89888889 L24.4544828,8.96874074 L16.0010345,9.03177778 L15.9975862,8.68592593 L15.9837433,6.87659259 Z M49.67,12.2108889 C49.6544828,10.3146667 47.957931,8.79155556 45.8751724,8.80688889 L38.432069,8.86481481 L38.4286207,8.51725926 L38.4148276,6.70792593 C38.3872414,3.21362963 35.4924138,0.394 31.9527586,0.421063263 L24.3889655,0.477481481 L17.5372414,0.528592593 C13.9993103,0.555851852 11.1441379,3.41637037 11.1717241,6.91237037 L11.1855172,8.7217037 L11.1889655,9.06755556 L3.73896552,9.12207407 C1.65793103,9.13911111 -0.0144827586,10.6860741 -0.000774363051,12.584 L0.183793103,36.596 C0.199310345,38.4905185 1.89586207,40.0153333 3.97689655,40.0001146 L24.6924138,39.844963 L46.1131034,39.6848148 C48.1958621,39.6694815 49.8682759,38.1174074 49.8562718,36.2245926 L49.67,12.2108889 Z" id="Fill-1" fill="#808080" mask="url(#mask-2)"></path>
                            </g>
                            <path d="M14.7201707,30.2095474 C14.7134061,29.3597851 15.4101564,28.66708 16.2810944,28.660467 L23,28.61087 L22.964486,24 L16.2438893,24.049597 C12.7736667,24.0760488 9.97313617,26.8518289 10.0001944,30.2442653 L10.0137236,32 L14.7336998,31.9652821 L14.7201707,30.2095474 Z" id="Fill-4" fill="#634F3D"></path>
                            <path d="M45.0872024,32.2943872 L37.7717968,32.3515329 L37.7684077,32 L33.0422862,32.0363655 L33.0439807,32.3878984 L24.0340174,32.4571659 L15.7256009,32.5212384 L15.7222118,32.1697055 L10.9927012,32.206071 L10.9960903,32.5593356 L3.67560096,32.6147496 C1.62857524,32.6303348 -0.0151457446,34.2044403 0,36.1318103 L0.179728393,60.5399687 C0.194979412,62.4638753 1.86242421,64.0154688 3.90775537,64 L24.2678663,63.8422999 L45.3210514,63.6795211 C47.3680771,63.6639359 49.0117981,62.0863671 49,60.1624605 L48.816924,35.7543021 C48.8016729,33.8252004 47.1342282,32.278802 45.0872024,32.2943872" id="Fill-6" fill="#E03F3F"></path>
                            <path d="M15.5520232,33.3423815 L15.5486715,33 L10.8713648,33.0354188 L10.8747165,33.3778003 L3.63502995,33.4334583 C1.61227494,33.4486378 -0.0149786734,34.9817647 0,36.8589597 L0.177744463,60.6317034 C0.192827143,62.5055252 1.84186685,64.0167263 3.86462186,64 L24,63.8463788 L23.7687322,33.279977 L15.5520232,33.3423815 Z" id="Fill-8" fill="#FF5C5C"></path>
                            <path d="M45.0818711,32.2866 L37.7564978,32.3422341 L37.7531041,32 L33.020543,32.0354035 L33.0222399,32.3776376 L24,32.4450729 L24.2341676,63 L45.3160387,62.8415271 C47.3658535,62.8263541 49.0118142,61.2905156 49,59.4175005 L48.8166745,35.6549924 C48.8014027,33.7769197 47.131686,32.271427 45.0818711,32.2866" id="Fill-10" fill="#E03F3F"></path>
                            <path d="M30.5794645,28.6747083 C31.4649963,28.668004 32.1854581,29.3618905 32.1906166,30.2200303 L32.2043724,32 L37,31.9648029 L36.9879636,30.1848332 C36.960452,26.7472458 34.0734463,23.9733759 30.5433554,24.0001928 L23,24.0555026 L23.0361091,28.7300181 L30.5794645,28.6747083 Z" id="Fill-12" fill="#403327"></path>
                            <path d="M33.9997186,48.4193752 C34.0416973,54.2226784 29.3820588,58.9560239 23.580599,58.9996956 C17.7841766,59.0433674 13.045618,54.3822483 13.000281,48.578945 C12.9583023,42.7790012 17.6246574,38.043976 23.4210798,38.0003043 C29.2225396,37.9566325 33.9560607,42.6194313 33.9997186,48.4193752" id="Fill-14" fill="#FFFFFF"></path>
                            <polygon id="Fill-16" fill="#403327" points="26 55.9809915 23.1387054 56 23 40.0190085 25.8612946 40"></polygon>
                            <polygon id="Fill-18" fill="#403327" points="31.9809894 47 32 49.8614776 16.0190106 50 16 47.1385224"></polygon>
                            <path d="M50.4825247,55.3255641 C49.6344369,56.2867277 48.1648756,56.9470955 47.0472537,57.0041429 C46.7794365,57.0179726 46.5150528,57.0248875 46.2592531,57.0248875 C43.4677735,57.0248875 42.0686001,56.0291497 41.3183685,54.5562874 C40.6041892,53.1543024 40.9698628,51.1472683 42.2265436,49.5637686 C43.3218474,48.1825281 44.8205938,47.4236237 46.444665,47.4236237 C46.8961774,47.4236237 47.3511233,47.4806712 47.8009189,47.5999523 C49.6172691,48.0684331 51.2464906,49.3822539 52.745237,50.7894251 C52.1495153,52.7757146 51.3872663,54.3004381 50.4825247,55.3255641 M76.1706607,45.6015618 C72.3971846,45.6015618 69.3396045,48.680397 69.3396045,52.4801049 C69.3396045,53.1819618 69.4460447,53.8596167 69.6400405,54.4975113 L69.5679359,54.5476439 C68.0829237,55.4379303 67.2502868,56.056809 65.9455362,56.0844684 C62.750614,56.0343358 59.4561187,53.2804983 56.7367438,50.5525916 C56.7367438,50.5525916 56.2560462,50.0720098 56.0431658,49.861107 C57.3839687,44.120056 57.3101473,37.3659801 57.212291,34.6916634 C59.8063412,33.6060326 62.5909537,29.8374415 64.5291951,26.7499627 L64.9360712,26.0999672 L64.2922798,25.7213794 C67.4734678,20.504128 70.2100105,14.2340914 70.9018717,10.9910286 C71.3997371,8.65208191 71.0477978,6.65023397 69.8821061,5.1981163 C68.7421661,3.77884415 66.9292495,3.02858335 64.6407856,3.02858335 L62.2544654,3.02858335 C62.1857943,2.72433012 62.0518857,2.50824119 61.7960859,2.50824119 C60.8501417,2.50824119 61.1196757,3.00265268 60.77117,3.00265268 L60.1788819,3.00265268 C59.8441103,2.40624721 59.1865847,2 58.429486,2 C57.3307486,2 56.4397413,2.85398349 56.4397413,3.90849751 C56.4397413,4.96128282 57.3307486,5.81699502 58.429486,5.81699502 C59.1865847,5.81699502 59.8441103,5.40901911 60.1788819,4.81434234 L60.77117,4.81434234 C61.1196757,4.81434234 60.8501417,5.30702513 61.7960859,5.30702513 C62.1239903,5.30702513 62.2527486,4.95955411 62.2991016,4.51527525 L64.6407856,4.51527525 C66.4691532,4.51527525 67.8837775,5.07537778 68.7335822,6.13334923 C69.6091385,7.22416619 69.8580712,8.79556496 69.4580621,10.6798605 C68.7181312,14.1511132 65.9712878,20.1065244 63.004697,24.9607463 L62.3712062,24.5873446 L61.9917985,25.1941224 C58.8209112,30.2385026 56.6646391,32.0294477 55.7787821,32.0294477 L55.6757755,32.0294477 C54.7882017,32.0294477 52.6233458,30.2281303 49.4387243,25.1509046 L49.0575997,24.5441269 L48.4258258,24.9175285 C45.466102,20.0684927 42.7347096,14.140741 41.999929,10.6798605 C41.5964864,8.79556496 41.8488527,7.22416619 42.7226922,6.13334923 C43.5724969,5.07537778 44.988838,4.51527525 46.8154888,4.51527525 L47.9228101,4.51527525 C47.9691631,4.95955411 48.0979213,5.30702513 48.4258258,5.30702513 C49.3734867,5.30702513 49.1022359,4.81434234 49.4507417,4.81434234 L50.0430298,4.81434234 C50.3760846,5.40901911 51.035327,5.81699502 51.7941425,5.81699502 C52.891163,5.81699502 53.7821704,4.96128282 53.7821704,3.90849751 C53.7821704,2.85398349 52.891163,2 51.7941425,2 C51.035327,2 50.3760846,2.40624721 50.0430298,3.00265268 L49.4507417,3.00265268 C49.1022359,3.00265268 49.3734867,2.50824119 48.4258258,2.50824119 C48.1683092,2.50824119 48.0361174,2.72433012 47.9657295,3.02858335 L46.8154888,3.02858335 C44.5253082,3.02858335 42.7141083,3.77884415 41.5758851,5.1981163 C40.4101934,6.65023397 40.0565373,8.65208191 40.5544027,10.9910286 C41.2428303,14.2254478 43.9673556,20.4678251 47.1382429,25.6764329 L46.4944515,26.0550207 L46.9013277,26.7050162 C48.8464362,29.8115108 51.6464996,33.6112187 54.2508505,34.6968496 C54.331539,36.9631904 54.4002101,42.4950672 53.5126363,47.5048732 C52.1580992,46.3691097 50.480808,45.2212453 48.5356995,44.7181902 C47.8369712,44.5366755 47.129659,44.4450538 46.429214,44.4450538 C43.9004013,44.4450538 41.5896193,45.6015618 39.920912,47.7054037 C37.9191498,50.2275938 37.4350187,53.4481834 38.6899828,55.913326 C39.4316305,57.3706298 40.9183595,60 46.2352182,60 L46.2386517,60 C46.5459548,60 46.8669921,59.9930852 47.1983301,59.9740693 C49.1039527,59.8755328 51.320312,58.8538643 52.6903001,57.30321 C53.6242269,56.2452386 54.4259618,54.8294239 55.0817706,53.0903401 C57.8869844,55.8943102 61.0801898,58.8867098 65.2983112,58.8867098 C65.6502505,58.8867098 66.0073402,58.8590504 66.3644298,58.8158326 C67.895795,58.6325892 69.4752299,58.0638431 71.0786997,57.1026795 L71.107885,57.0853924 C72.3559819,58.4770052 74.1585979,59.358648 76.1706607,59.358648 C79.94242,59.358648 83,56.2780841 83,52.4801049 C83,48.680397 79.94242,45.6015618 76.1706607,45.6015618" id="Fill-20" fill="#808080"></path>
                            <path d="M40.6880476,8.55907032 C40.280722,6.69748274 40.5348653,5.14331328 41.4226263,4.06734982 C42.2825359,3.02042029 43.7186197,2.46877553 45.5724734,2.46877553 L51,2.46877553 L51,1 L45.5724734,1 C43.2503693,1 41.412182,1.74121928 40.2580928,3.14338754 C39.0761523,4.57629762 38.7175665,6.55572882 39.2223717,8.86648845 C39.9499876,12.19002 42.9091906,18.7380263 46.2913857,24 L47.5969165,23.2502413 C44.4497169,18.3554615 41.466144,12.1268285 40.6880476,8.55907032" id="Fill-22" fill="#F7F7EE"></path>
                            <path d="M67.7431396,3.13925739 C66.5871771,1.739791 64.7487789,1 62.4281493,1 L57,1 L57,2.4659453 L62.4281493,2.4659453 C64.2822157,2.4659453 65.7167234,3.01823168 66.5784725,4.06143926 C67.4663353,5.13703402 67.7187669,6.68650411 67.3131355,8.54450456 C66.531468,12.1173201 63.5318846,18.3595198 60.3756195,23.2499815 L61.6813,24 C65.0743285,18.7413474 68.0477984,12.1786852 68.7772386,8.85303491 C69.2821017,6.54672793 68.9252157,4.57111095 67.7431396,3.13925739" id="Fill-24" fill="#F7F7EE"></path>
                            <path d="M47.5837084,2.94879928 L48.1878403,2.94879928 C48.527555,3.57408246 49.1999801,4 49.9722182,4 C51.0929266,4 52,3.10285455 52,1.99909379 C52,0.893520616 51.0929266,0 49.9722182,0 C49.1999801,0 48.527555,0.42410512 48.1878403,1.04938831 L47.5837084,1.04938831 C47.2282337,1.04938831 47.5031575,0.532850023 46.5365465,0.532850023 C46.0584943,0.532850023 45.9919522,1.27775261 46.0007078,1.99909379 C45.9919522,2.72043498 46.0584943,3.46714998 46.5365465,3.46714998 C47.5031575,3.46714998 47.2282337,2.94879928 47.5837084,2.94879928" id="Fill-26" fill="#403327"></path>
                            <path d="M58.4178505,2.94879928 L57.8137449,2.94879928 C57.4722939,3.57408246 56.8016491,4 56.0294446,4 C54.9087849,4 54,3.10285455 54,1.99909379 C54,0.893520616 54.9087849,0 56.0294446,0 C56.8016491,0 57.4722939,0.42410512 57.8137449,1.04938831 L58.4178505,1.04938831 C58.7733097,1.04938831 58.4983979,0.532850023 59.4632158,0.532850023 C59.9412472,0.532850023 60.0095374,1.27775261 59.9990312,1.99909379 C60.0095374,2.72043498 59.9412472,3.46714998 59.4632158,3.46714998 C58.4983979,3.46714998 58.7733097,2.94879928 58.4178505,2.94879928" id="Fill-28" fill="#403327"></path>
                            <path d="M48.4059315,52.3856655 C47.5630475,53.334471 46.1025036,53.9863481 44.9917395,54.0426621 C44.7255656,54.056314 44.4628042,54.0631399 44.208574,54.0631399 C41.434223,54.0631399 40.043635,53.0802048 39.2980069,51.6262799 C38.5882098,50.2423208 38.9516396,48.2610922 40.2006094,46.6979522 C41.2891924,45.334471 42.7787424,44.5853242 44.3928482,44.5853242 C44.8415901,44.5853242 45.2937444,44.6416382 45.7407801,44.7593857 C47.5459851,45.221843 49.1652096,46.5187713 50.6547596,47.9078498 C50.0626934,49.8686007 49.3051215,51.3737201 48.4059315,52.3856655 L48.4059315,52.3856655 Z M69.4985062,50.1740614 L67.3742338,51.6177474 C65.8983337,52.496587 65.0708059,53.1075085 63.7740613,53.1348123 C60.5987433,53.0853242 57.3244631,50.3668942 54.6217744,47.6740614 C54.6217744,47.6740614 54.1440264,47.1996587 53.9324523,46.9914676 C55.265028,41.3242321 55.1916595,34.6569966 55.0944037,32.0170648 C57.6725367,30.9453925 60.4400627,27.225256 62.3664109,24.1774744 L62.7707905,23.5358362 L60.2216636,22.0426621 L59.8445839,22.6416382 C56.6931533,27.6211604 54.5501122,29.3890785 53.6696908,29.3890785 L53.5673163,29.3890785 C52.6851887,29.3890785 50.5336164,27.6109215 47.3685358,22.5989761 L46.9897499,22 L44.4423292,23.4914676 L44.8467088,24.1331058 C46.779882,27.1996587 49.5627642,30.9505119 52.1511347,32.0221843 C52.2313281,34.2593857 52.2995778,39.7201365 51.4174502,44.665529 C50.0712246,43.5443686 48.4042253,42.4112628 46.471052,41.9146758 C45.7766112,41.7354949 45.0736391,41.6450512 44.377492,41.6450512 C41.8641962,41.6450512 39.5675933,42.7866894 37.9091252,44.8634812 C35.9196459,47.3532423 35.4384854,50.5324232 36.685749,52.9658703 C37.4228459,54.4044369 38.9004523,57 44.1846866,57 L44.188099,57 C44.4935165,57 44.8125839,56.9931741 45.1418888,56.9744027 C47.0358184,56.8771331 49.238578,55.8686007 50.6001599,54.337884 C51.528356,53.2935154 52.3251714,51.8959044 52.9769562,50.1791809 C55.7649571,52.947099 58.9385689,55.9010239 63.1308077,55.9010239 C63.4805875,55.9010239 63.8354861,55.8737201 64.1903846,55.831058 C65.7123532,55.6501706 67.2820967,55.0887372 68.8757276,54.1399317 L71,52.6962457 L69.4985062,50.1740614 Z" id="Fill-30" fill="#FFA41C"></path>
                            <path d="M81,50.5 C81,54.0889671 78.090235,57 74.4991831,57 C70.9081312,57 68,54.0889671 68,50.5 C68,46.9110329 70.9081312,44 74.4991831,44 C78.090235,44 81,46.9110329 81,50.5" id="Fill-32" fill="#403327"></path>
                            <path d="M79,49.5 C79,52.5381277 76.5381277,55 73.5,55 C70.4618723,55 68,52.5381277 68,49.5 C68,46.4618723 70.4618723,44 73.5,44 C76.5381277,44 79,46.4618723 79,49.5" id="Fill-34" fill="#F7F7EE"></path>
                            <path d="M77,49.9991282 C77,51.6556234 75.6556234,53 73.9991282,53 C72.342633,53 71,51.6556234 71,49.9991282 C71,48.342633 72.342633,47 73.9991282,47 C75.6556234,47 77,48.342633 77,49.9991282" id="Fill-36" fill="#403327"></path>
                        </g>
                    </g>
                </g>
            </g>
        </g>
    </g>
</svg>