<?xml version="1.0" encoding="UTF-8"?>
<svg width="16px" height="15px" viewBox="0 0 16 15" version="1.1" xmlns="http://www.w3.org/2000/svg" xmlns:xlink="http://www.w3.org/1999/xlink">
    <title>ic2_Birthday</title>
    <defs>
        <filter id="filter-1">
            <feColorMatrix in="SourceGraphic" type="matrix" values="0 0 0 0 0.000000 0 0 0 0 0.674510 0 0 0 0 0.356863 0 0 0 1.000000 0"></feColorMatrix>
        </filter>
    </defs>
    <g id="Page-1" stroke="none" stroke-width="1" fill="none" fill-rule="evenodd">
        <g id="New-Claim-1-1_ChooseEvent" transform="translate(-323.000000, -635.000000)">
            <g id="Detail" transform="translate(233.000000, 487.000000)">
                <g id="Detail-2" transform="translate(90.000000, 144.000000)">
                    <g id="Group" transform="translate(0.000000, 3.000000)">
                        <rect id="Rectangle" x="0" y="0" width="16" height="16"></rect>
                        <g filter="url(#filter-1)" id="Birthday" stroke-linecap="round" stroke-linejoin="round">
                            <g transform="translate(1.000000, 1.000000)">
                                <path d="M0,9 L0,12.6666667 C0,13.4026667 0.522083333,14 1.16666667,14 L12.8333333,14 C13.4779167,14 14,13.4026667 14,12.6666667 L14,9" id="Stroke-291" stroke="#000000"></path>
                                <path d="M6,2.75 L6,6 L8,6 L8,2.75 C8,3 6,3 6,2.75 Z" id="Stroke-292" stroke="#000000"></path>
                                <path d="M0,9.32695538 C0,10.2335507 0.739307692,10.9000508 1.61538462,10.9904331 C2.62284615,11.0941232 3.23076923,10.3427858 3.23076923,9.32695538 C3.23076923,10.2840095 4.186,10.9904331 5.11538462,10.9904331 C6.04476923,10.9904331 7,10.2840095 7,9.32695538 C7,10.2840095 7.95523077,10.9904331 8.88461538,10.9904331 C9.814,10.9904331 10.7692308,10.2840095 10.7692308,9.32695538 C10.7692308,10.3427858 11.3771538,11.0941232 12.3846154,10.9904331 C13.2601538,10.9000508 14,10.2335507 14,9.32695538 L14,7.94072397 C14,6.79236987 12.9613077,6 11.8461538,6 L2.15384615,6 C1.03869231,6 0,6.79236987 0,7.94072397 L0,9.32695538 Z" id="Stroke-293" stroke="#000000"></path>
                                <path d="M8,2.1 C8,1.686 7,0 7,0 C7,0 6,1.686 6,2.1 C6,2.514 6.54,3 7,3 C7.46,3 8,2.514 8,2.1 Z" id="Stroke-294" stroke="#000000"></path>
                            </g>
                        </g>
                    </g>
                </g>
            </g>
        </g>
    </g>
</svg>