<?xml version="1.0" encoding="UTF-8"?>
<svg width="27px" height="26px" viewBox="0 0 27 26" version="1.1" xmlns="http://www.w3.org/2000/svg" xmlns:xlink="http://www.w3.org/1999/xlink">
    <title>ic_calendar</title>
    <g id="Page-1" stroke="none" stroke-width="1" fill="none" fill-rule="evenodd" stroke-linecap="round" stroke-linejoin="round">
        <g id="New-Claim-3-1_Details" transform="translate(-815.000000, -1041.000000)" stroke="#9599B6">
            <g id="Medical" transform="translate(233.000000, 860.000000)">
                <g id="Group" transform="translate(25.000000, 104.000000)">
                    <g id="Discharge-Date" transform="translate(322.000000, 0.000000)">
                        <g id="calendar" transform="translate(236.000000, 78.000000)">
                            <path d="M4.34782609,2.08695652 L3.26086957,2.08695652 C1.45978261,2.08695652 0,3.48834783 0,5.2173913 L0,20.8695652 C0,22.5986087 1.45978261,24 3.26086957,24 L21.7391304,24 C23.5402174,24 25,22.5986087 25,20.8695652 L25,5.2173913 C25,3.48834783 23.5402174,2.08695652 21.7391304,2.08695652 L20.6521739,2.08695652" id="Stroke-2961"></path>
                            <line x1="0" y1="7.30434783" x2="25" y2="7.30434783" id="Stroke-2963"></line>
                            <line x1="6.52173913" y1="4.17391304" x2="6.52173913" y2="0" id="Stroke-2964"></line>
                            <line x1="18.4782609" y1="4.17391304" x2="18.4782609" y2="0" id="Stroke-2965"></line>
                            <line x1="8.69565217" y1="2.08695652" x2="16.3043478" y2="2.08695652" id="Stroke-2962"></line>
                            <line x1="6.52173913" y1="10.9565217" x2="18.4782609" y2="10.9565217" id="Stroke-2962-Copy"></line>
                            <line x1="6.52173913" y1="15.1304348" x2="18.4782609" y2="15.1304348" id="Stroke-2962-Copy-2"></line>
                            <line x1="6.25" y1="19.5" x2="12.5" y2="19.5" id="Stroke-2962-Copy-3"></line>
                        </g>
                    </g>
                </g>
            </g>
        </g>
    </g>
</svg>