<?xml version="1.0" encoding="UTF-8"?>
<svg width="18px" height="18px" viewBox="0 0 18 18" version="1.1" xmlns="http://www.w3.org/2000/svg" xmlns:xlink="http://www.w3.org/1999/xlink">
    <title>ic_CheckboxUncheck</title>
    <defs>
        <path d="M10.5276115,3 L13.4723885,3 C15.9500918,3 16.9527593,3.27847683 17.9305371,3.80139811 C18.9083149,4.32431939 19.6756806,5.09168511 20.1986019,6.06946289 C20.7215232,7.04724067 21,8.0499082 21,10.5276115 L21,13.4723885 C21,15.9500918 20.7215232,16.9527593 20.1986019,17.9305371 C19.6756806,18.9083149 18.9083149,19.6756806 17.9305371,20.1986019 C16.9527593,20.7215232 15.9500918,21 13.4723885,21 L10.5276115,21 C8.0499082,21 7.04724067,20.7215232 6.06946289,20.1986019 C5.09168511,19.6756806 4.32431939,18.9083149 3.80139811,17.9305371 C3.27847683,16.9527593 3,15.9500918 3,13.4723885 L3,10.5276115 C3,8.0499082 3.27847683,7.04724067 3.80139811,6.06946289 C4.32431939,5.09168511 5.09168511,4.32431939 6.06946289,3.80139811 C7.04724067,3.27847683 8.0499082,3 10.5276115,3 Z" id="path-1"></path>
    </defs>
    <g id="Page-1" stroke="none" stroke-width="1" fill="none" fill-rule="evenodd">
        <g id="New-Claim-2-2_EventDetailSelected" transform="translate(-328.000000, -721.000000)">
            <g id="Medical" transform="translate(233.000000, 450.000000)">
                <g id="Hospitalization" transform="translate(36.000000, 86.000000)">
                    <g id="Med-Opt-3" transform="translate(32.000000, 166.000000)">
                        <g id="Component/Checkbox/Checked" transform="translate(24.000000, 16.000000)">
                            <rect id="bounds" fill="#50A1FF" opacity="0" x="0" y="0" width="24" height="24"></rect>
                            <mask id="mask-2" fill="white">
                                <use xlink:href="#path-1"></use>
                            </mask>
                            <path stroke="#00C468" d="M10.5276115,3.5 L13.4723885,3.5 C15.8145116,3.5 16.7686763,3.74704167 17.6947377,4.24230471 C18.5840924,4.71793682 19.2820632,5.4159076 19.7576953,6.30526232 C20.2529583,7.23132369 20.5,8.18548836 20.5,10.5276115 L20.5,10.5276115 L20.5,13.4723885 C20.5,15.8145116 20.2529583,16.7686763 19.7576953,17.6947377 C19.2820632,18.5840924 18.5840924,19.2820632 17.6947377,19.7576953 C16.7686763,20.2529583 15.8145116,20.5 13.4723885,20.5 L13.4723885,20.5 L10.5276115,20.5 C8.18548836,20.5 7.23132369,20.2529583 6.30526232,19.7576953 C5.4159076,19.2820632 4.71793682,18.5840924 4.24230471,17.6947377 C3.74704167,16.7686763 3.5,15.8145116 3.5,13.4723885 L3.5,13.4723885 L3.5,10.5276115 C3.5,8.18548836 3.74704167,7.23132369 4.24230471,6.30526232 C4.71793682,5.4159076 5.4159076,4.71793682 6.30526232,4.24230471 C7.23132369,3.74704167 8.18548836,3.5 10.5276115,3.5 L10.5276115,3.5 L10.5276115,3.5 Z"></path>
                        </g>
                    </g>
                </g>
            </g>
        </g>
    </g>
</svg>