<?xml version="1.0" encoding="UTF-8"?>
<svg width="20px" height="22px" viewBox="0 0 20 22" version="1.1" xmlns="http://www.w3.org/2000/svg" xmlns:xlink="http://www.w3.org/1999/xlink">
    <title>ic_PolicyUnselected</title>
    <defs>
        <filter id="filter-1">
            <feColorMatrix in="SourceGraphic" type="matrix" values="0 0 0 0 0.584304 0 0 0 0 0.598793 0 0 0 0 0.714702 0 0 0 1.000000 0"></feColorMatrix>
        </filter>
    </defs>
    <g id="Page-1" stroke="none" stroke-width="1" fill="none" fill-rule="evenodd">
        <g id="New-Claim-1-2_EventSelected" transform="translate(-283.000000, -1141.000000)">
            <g id="Detail" transform="translate(233.000000, 487.000000)">
                <g id="Policy-1-Copy-2" transform="translate(24.000000, 628.000000)">
                    <g id="Component/icon/ic2_Policy" transform="translate(24.000000, 25.000000)">
                        <rect id="Rectangle" x="0" y="0" width="24" height="24"></rect>
                        <g filter="url(#filter-1)" id="Shield" stroke-linecap="round" stroke-linejoin="round">
                            <g transform="translate(3.000000, 1.500000)">
                                <path d="M0,0.724137931 L0,10.9562069 C0,16.4538621 9,21 9,21 C9,21 18,16.4538621 18,10.9562069 L18,0.724137931 L17.8826087,0.724137931 C16.8346957,2.17241379 15.4510435,2.28537931 13.9343478,2.28537931 C11.8745217,2.28537931 10.0596522,1.47724138 8.99921739,0 L9.00078261,0 C7.94034783,1.47724138 6.12547826,2.28537931 4.06565217,2.28537931 C2.54895652,2.28537931 1.16530435,2.17241379 0.117391304,0.724137931 L0,0.724137931 Z" id="Stroke-1934" stroke="#000000"></path>
                                <path d="M3,4.93315358 C3,5.07421941 4.03866128,5.14811104 4.63416042,5.14811104 C6.24754761,5.14811104 7.66705136,4.59056513 8.88574726,3.63669142 L8.88574726,10.6175549 L14.9931127,10.6175549 C15,13.3045231 11.1431044,16.0743579 8.88574726,17.4715813 L8.88574726,10.6175549 L3,10.6175549 L3,4.93315358 Z" id="Stroke-1935" stroke="#000000"></path>
                            </g>
                        </g>
                    </g>
                </g>
            </g>
        </g>
    </g>
</svg>