<?xml version="1.0" encoding="UTF-8"?>
<svg width="18px" height="18px" viewBox="0 0 18 18" version="1.1" xmlns="http://www.w3.org/2000/svg" xmlns:xlink="http://www.w3.org/1999/xlink">
    <title>ic_Plus</title>
    <g id="Symbols" stroke="none" stroke-width="1" fill="none" fill-rule="evenodd">
        <g id="Component/Menu/Sidebar-Nav2" transform="translate(-38.000000, -124.000000)" fill="#FFFFFF">
            <g id="Group" transform="translate(0.000000, 112.000000)">
                <g id="ic_Plus" transform="translate(26.000000, 0.000000)">
                    <g id="ic_Plus" transform="translate(9.000000, 9.000000)">
                        <path d="M13,11 L20,11 C20.5522847,11 21,11.4477153 21,12 C21,12.5522847 20.5522847,13 20,13 L13,13 L13,20 C13,20.5522847 12.5522847,21 12,21 C11.4477153,21 11,20.5522847 11,20 L11,13 L4,13 C3.44771525,13 3,12.5522847 3,12 C3,11.4477153 3.44771525,11 4,11 L11,11 L11,4 C11,3.44771525 11.4477153,3 12,3 C12.5522847,3 13,3.44771525 13,4 L13,11 Z" id="Path"></path>
                    </g>
                </g>
            </g>
        </g>
    </g>
</svg>