<?xml version="1.0" encoding="UTF-8"?>
<svg width="20px" height="21px" viewBox="0 0 20 21" version="1.1" xmlns="http://www.w3.org/2000/svg" xmlns:xlink="http://www.w3.org/1999/xlink">
    <title>ic_Support</title>
    <g id="Symbols" stroke="none" stroke-width="1" fill="none" fill-rule="evenodd">
        <g id="Component/Menu/Sidebar-Nav2" transform="translate(-37.000000, -490.000000)" fill="#FAFAFB">
            <g id="Group" transform="translate(0.000000, 112.000000)">
                <g transform="translate(35.000000, 376.500000)" id="ic_Dashboard">
                    <path d="M3.99995542,2.63109184 C4.6809667,1.91423786 5.78231512,1.72849139 6.47547551,2.45813391 L6.47547551,2.45813391 L10.084797,6.25741968 C10.6470964,6.84931385 10.5280639,7.28455746 9.65059705,9.63004236 C9.41655366,10.1558586 9.4497192,10.5987326 9.63086126,10.7894084 L9.63086126,10.7894084 L12.7707495,14.0945539 C12.9291824,14.2613254 13.2857373,14.2909114 13.8055937,14.0369531 C16.0601688,13.1045272 16.4712171,12.9799672 17.0761387,13.6167268 L17.0761387,13.6167268 L20.6854602,17.4160126 C21.342903,18.1080576 21.1797876,19.179705 20.5211502,19.8730075 C17.8269597,22.7089975 13.436523,22.7089975 10.7423325,19.8730075 L10.7423325,19.8730075 L3.99995542,12.7757684 C1.33334819,9.96881347 1.33334819,5.43804681 3.99995542,2.63109184 Z M5.32225664,4.14803283 C3.51766279,6.19251129 3.56022867,9.40908466 5.44995429,11.3982695 L5.44995429,11.3982695 L12.1923314,18.4955086 C14.078181,20.4806134 17.1017198,20.5012797 19.0112576,18.5575075 L19.0112576,18.5575075 L15.9695538,15.3557141 C15.6471303,15.4566835 15.1804422,15.6325321 14.6300915,15.8578991 C13.4428681,16.443427 12.1409259,16.3353952 11.3207506,15.4720528 L11.3207506,15.4720528 L8.18086239,12.1669073 C7.38339623,11.3274693 7.2858249,10.0245567 7.80014169,8.87371658 C8.05247945,8.19765629 8.22674604,7.68243034 8.32107314,7.33752229 C8.32344311,7.32885648 8.32575095,7.32033804 8.32800031,7.31197354 L8.32800031,7.31197354 Z M12.9,7.4 C14.4463973,7.4 15.7,8.6536027 15.7,10.2 C15.7,10.7522847 15.2522847,11.2 14.7,11.2 C14.1477153,11.2 13.7,10.7522847 13.7,10.2 C13.7,9.7581722 13.3418278,9.4 12.9,9.4 C12.3477153,9.4 11.9,8.95228475 11.9,8.4 C11.9,7.84771525 12.3477153,7.4 12.9,7.4 Z M12.9,4.7 C15.9375661,4.7 18.4,7.16243388 18.4,10.2 C18.4,10.7522847 17.9522847,11.2 17.4,11.2 C16.8477153,11.2 16.4,10.7522847 16.4,10.2 C16.4,8.26700338 14.8329966,6.7 12.9,6.7 C12.3477153,6.7 11.9,6.25228475 11.9,5.7 C11.9,5.14771525 12.3477153,4.7 12.9,4.7 Z M12.9,2 C17.4287349,2 21.1,5.67126505 21.1,10.2 C21.1,10.7522847 20.6522847,11.2 20.1,11.2 C19.5477153,11.2 19.1,10.7522847 19.1,10.2 C19.1,6.77583455 16.3241654,4 12.9,4 C12.3477153,4 11.9,3.55228475 11.9,3 C11.9,2.44771525 12.3477153,2 12.9,2 Z" id="Shape"></path>
                </g>
            </g>
        </g>
    </g>
</svg>