<?xml version="1.0" encoding="UTF-8"?>
<svg width="100px" height="80px" viewBox="0 0 100 80" version="1.1" xmlns="http://www.w3.org/2000/svg" xmlns:xlink="http://www.w3.org/1999/xlink">
    <title>Illness</title>
    <defs>
        <polygon id="path-1" points="0.249121065 0.000304634914 59.1972333 0.000304634914 59.1972333 57.4358974 0.249121065 57.4358974"></polygon>
        <polygon id="path-3" points="0 68.90625 87.8111667 68.90625 87.8111667 0.424711538 0 0.424711538"></polygon>
        <polygon id="path-5" points="0.476457143 9.45475325 6.38251429 12.0074805 10.2821714 3.13558442 4.378 0.582857143"></polygon>
        <radialGradient cx="15.9033904%" cy="46.5938582%" fx="15.9033904%" fy="46.5938582%" r="161.940576%" gradientTransform="translate(0.159034,0.465939),scale(1.000000,0.858297),rotate(-156.620745),scale(1.000000,0.638917),translate(-0.159034,-0.465939)" id="radialGradient-7">
            <stop stop-color="#FFFFFF" offset="0%"></stop>
            <stop stop-color="#D4EDF6" offset="100%"></stop>
        </radialGradient>
    </defs>
    <g id="Page-1" stroke="none" stroke-width="1" fill="none" fill-rule="evenodd">
        <g id="New-Claim-1-1_ChooseEvent" transform="translate(-629.000000, -308.000000)">
            <g id="Actions" transform="translate(233.000000, 298.000000)">
                <g id="Action-3" transform="translate(363.000000, 0.000000)">
                    <g id="Illness" transform="translate(33.000000, 10.000000)">
                        <rect id="Rectangle" x="-2.27373675e-13" y="0" width="100" height="80"></rect>
                        <g id="Illustration" transform="translate(7.000000, 5.000000)">
                            <g id="Group-112">
                                <g id="Group-3" transform="translate(18.333333, 11.470353)">
                                    <mask id="mask-2" fill="white">
                                        <use xlink:href="#path-1"></use>
                                    </mask>
                                    <g id="Clip-2"></g>
                                    <path d="M11.1510667,10.6477179 C11.1345667,10.7697692 11.1107333,10.884641 11.0979,11.0084872 L10.9695667,11.0031026 C11.0062333,10.9331026 11.0685667,10.8056667 11.1510667,10.6477179 M11.1767333,10.6010513 C11.1510667,10.7338718 11.1309,10.8720769 11.1107333,11.0084872 L11.1052333,11.0084872 C11.1199,10.8702821 11.1529,10.7392564 11.1749,10.604641 C11.1749,10.604641 11.1767333,10.6010513 11.1767333,10.6010513 M21.8375667,36.3000256 C21.8064,36.3341282 21.7679,36.3772051 21.7385667,36.4095128 C21.7147333,36.379 21.6744,36.3359231 21.6469,36.3036154 C21.7092333,36.3054103 21.7734,36.3036154 21.8375667,36.3000256 M57.1145667,8.08105128 L31.9924,8.08105128 C31.5615667,4.94720513 29.5999,0.0777179487 21.6175667,0.0113076923 L21.6175667,0.00412820513 C21.6340667,0.00233333333 21.6432333,0.00233333333 21.6432333,0.00233333333 C21.6542333,0.000304634914 21.6505667,0.000304634914 21.6175667,0.000304634914 C20.1215667,-0.0102307692 10.1390667,0.303871795 10.9310667,11.0013077 L10.9182333,11.0013077 L10.9347333,11.6905385 C10.3829,11.9507949 9.9814,12.7028462 9.9814,13.5966923 C9.9814,14.7077179 10.5955667,15.6087436 11.3545667,15.6087436 C11.3655667,15.6087436 11.3765667,15.6051538 11.3875667,15.6051538 C12.1814,18.7138718 14.1100667,21.6843846 16.6309,23.429 C16.3430667,24.2761795 15.9580667,25.0264359 15.5180667,25.6887436 L15.5162333,25.683359 L15.5125667,25.6977179 C15.4960667,25.7210513 15.4814,25.7479744 15.4667333,25.7713077 C-0.739933333,25.8377179 -0.263266667,52.9582308 0.5819,53.9202821 C2.16956667,55.7205385 11.5397333,57.3987436 21.6780667,57.4328462 L21.6780667,57.4364359 C21.7074,57.4364359 21.7349,57.434641 21.7642333,57.434641 C21.7935667,57.434641 21.8210667,57.4364359 21.8522333,57.4364359 L21.8522333,57.4328462 C31.9887333,57.3987436 41.3607333,55.7205385 42.9465667,53.9202821 C43.5919,53.1843846 44.0154,37.1831026 36.9497333,29.6428462 L57.1145667,29.6428462 C58.2640667,29.6428462 59.1972333,28.7238718 59.1972333,27.6020769 L59.1972333,10.114641 C59.1972333,8.99284615 58.2640667,8.08105128 57.1145667,8.08105128" id="Fill-1" fill="#808080" mask="url(#mask-2)"></path>
                                </g>
                                <path d="M75.4376333,37.2771987 C75.4376333,38.2643782 74.6236333,39.0666859 73.6153,39.0666859 L43.7283,39.0666859 C42.7199667,39.0666859 41.9041333,38.2643782 41.9041333,37.2771987 L41.9041333,19.7897628 C41.9041333,18.8043782 42.7199667,18.00925 43.7283,18.00925 L73.6153,18.00925 C74.6236333,18.00925 75.4376333,18.8043782 75.4376333,19.7897628 L75.4376333,37.2771987 Z" id="Fill-4" fill="#FFFFFF"></path>
                                <path d="M43.7284833,39.3174295 C42.5808167,39.3174295 41.6458167,38.40025 41.6458167,37.2766603 L41.6458167,19.7910192 C41.6458167,18.6674295 42.5808167,17.7556346 43.7284833,17.7556346 L73.6154833,17.7556346 C74.7649833,17.7556346 75.6963167,18.6674295 75.6963167,19.7910192 L75.6963167,37.2766603 C75.6963167,38.40025 74.7649833,39.3174295 73.6154833,39.3174295 L43.7284833,39.3174295 Z" id="Fill-6" fill="#F62E2E"></path>
                                <path d="M43.9649833,18.750891 C43.3013167,18.750891 42.75865,19.2803782 42.75865,19.9301218 L42.75865,37.1393526 C42.75865,37.790891 43.3013167,38.3203782 43.9649833,38.3203782 L58.59315,38.3203782 L58.59315,18.750891 L43.9649833,18.750891 Z" id="Fill-8" fill="#FFFFFF"></path>
                                <path d="M73.3806333,18.750891 L58.2098,18.750891 L58.2098,38.3203782 L73.3806333,38.3203782 C74.0443,38.3203782 74.5851333,37.790891 74.5851333,37.1393526 L74.5851333,19.9301218 C74.5851333,19.2803782 74.0443,18.750891 73.3806333,18.750891" id="Fill-10" fill="#FFFFFF"></path>
                                <polygon id="Fill-12" fill="#FF4848" points="65.7070333 37.5523526 63.6977 24.3044038 60.9403667 30.9974808 59.7872 28.1992756 54.3642 35.7215833 53.9058667 24.9361987 51.7773667 30.3459423 44.3322 30.7120962 44.2698667 29.5436346 50.9395333 29.2133782 54.8628667 19.2374808 55.4165333 32.2341474 60.0787 25.7636346 60.9403667 27.8618397 64.2330333 19.8656859 66.2588667 33.1961987 68.1050333 28.8436346 73.0422 28.8436346 73.0422 30.0156859 68.9062 30.0156859"></polygon>
                                <path d="M49.7280667,23.2721731 C49.7280667,24.3831987 49.1120667,25.2842244 48.3567333,25.2842244 C47.5995667,25.2842244 46.9872333,24.3831987 46.9872333,23.2721731 C46.9872333,22.1611474 47.5995667,21.2583269 48.3567333,21.2583269 C49.1120667,21.2583269 49.7280667,22.1611474 49.7280667,23.2721731" id="Fill-14" fill="#FFC48F"></path>
                                <path d="M42.8816667,29.7742756 L39.2975,29.7742756 L37.2496667,29.7742756 L33.6691667,29.7742756 C33.6691667,32.9601731 32.3565,35.2342756 30.8971667,36.7796603 C34.2466667,38.4668397 36.1331667,56.4873526 45.848,36.9824808 C44.3153333,35.4317115 42.8816667,33.1055577 42.8816667,29.7742756" id="Fill-16" fill="#FFC48F"></path>
                                <path d="M44.5038,35.4428397 C44.5038,35.4428397 44.1646333,38.8854038 43.6989667,39.8259167 C43.1636333,40.9046346 42.1259667,42.4302756 41.1011333,43.6489936 C40.1478,44.7779679 39.1999667,45.6466859 38.6738,45.6466859 C38.6389667,45.6466859 38.2154667,46.3843782 38.1788,46.3771987 L38.1788,67.1115577 C48.3813,67.0954038 57.8504667,65.4064295 59.4454667,63.5954038 C60.2924667,62.6315577 60.7728,35.4428397 44.5038,35.4428397" id="Fill-18" fill="#138CD6"></path>
                                <path d="M32.0266833,35.4428397 C32.0266833,35.4428397 32.36585,38.8854038 32.82785,39.8259167 C33.3650167,40.9046346 34.4045167,42.4302756 35.4275167,43.6489936 C36.38085,44.7779679 37.3286833,45.6466859 37.8566833,45.6466859 C37.89335,45.6466859 38.3131833,46.3843782 38.3516833,46.3771987 L38.3516833,67.1115577 C28.14735,67.0954038 18.6781833,65.4064295 17.0831833,63.5954038 C16.2361833,62.6315577 15.75585,35.4428397 32.0266833,35.4428397" id="Fill-20" fill="#21B0FF"></path>
                                <path d="M38.1659667,13.0638397 L38.1659667,34.6597372 C43.7044667,34.4012756 48.6654667,27.9505064 48.6654667,22.2553782 C48.6654667,16.0289679 43.1746333,13.1787115 38.1659667,13.0638397" id="Fill-22" fill="#FFC48F"></path>
                                <path d="M37.8436667,34.6846859 C37.9518333,34.6846859 38.06,34.6649423 38.1663333,34.6595577 L38.1663333,12.6687885 C38.06,12.6669936 37.9518333,12.6598141 37.8436667,12.6598141 C32.7488333,12.6598141 27.4835,15.8959679 27.4835,22.2551987 C27.4835,28.061609 32.1713333,34.6846859 37.8436667,34.6846859" id="Fill-24" fill="#FFE6C2"></path>
                                <path d="M27.53465,21.8621218 C27.53465,15.502891 33.1593167,12.6598141 38.2559833,12.6598141 C38.3623167,12.6598141 38.4704833,12.6669936 38.5749833,12.6687885 L38.5749833,12.2110962 C38.46865,12.2093013 38.3623167,12.1985321 38.2559833,12.1985321 C32.3343167,12.1985321 27.53465,15.6357115 27.53465,21.8621218" id="Fill-26" fill="#FFC48F"></path>
                                <path d="M35.1365667,21.6711474 C35.1365667,22.3639679 34.5609,22.9293526 33.8495667,22.9293526 C33.1364,22.9293526 32.5589,22.3639679 32.5589,21.6711474 C32.5589,20.9729423 33.1364,20.4075577 33.8495667,20.4075577 C34.5609,20.4075577 35.1365667,20.9729423 35.1365667,21.6711474" id="Fill-28" fill="#2F251C"></path>
                                <path d="M44.0240167,21.6711474 C44.0240167,22.3639679 43.4465167,22.9293526 42.7370167,22.9293526 C42.0275167,22.9293526 41.4500167,22.3639679 41.4500167,21.6711474 C41.4500167,20.9729423 42.0275167,20.4075577 42.7370167,20.4075577 C43.4465167,20.4075577 44.0240167,20.9729423 44.0240167,21.6711474" id="Fill-30" fill="#2F251C"></path>
                                <path d="M43.9327167,41.7153782 L46.5012167,41.4371731 L44.4643833,35.3597372 C44.4643833,35.3597372 43.1682167,39.6423013 42.36155,41.0764038 C41.8133833,42.0510192 39.2613833,44.9425577 38.2402167,46.085891 C37.2208833,44.9425577 34.66705,42.0510192 34.1207167,41.0764038 C33.3177167,39.6423013 32.01605,35.3597372 32.01605,35.3597372 L29.9828833,41.4371731 L32.5513833,41.7153782 L32.2433833,43.8584551 L37.4702167,47.1197372 L37.4702167,67.0481987 L39.1128833,67.0481987 L39.1128833,47.0587115 L44.2407167,43.8584551 L43.9327167,41.7153782 Z" id="Fill-32" fill="#FFFFFF"></path>
                                <path d="M29.2266333,23.2721731 C29.2266333,24.3831987 28.6088,25.2842244 27.8553,25.2842244 C27.0944667,25.2842244 26.4821333,24.3831987 26.4821333,23.2721731 C26.4821333,22.1611474 27.0944667,21.2583269 27.8553,21.2583269 C28.6088,21.2583269 29.2266333,22.1611474 29.2266333,23.2721731" id="Fill-34" fill="#FFE6C2"></path>
                                <mask id="mask-4" fill="white">
                                    <use xlink:href="#path-3"></use>
                                </mask>
                                <g id="Clip-37"></g>
                                <path d="M30.2261667,23.2716346 L36.7583333,23.2716346 L36.7583333,20.4949679 L30.2261667,20.4949679 L30.2261667,23.2716346 Z M36.8408333,24.3072756 L30.1418333,24.3072756 C29.6871667,24.3072756 29.3131667,23.8854808 29.3131667,23.3667628 L29.3131667,20.4016346 C29.3131667,19.8811218 29.6871667,19.4593269 30.1418333,19.4593269 L36.8408333,19.4593269 C37.2955,19.4593269 37.6676667,19.8811218 37.6676667,20.4016346 L37.6676667,23.3667628 C37.6676667,23.8854808 37.2955,24.3072756 36.8408333,24.3072756 L36.8408333,24.3072756 Z" id="Fill-36" fill="#2F251C" mask="url(#mask-4)"></path>
                                <path d="M39.7943333,23.2716346 L46.3246667,23.2716346 L46.3246667,20.4949679 L39.7943333,20.4949679 L39.7943333,23.2716346 Z M46.4071667,24.3072756 L39.7136667,24.3072756 C39.2553333,24.3072756 38.8831667,23.8854808 38.8831667,23.3667628 L38.8831667,20.4016346 C38.8831667,19.8811218 39.2553333,19.4593269 39.7136667,19.4593269 L46.4071667,19.4593269 C46.8655,19.4593269 47.2358333,19.8811218 47.2358333,20.4016346 L47.2358333,23.3667628 C47.2358333,23.8854808 46.8655,24.3072756 46.4071667,24.3072756 L46.4071667,24.3072756 Z" id="Fill-38" fill="#2F251C" mask="url(#mask-4)"></path>
                                <polygon id="Fill-39" fill="#2F251C" mask="url(#mask-4)" points="37.3175 22.2449679 39.1398333 22.2449679 39.1398333 21.2093269 37.3175 21.2093269"></polygon>
                                <polygon id="Fill-40" fill="#2F251C" mask="url(#mask-4)" points="27.4343667 21.3994038 27.4178667 20.6778654 29.5152 20.7604295 29.7095333 22.1765833"></polygon>
                                <polygon id="Fill-41" fill="#2F251C" mask="url(#mask-4)" points="48.74155 21.3994038 48.74155 20.8142756 46.6002167 20.7604295 46.4077167 22.1765833"></polygon>
                                <path d="M38.1175667,9.68625 L38.1175667,9.68086538 C38.1487333,9.67727564 38.1615667,9.67727564 38.1175667,9.67548077 C36.6179,9.66471154 26.5877333,9.9788141 27.4347333,20.7552244 C27.4347333,20.7552244 30.0839,14.9254808 33.7927333,15.9790705 C33.7927333,15.9790705 36.1430667,16.9716346 38.1175667,17.8188141 C38.7152333,18.0754808 38.9535667,18.3195833 39.4925667,18.5170192 C43.3022333,19.9152244 44.8385667,20.6547115 48.5602333,20.3424038 C48.5602333,20.3424038 49.8967333,9.78317308 38.1175667,9.68625" id="Fill-42" fill="#2F251C" mask="url(#mask-4)"></path>
                                <path d="M27.4343667,20.7552244 C27.4343667,20.7552244 30.0835333,14.9254808 33.7923667,15.9790705 C33.7923667,15.9790705 36.1427,16.9716346 38.1172,17.8188141 L38.1172,9.67548077 C36.6175333,9.66471154 26.5873667,9.9788141 27.4343667,20.7552244" id="Fill-43" fill="#4E3C2D" mask="url(#mask-4)"></path>
                                <path d="M37.9545833,9.68194231 C37.9545833,9.68194231 38.23875,9.67835256 38.11775,9.67655769 L38.11775,17.819891 C38.7154167,18.0765577 38.95375,18.3188654 39.49275,18.5163013 C43.3024167,19.9163013 44.83875,20.6539936 48.5604167,20.3434808 C48.5604167,20.3434808 49.9115833,9.68194231 37.9545833,9.68194231" id="Fill-44" fill="#2F251C" mask="url(#mask-4)"></path>
                                <path d="M49.0763167,51.8781218 C48.3979833,51.1368397 47.7709833,50.5750449 46.42165,50.5750449 C46.25665,50.5750449 46.0769833,50.5804295 45.8954833,50.6001731 C44.76615,50.698891 43.4773167,51.6340192 43.3159833,53.4504295 L43.3159833,54.0678654 C43.3984833,55.0191474 43.8659833,56.0117115 44.7093167,57.0311987 C45.6754833,58.2014551 47.16965,59.4453013 49.1533167,60.7286346 L49.1679833,60.7358141 L49.1679833,51.9804295 L49.0763167,51.8781218 Z" id="Fill-45" fill="#FF4848" mask="url(#mask-4)"></path>
                                <path d="M52.4404833,50.5994551 C52.2553167,50.5797115 52.0793167,50.5743269 51.91065,50.5743269 C50.5613167,50.5743269 49.9379833,51.1379167 49.25965,51.8774038 L49.1679833,51.9797115 L49.1679833,60.7350962 L49.1808167,60.7297115 C51.1644833,59.4463782 52.65865,58.2025321 53.6284833,57.0304808 C54.4644833,56.0127885 54.93565,55.0148397 55.0163167,54.0671474 L55.0163167,53.4479167 C54.8549833,51.6350962 53.56615,50.6999679 52.4404833,50.5994551" id="Fill-46" fill="#F62E2E" mask="url(#mask-4)"></path>
                                <path d="M35.5538333,55.0471474 C35.5538333,55.5497115 35.1376667,55.9553526 34.6225,55.9553526 C34.111,55.9553526 33.693,55.5497115 33.693,55.0471474 C33.693,54.5427885 34.111,54.1371474 34.6225,54.1371474 C35.1376667,54.1371474 35.5538333,54.5427885 35.5538333,55.0471474" id="Fill-47" fill="#FFFFFF" mask="url(#mask-4)"></path>
                                <path d="M35.5538333,57.9568141 C35.5538333,58.4629679 35.1376667,58.8650192 34.6225,58.8650192 C34.111,58.8650192 33.693,58.4629679 33.693,57.9568141 C33.693,57.45425 34.111,57.0450192 34.6225,57.0450192 C35.1376667,57.0450192 35.5538333,57.45425 35.5538333,57.9568141" id="Fill-48" fill="#FFFFFF" mask="url(#mask-4)"></path>
                                <path d="M35.5538333,60.8664808 C35.5538333,61.3690449 35.1376667,61.7746859 34.6225,61.7746859 C34.111,61.7746859 33.693,61.3690449 33.693,60.8664808 C33.693,60.3639167 34.111,59.9582756 34.6225,59.9582756 C35.1376667,59.9582756 35.5538333,60.3639167 35.5538333,60.8664808" id="Fill-49" fill="#FFFFFF" mask="url(#mask-4)"></path>
                                <g id="Group-52" mask="url(#mask-4)" fill="#808080">
                                    <g transform="translate(49.500000, 50.256410)">
                                        <path d="M37.9778667,1.46825 C37.7908667,1.46645513 37.6405333,1.54004487 37.6405333,1.63158333 L37.6313667,2.96517308 L33.9885333,2.93825 L34.0068667,0.633634615 C34.0087,0.511583333 33.8602,0.409251547 33.6732,0.409251547 C33.4880333,0.407480769 33.3377,0.506198718 33.3358667,0.62825 L33.3285333,1.62619872 L26.8220333,1.57773718 L25.9402,1.57055769 L12.2140333,1.46825 L12.2085333,2.02825 L11.6383667,2.02466026 L11.6310333,2.77132692 L10.4393667,2.76235256 L10.4393667,3.01901923 L7.76453333,3.69030128 L7.76086667,4.23594231 L0.5137,4.18030128 L0.511866667,4.27363462 L7.75903333,4.32748077 L7.75536667,4.87132692 L10.4192,5.58209615 L10.4155333,5.84055769 L11.6072,5.84953205 L11.6017,6.59619872 L12.1737,6.60158333 L12.1700333,7.16158333 L24.8713667,7.25671154 L25.5680333,7.26209615 L26.5470333,7.26748077 L26.7303667,7.26927564 L33.2827,7.31953205 L33.2772,8.3156859 C33.2753667,8.43953205 33.4257,8.54004487 33.6090333,8.54186384 C33.7960333,8.54363462 33.9463667,8.44491667 33.9463667,8.32107051 L33.9665333,6.01645513 L37.6075333,6.04337821 L37.5965333,7.37696795 C37.5965333,7.47030128 37.7450333,7.5456859 37.9302,7.5456859 C38.1153667,7.54748077 38.2657,7.47389103 38.2657,7.38055769 L38.2895333,4.50876282 L38.3115499,1.63696795 C38.3133667,1.54363462 38.1630333,1.46825 37.9778667,1.46825" id="Fill-50"></path>
                                        <path d="M35.5430167,11.4093269 L15.34885,11.2585254 C14.6980167,11.2531731 13.7190167,11.9226603 13.07185,12.5203526 L2.11951667,12.4377885 C1.40818333,12.4324038 0.09185,12.8344551 0.0845166667,13.8180449 L0.0790166667,14.4372756 L0.0734860272,15.0583013 C0.0661833333,16.041891 1.37701667,16.4600962 2.08835,16.4654808 L13.0406833,16.5480449 C13.67685,17.1565064 14.6466833,17.8403526 15.2975167,17.8439423 L35.4916833,17.994771 C36.5366833,18.0036859 38.1921833,16.9949679 38.20135,15.7367628 L38.2086833,14.7226603 L38.2178882,13.7103526 C38.2270167,12.4503526 36.5861833,11.4165064 35.5430167,11.4093269" id="Fill-51"></path>
                                    </g>
                                </g>
                                <polygon id="Fill-53" fill="#765E48" mask="url(#mask-4)" points="55.6596333 52.3767372 58.8239667 51.5834038 58.8129667 52.9905833 55.6559667 52.96725"></polygon>
                                <polygon id="Fill-54" fill="#765E48" mask="url(#mask-4)" points="55.65065 53.5581218 55.65615 52.967609 58.81315 52.9909423 58.80215 54.3981218"></polygon>
                                <polygon id="Fill-55" fill="#765E48" mask="url(#mask-4)" points="62.1371667 53.0848141 62.139 52.946609 48.411 52.8443013 48.4091667 52.9825064"></polygon>
                                <polygon id="Fill-56" fill="#DFF4FB" mask="url(#mask-4)" points="58.3361167 51.448609 59.52595 51.4557885 59.5332833 50.7091218 60.36195 50.7163013 60.34545 53.0029679 58.3232833 52.9868141"></polygon>
                                <polygon id="Fill-57" fill="#D4EEF7" mask="url(#mask-4)" points="59.4980833 55.2828141 59.5035833 54.5343526 58.3119167 54.5271731 58.3229167 52.9871731 60.3450833 53.0015321 60.32675 55.2881987"></polygon>
                                <polygon id="Fill-58" fill="#765E48" mask="url(#mask-4)" points="72.8112 50.2487372 74.7178667 50.2630962 74.6940333 53.1097628 72.7892 53.0954038"></polygon>
                                <polygon id="Fill-59" fill="#765E48" mask="url(#mask-4)" points="72.7664667 55.941891 72.7903 53.0952244 74.6951333 53.1095833 74.6731333 55.95625"></polygon>
                                <path d="M81.2313333,49.3145064 C81.2331667,49.1924551 81.3835,49.0919423 81.5705,49.0937135 C81.7556667,49.0955321 81.9041667,49.1978397 81.9023333,49.319891 L81.884,51.6245064 L85.5268333,51.6514295 L85.5378333,50.3178397 C85.5378333,50.2245064 85.6881667,50.1527115 85.8733333,50.1545064 C86.0603333,50.1545064 86.2088333,50.229891 86.2070168,50.3232244 L86.185,53.1950192 L81.202,53.1591218 L81.2313333,49.3145064 Z" id="Fill-60" fill="#DFF4FB" mask="url(#mask-4)"></path>
                                <path d="M81.1722834,57.0023013 L81.2034667,53.1576859 L86.1846333,53.1953782 L86.1626333,56.0671731 C86.1626333,56.1605064 86.0123,56.2340962 85.8253,56.2323013 C85.6419667,56.2305064 85.4916333,56.1551218 85.4916333,56.0635833 L85.5026333,54.7299936 L81.8616333,54.7030705 L81.8414667,57.005891 C81.8414667,57.1297372 81.6911333,57.2284551 81.5059667,57.2266843 C81.3208,57.2266843 81.1704667,57.1243526 81.1722834,57.0023013" id="Fill-61" fill="#D4EEF7" mask="url(#mask-4)"></path>
                                <polygon id="Fill-62" fill="#F34444" mask="url(#mask-4)" points="60.0871333 53.0008141 60.1109667 50.1541474 74.4861333 50.2618397 74.4659667 53.1085064 74.4421333 55.9551731 60.0651333 55.8474808"></polygon>
                                <polygon id="Fill-63" fill="#FF5C5C" mask="url(#mask-4)" points="60.0871333 53.0008141 60.1109667 50.1541474 74.4861333 50.2618397 74.4659667 53.1085064"></polygon>
                                <polygon id="Fill-64" fill="#F34444" mask="url(#mask-4)" points="60.0871333 53.0008141 74.4659667 53.1085064 74.4421333 55.9551731 60.0651333 55.8474808"></polygon>
                                <polygon id="Fill-65" fill="#DFF4FB" mask="url(#mask-4)" points="74.48705 50.2611218 74.6722167 50.2629167 81.27405 50.3113782 81.25205 53.1580449 74.6483833 53.1095833 74.46505 53.1077885"></polygon>
                                <polygon id="Fill-66" fill="#D4EEF7" mask="url(#mask-4)" points="74.4656 53.107609 74.6489333 53.1094038 81.2526 53.1578654 81.2287667 56.0045321 74.6269333 55.9560705 74.4417667 55.9542756"></polygon>
                                <polygon id="Fill-67" fill="#765E48" mask="url(#mask-4)" points="66.7025333 54.2373013 66.7208667 51.9003782 66.5283667 51.8985833 66.5118667 54.2355064"></polygon>
                                <polygon id="Fill-68" fill="#765E48" mask="url(#mask-4)" points="65.2523667 53.7149936 65.2633667 52.3993526 65.0690333 52.3993526 65.0617 53.7131987"></polygon>
                                <polygon id="Fill-69" fill="#765E48" mask="url(#mask-4)" points="69.61185 54.2583013 69.6320167 51.9213782 69.4376833 51.9213782 69.41935 54.2565064"></polygon>
                                <polygon id="Fill-70" fill="#765E48" mask="url(#mask-4)" points="68.1616833 53.736891 68.1726833 52.42125 67.97835 52.42125 67.9691833 53.7350962"></polygon>
                                <polygon id="Fill-71" fill="#765E48" mask="url(#mask-4)" points="63.79505 54.2154038 63.8133833 51.8784808 63.61905 51.8766859 63.60255 54.213609"></polygon>
                                <polygon id="Fill-72" fill="#765E48" mask="url(#mask-4)" points="62.34305 53.6930962 62.35405 52.37925 62.16155 52.3774551 62.1523833 53.6913013"></polygon>
                                <polygon id="Fill-73" fill="#765E48" mask="url(#mask-4)" points="75.3553167 54.2627885 75.37365 51.9276603 75.18115 51.9276603 75.1628167 54.2627885"></polygon>
                                <polygon id="Fill-74" fill="#765E48" mask="url(#mask-4)" points="73.9033167 53.7420962 73.9143167 52.42825 73.7218167 52.4264551 73.71265 53.7403013"></polygon>
                                <polygon id="Fill-75" fill="#765E48" mask="url(#mask-4)" points="78.2646333 54.2846859 78.2829667 51.9495577 78.0886333 51.9495577 78.0739667 54.282891"></polygon>
                                <polygon id="Fill-76" fill="#765E48" mask="url(#mask-4)" points="76.8126333 53.7639936 76.8236333 52.4501474 76.6311333 52.4483526 76.6219667 53.7621987"></polygon>
                                <polygon id="Fill-77" fill="#765E48" mask="url(#mask-4)" points="72.4441667 54.240891 72.4643333 51.9075577 72.2718333 51.9057628 72.2535 54.2390962"></polygon>
                                <polygon id="Fill-78" fill="#765E48" mask="url(#mask-4)" points="70.9958333 53.7201987 71.005 52.4063526 70.8125 52.4045577 70.8033333 53.7184038"></polygon>
                                <path d="M60.9357833,65.2335833 L49.98345,65.1528141 C49.27395,65.1474295 47.9631167,64.7274295 47.9704194,63.7438397 L47.97595,63.124609 L47.98145,62.5035833 C47.9887833,61.5217885 49.3032833,61.1197372 50.0146167,61.1233269 L60.9687833,61.205891 C61.6141167,60.6081987 62.5931167,59.9387115 63.2457833,59.9440639 L83.4381167,60.0948654 C84.4831167,60.1038397 86.1221167,61.135891 86.1129883,62.395891 L86.1056167,63.4081987 L86.0982833,64.4223013 C86.0891167,65.6823013 84.4317833,66.6892244 83.3867833,66.682083 L63.1926167,66.5312756 C62.5417833,66.525891 61.5737833,65.8420449 60.9357833,65.2335833" id="Fill-79" fill="#D4EEF7" mask="url(#mask-4)"></path>
                                <path d="M47.9807167,62.5044808 C47.98805,61.520891 49.3043833,61.1188397 50.0138833,61.1242244 L60.96805,61.2067885 C61.6152167,60.6090962 62.5942167,59.939609 63.24505,59.9449613 L83.4392167,60.0957628 C84.4823833,60.1029423 86.1232167,61.1349936 86.1140882,62.3949936 L86.1048833,63.4090962 L47.9752167,63.1237115 L47.9807167,62.5044808 Z" id="Fill-80" fill="#DFF4FB" mask="url(#mask-4)"></path>
                                <path d="M60.9357833,65.2335833 L49.98345,65.1528141 C49.27395,65.1474295 47.9631167,64.7274295 47.9704194,63.7438397 L47.97595,63.124609 L86.1056167,63.4081987 L86.0982833,64.4223013 C86.0891167,65.6823013 84.4317833,66.6892244 83.3867833,66.6820449 L63.1926167,66.5312756 C62.5417833,66.525891 61.5737833,65.8420449 60.9357833,65.2335833" id="Fill-81" fill="#D4EEF7" mask="url(#mask-4)"></path>
                                <polygon id="Fill-82" fill="#765E48" mask="url(#mask-4)" points="62.3822833 64.6900962 62.4042833 61.7716346 62.2117833 61.7698397 62.1897833 64.6883013"></polygon>
                                <polygon id="Fill-83" fill="#765E48" mask="url(#mask-4)" points="64.8118167 64.7085833 64.83565 61.7901218 64.64315 61.7883269 64.62115 64.7067885"></polygon>
                                <polygon id="Fill-84" fill="#765E48" mask="url(#mask-4)" points="67.2431833 64.7270705 67.2670167 61.808609 67.0745167 61.8068141 67.0525167 64.7252756"></polygon>
                                <polygon id="Fill-85" fill="#765E48" mask="url(#mask-4)" points="69.67455 64.7453782 69.69655 61.8269167 69.5058833 61.8251218 69.4838833 64.7435833"></polygon>
                                <polygon id="Fill-86" fill="#765E48" mask="url(#mask-4)" points="72.1040833 64.7629679 72.12975 61.8445064 71.93725 61.8427115 71.9134167 64.7611731"></polygon>
                                <polygon id="Fill-87" fill="#765E48" mask="url(#mask-4)" points="74.5371 64.7812756 74.5609333 61.8628141 74.3666 61.8610192 74.3446 64.7794808"></polygon>
                                <polygon id="Fill-88" fill="#765E48" mask="url(#mask-4)" points="76.6945667 64.7970705 76.7165667 61.878609 76.5240667 61.8768141 76.5020667 64.7970705"></polygon>
                                <polygon id="Fill-89" fill="#765E48" mask="url(#mask-4)" points="79.1259333 64.8155577 79.1479333 61.8970962 78.9554333 61.8953013 78.9334333 64.8137628"></polygon>
                                <polygon id="Fill-90" fill="#765E48" mask="url(#mask-4)" points="81.5571167 64.8338654 81.5791167 61.9154038 81.3866167 61.913609 81.3646167 64.8320705"></polygon>
                                <path d="M83.0522,63.4904038 C83.2062,63.4904038 83.3290333,63.4473269 83.3308667,63.3880962 C83.3308667,63.3288654 83.2080333,63.2821987 83.0540333,63.2804038 L58.0602,63.0937372 C57.9062,63.0937372 57.7815333,63.138609 57.7815333,63.1978397 C57.7815333,63.2552756 57.9043667,63.3037372 58.0583667,63.3037372 L83.0522,63.4904038 Z" id="Fill-91" fill="#765E48" mask="url(#mask-4)"></path>
                                <path d="M49.1032451,63.1328654 C49.1087667,62.5692756 49.5781,62.1169679 50.1537667,62.1205577 C50.4911,62.1241474 50.7862667,62.2856859 50.9751,62.5315833 L65.7407667,62.6410705 C66.8041,62.64825 67.1634333,62.8420962 67.161607,63.0790192 L67.1597667,63.2674808 L67.1579333,63.4559423 C67.1561,63.6928654 66.7931,63.8795321 65.7316,63.8723526 L50.9659333,63.7610705 C50.7734333,64.0033782 50.4746,64.1613269 50.1372667,64.1595472 C49.5634333,64.1541474 49.0996,63.6946603 49.1032451,63.1328654" id="Fill-92" fill="#F34444" mask="url(#mask-4)"></path>
                                <path d="M50.1541333,62.1205577 C50.4914667,62.1223526 50.7866333,62.2856859 50.9754667,62.5315833 L65.7411333,62.6410705 C66.8044667,62.64825 67.1619667,62.8420962 67.1601403,63.0790192 L67.1583,63.2674808 L49.1036333,63.1328654 C49.1091333,62.5692756 49.5784667,62.1169679 50.1541333,62.1205577" id="Fill-93" fill="#FF5C5C" mask="url(#mask-4)"></path>
                                <path d="M49.1032451,63.1328654 L67.1597667,63.2674808 L67.1579333,63.4559423 C67.1561,63.6928654 66.7931,63.8795321 65.7316,63.8723526 L50.9659333,63.7610705 C50.7734333,64.0033782 50.4746,64.1613269 50.1372667,64.1595321 C49.5634333,64.1541474 49.0996,63.6946603 49.1032451,63.1328654" id="Fill-94" fill="#F34444" mask="url(#mask-4)"></path>
                                <path d="M73.9427333,7.59953205 L68.2465667,4.43158333 L65.6065667,2.96337821 L62.3432333,1.14696795 C60.9205667,0.355429487 59.1055667,0.845429487 58.3007333,2.23645513 C57.4904,3.62927564 57.9909,5.40440385 59.4117333,6.19414744 L61.4504,7.32850641 L65.2985667,9.46978846 C64.6972333,9.92030128 64.2187333,10.4928654 63.8887333,11.1372244 L61.7950667,7.91901923 C60.9169,6.56927564 59.0817333,6.16901923 57.7030667,7.02876282 C56.3225667,7.88850641 55.9137333,9.68517308 56.7937333,11.0367115 L60.4677333,16.6887628 L63.0710667,20.6895321 L63.8099,21.823891 L63.8099,21.8274808 L63.9584,22.0554295 C64.8365667,23.4051731 66.6717333,23.8036346 68.0504,22.943891 C69.4309,22.0841474 69.8379,20.2856859 68.9597333,18.9359423 L68.4702333,18.1820962 C69.0477333,18.1641474 69.6307333,18.0528654 70.1990667,17.8267115 C72.2524,17.0046603 73.4422333,14.97825 73.2662333,12.9195321 C73.9959,12.7220962 74.6522333,12.2518397 75.0555667,11.5572244 C75.8640667,10.1661987 75.3635667,8.38927564 73.9427333,7.59953205" id="Fill-95" fill="#808080" mask="url(#mask-4)"></path>
                                <path d="M63.7789167,8.99217308 L69.73175,12.3037115 C71.1525833,13.0934551 72.9675833,12.60525 73.77425,11.2124295 C74.58275,9.82140385 74.08225,8.04627564 72.6614167,7.25473718 L66.7214167,3.95217308 C65.27675,5.56396795 64.3435833,7.50601923 63.7789167,8.99217308" id="Fill-96" fill="#E44040" mask="url(#mask-4)"></path>
                                <path d="M57.2583,2.02645513 C56.4516333,3.41748077 56.9503,5.19440385 58.3711333,5.98594231 L64.0196333,9.12696795 C64.5843,7.6408141 65.5193,5.69876282 66.9639667,4.08696795 L61.3008,0.936967949 C59.8818,0.147224359 58.0649667,0.635429487 57.2583,2.02645513" id="Fill-97" fill="#FFFFFF" mask="url(#mask-4)"></path>
                                <path d="M57.0185,1.89237821 C56.21,3.28340385 56.7086667,5.06032692 58.1295,5.85186538 L63.7798333,8.99289103 C64.3426667,7.50673718 65.2776667,5.56289103 66.7223333,3.95109615 L61.061,0.802891026 C59.6401667,0.0113525641 57.8233333,0.501352564 57.0185,1.89237821" id="Fill-98" fill="#FF5C5C" mask="url(#mask-4)"></path>
                                <path d="M59.1866,16.3452244 L55.5107667,10.6913782 C54.6326,9.34163462 55.0396,7.54496795 56.4201,6.68522436 C57.7987667,5.82548077 59.6339333,6.22394231 60.5139333,7.5736859 L64.1824333,13.2149679 C62.6094333,14.7083013 60.6752667,15.720609 59.1866,16.3452244" id="Fill-99" fill="#1EABE5" mask="url(#mask-4)"></path>
                                <path d="M66.6202167,22.3704295 C65.24155,23.2301731 63.40455,22.8299167 62.5282167,21.4801731 L59.03755,16.1170962 C60.5243833,15.4906859 62.45855,14.4783782 64.03155,12.9850449 L67.52955,18.3624808 C68.4077167,19.7122244 67.9988833,21.5106859 66.6202167,22.3704295" id="Fill-100" fill="#FFFFFF" mask="url(#mask-4)"></path>
                                <path d="M66.7687167,22.5999936 C65.39005,23.4597372 63.5548833,23.0612756 62.6767167,21.7097372 L59.18605,16.3448654 C60.6747167,15.72025 62.6088833,14.7079423 64.1818833,13.214609 L67.67805,18.5920449 C68.5562167,19.9435833 68.1492167,21.74025 66.7687167,22.5999936" id="Fill-101" fill="#30BCF3" mask="url(#mask-4)"></path>
                                <path d="M68.9172,17.4828141 C66.3817,18.4987115 63.4740333,17.3051218 62.4382,14.824609 C61.3987,12.3440962 62.6160333,9.49742949 65.1515333,8.48153205 C67.6870333,7.46563462 70.5947,8.65742949 71.6305333,11.1397372 C72.6700333,13.6220449 71.4508667,16.4669167 68.9172,17.4828141" id="Fill-102" fill="#FFFFFF" mask="url(#mask-4)"></path>
                                <path d="M62.7924,14.6826346 C63.7255667,16.9136603 66.2849,18.0121218 68.5820667,17.2062244 L65.1115667,8.90853205 C62.8969,9.90827564 61.8574,12.4498141 62.7924,14.6826346" id="Fill-103" fill="#DAEDF5" mask="url(#mask-4)"></path>
                                <path d="M65.5138,8.74860897 L68.9843,17.0445064 C71.1806333,16.0357885 72.2054667,13.5050192 71.2778,11.2811731 C70.3464667,9.05732692 67.8036333,7.95886538 65.5138,8.74860897" id="Fill-104" fill="#C8E0E9" mask="url(#mask-4)"></path>
                                <path d="M17.14515,58.9321474 L17.14515,58.9321474 L11.5773167,56.5557372 L17.14515,58.9321474 Z M20.9364833,50.4154808 L20.9364833,50.4154808 L15.36865,48.0390705 L20.9364833,50.4154808 Z M21.38015,47.5634295 L20.6834833,47.2654808 C21.45165,47.5957372 22.34815,47.2511218 22.68365,46.4972756 L24.6544833,42.0693269 C24.98815,41.3172756 24.6379833,40.4413782 23.8679833,40.1129167 L19.6934833,38.330609 L15.51715,36.5483013 C14.7489833,36.2198397 13.8543167,36.5644551 13.5188167,37.3183013 L11.54615,41.74625 C11.2124833,42.4983013 11.5644833,43.3741987 12.33265,43.7026603 L11.6359833,43.4047115 C8.75398333,42.1752244 6.43848333,42.5216346 5.63731667,44.3236859 L1.08148333,54.5544551 C0.280316667,56.3565064 1.92848333,57.5052244 4.80865,58.7347115 L9.68165,60.8131731 L14.5528167,62.8934295 C17.43665,64.1229167 19.41665,64.5249679 20.21965,62.7211218 L24.77365,52.4921474 C25.5784833,50.6900962 24.26215,48.7947115 21.38015,47.5634295 L21.38015,47.5634295 Z" id="Fill-105" fill="#808080" mask="url(#mask-4)"></path>
                                <path d="M8.40106667,44.5794551 L14.4914,47.1784295 L20.5817333,49.7774038 L16.7885667,58.2940705 L10.6982333,55.6950962 L4.60973333,53.0961218 L8.40106667,44.5794551 Z M4.75823333,43.4630449 L0.2024,53.6938141 C-0.598766667,55.4958654 1.0494,56.6445833 3.9314,57.8740705 L8.80256667,59.9525321 L13.6737333,62.0327885 C16.5575667,63.2622756 18.5375667,63.6643269 19.3405667,61.8604808 L23.8945667,51.6315064 C24.6994,49.8294551 23.3830667,47.9340705 20.5010667,46.7027885 L19.8044,46.4066346 L15.6280667,44.6243269 L11.4535667,42.8420192 L10.7569,42.5440705 C7.8749,41.3145833 5.5594,41.6609936 4.75823333,43.4630449 L4.75823333,43.4630449 Z" id="Fill-106" fill="#32C2FB" mask="url(#mask-4)"></path>
                                <path d="M16.26625,58.0715064 L20.0575833,49.5548397 L14.4915833,47.1784295 L15.62825,44.6243269 L19.8045833,46.4048397 L20.50125,46.7027885 C23.38325,47.9340705 24.6995833,49.8294551 23.89475,51.6315064 L19.34075,61.8604808 C18.53775,63.6643269 16.55775,63.2622756 13.6739167,62.0327885 L8.80275,59.9525321 L10.6984167,55.6950962 L16.26625,58.0715064 Z" id="Fill-107" fill="#32C2FB" mask="url(#mask-4)"></path>
                                <path d="M10.7572667,42.5444295 L11.4539333,42.8423782 L15.6284333,44.6246859 L14.4917667,47.1787885 L8.92393333,44.8023782 L5.1326,53.3190449 L10.6986,55.6954551 L8.80293333,59.952891 L3.92993333,57.8744295 C1.04976667,56.6431474 -0.5984,55.4962244 0.202766667,53.6923782 L4.7586,43.4634038 C5.55976667,41.6613526 7.87526667,41.3131474 10.7572667,42.5444295" id="Fill-108" fill="#20B8F6" mask="url(#mask-4)"></path>
                                <path d="M14.6388,35.6881987 L18.8133,37.4705064 L22.9896333,39.2510192 C23.7596333,39.5794808 24.1098,40.4571731 23.7743,41.2092244 L21.8034667,45.6371731 C21.4698,46.3892244 20.5714667,46.7338397 19.8033,46.4053782 L15.6288,44.6248654 L11.4543,42.8407628 C10.6861333,42.5140962 10.3323,41.6364038 10.6678,40.8861474 L12.6404667,36.4564038 C12.9759667,35.7043526 13.8706333,35.3597372 14.6388,35.6881987" id="Fill-109" fill="#AA8768" mask="url(#mask-4)"></path>
                                <path d="M11.45375,42.8414808 C10.6855833,42.5130192 10.3335833,41.6371218 10.66725,40.8850705 L12.6399167,36.4571218 C12.9754167,35.7032756 13.8700833,35.3604551 14.63825,35.6889167 L18.8145833,37.4694295 L15.62825,44.6237885 L11.45375,42.8414808 Z" id="Fill-110" fill="#876B52" mask="url(#mask-4)"></path>
                                <path d="M18.81385,37.4699679 L22.98835,39.2522756 C23.75835,39.5807372 24.11035,40.4566346 23.77485,41.2086859 L21.8040167,45.6366346 C21.4685167,46.3904808 20.5720167,46.7350962 19.80385,46.4066346 L15.62935,44.6243269 L18.81385,37.4699679 Z" id="Fill-111" fill="#AA8768" mask="url(#mask-4)"></path>
                            </g>
                            <g id="Group-115" transform="translate(10.000000, 47.000000)">
                                <mask id="mask-6" fill="white">
                                    <use xlink:href="#path-5"></use>
                                </mask>
                                <g id="Clip-114"></g>
                                <polygon id="Fill-113" fill="url(#radialGradient-7)" mask="url(#mask-6)" points="0.476457143 9.45475325 6.38251429 12.0074805 10.2821714 3.13558442 4.378 0.582857143"></polygon>
                            </g>
                            <g id="Group-124" transform="translate(4.000000, 44.000000)">
                                <polygon id="Fill-116" fill="#E0F3FB" points="12.2901387 14.2939286 6.25581867 11.8564286 10.2440187 3.38321429 16.2744853 5.82071429"></polygon>
                                <polygon id="Fill-118" fill="#D4EEF7" points="0.224003333 9.41892857 4.20835 0.945714286 10.24267 3.38321429 6.25639667 11.8564286"></polygon>
                                <polygon id="Fill-120" fill="#E64141" points="6.48933067 10.1339286 7.46037067 10.5267857 10.169264 4.76785714 9.198224 4.375"></polygon>
                                <polygon id="Fill-122" fill="#E64141" points="5.43582933 5.74553571 5.01196267 6.64553571 11.223536 9.15446429 11.6474027 8.25446429"></polygon>
                            </g>
                        </g>
                    </g>
                </g>
            </g>
        </g>
    </g>
</svg>