<svg width="24" height="24" viewBox="0 0 24 24" fill="none" xmlns="http://www.w3.org/2000/svg">
<path fill-rule="evenodd" clip-rule="evenodd" d="M12 0C18.6274 0 24 5.37258 24 12C24 18.6274 18.6274 24 12 24C5.37258 24 0 18.6274 0 12C0 5.37258 5.37258 0 12 0ZM9.0883 2.5786L8.91444 2.74333L2.74333 8.91444C1.09603 10.5617 1.04112 13.1984 2.5786 14.9117L2.74333 15.0856L8.91444 21.2567C10.5617 22.904 13.1984 22.9589 14.9117 21.4214L15.0856 21.2567L21.2567 15.0856C22.904 13.4383 22.9589 10.8016 21.4214 9.0883L21.2567 8.91444L15.0856 2.74333C13.4383 1.09603 10.8016 1.04112 9.0883 2.5786ZM12 12C13.205 12 14.1818 12.9768 14.1818 14.1818V16.3636C14.1818 17.5686 13.205 18.5455 12 18.5455C10.795 18.5455 9.81818 17.5686 9.81818 16.3636V14.1818C9.81818 12.9768 10.795 12 12 12ZM12 5.45455C13.205 5.45455 14.1818 6.43138 14.1818 7.63636C14.1818 8.78658 13.2918 9.72891 12.1628 9.8122L12 9.81818C10.795 9.81818 9.81818 8.84135 9.81818 7.63636C9.81818 6.43138 10.795 5.45455 12 5.45455Z" fill="#0062FF"/>
</svg>
