<svg width="124" height="98" viewBox="0 0 124 98" fill="none" xmlns="http://www.w3.org/2000/svg">
<path opacity="0.5" d="M46 0H8C3.58172 0 0 3.58172 0 8V90C0 94.4183 3.58172 98 8 98H46C50.4183 98 54 94.4183 54 90V8C54 3.58172 50.4183 0 46 0Z" fill="#9599B6"/>
<path d="M50 36H4V53H50V36Z" fill="white"/>
<path d="M26 39H7V41H26V39Z" fill="#CACCDB"/>
<path d="M47 44H7V46H47V44Z" fill="#CACCDB"/>
<path d="M47 48H7V50H47V48Z" fill="#CACCDB"/>
<path opacity="0.5" d="M116 0H78C73.5817 0 70 3.58172 70 8V90C70 94.4183 73.5817 98 78 98H116C120.418 98 124 94.4183 124 90V8C124 3.58172 120.418 0 116 0Z" fill="#9599B6"/>
<path fill-rule="evenodd" clip-rule="evenodd" d="M71 12H123V90C123 93.866 119.866 97 116 97H78C74.134 97 71 93.866 71 90V12Z" fill="white"/>
<path d="M95 46H76V48H95V46Z" fill="#CACCDB"/>
<path d="M95 51H76V53H95V51Z" fill="#CACCDB"/>
<path d="M95 56H76V58H95V56Z" fill="#CACCDB"/>
<path d="M95 61H76V63H95V61Z" fill="#CACCDB"/>
<path d="M118 66H76V68H118V66Z" fill="#CACCDB"/>
<path d="M118 71H76V73H118V71Z" fill="#CACCDB"/>
<path d="M118 76H76V78H118V76Z" fill="#CACCDB"/>
<path d="M118 81H76V83H118V81Z" fill="#CACCDB"/>
<path d="M118 86H76V88H118V86Z" fill="#CACCDB"/>
<path d="M118 19H76V43H118V19Z" fill="#C9CBDA"/>
<path d="M114.5 4H79.5C78.1193 4 77 5.11929 77 6.5C77 7.88071 78.1193 9 79.5 9H114.5C115.881 9 117 7.88071 117 6.5C117 5.11929 115.881 4 114.5 4Z" fill="white"/>
<path d="M118 46H98V62H118V46Z" fill="#CACCDB"/>
</svg>
