<svg width="124" height="98" viewBox="0 0 124 98" fill="none" xmlns="http://www.w3.org/2000/svg">
<path opacity="0.5" d="M46 0H8C3.58172 0 0 3.58172 0 8V90C0 94.4183 3.58172 98 8 98H46C50.4183 98 54 94.4183 54 90V8C54 3.58172 50.4183 0 46 0Z" fill="#9599B6"/>
<path d="M50 36H4V53H50V36Z" fill="white"/>
<path d="M26 39H7V41H26V39Z" fill="#CACCDB"/>
<path d="M47 44H7V46H47V44Z" fill="#CACCDB"/>
<path d="M47 48H7V50H47V48Z" fill="#CACCDB"/>
<path opacity="0.5" d="M116 0H78C73.5817 0 70 3.58172 70 8V90C70 94.4183 73.5817 98 78 98H116C120.418 98 124 94.4183 124 90V8C124 3.58172 120.418 0 116 0Z" fill="#9599B6"/>
<path d="M120 36H74V53H120V36Z" fill="white"/>
<path d="M96 39H77V41H96V39Z" fill="#CACCDB"/>
<path d="M117 44H77V46H117V44Z" fill="#CACCDB"/>
<path d="M117 48H77V50H117V48Z" fill="#CACCDB"/>
</svg>
