<svg width="124" height="98" viewBox="0 0 124 98" fill="none" xmlns="http://www.w3.org/2000/svg">
<path opacity="0.5" d="M46 0H8C3.58172 0 0 3.58172 0 8V90C0 94.4183 3.58172 98 8 98H46C50.4183 98 54 94.4183 54 90V8C54 3.58172 50.4183 0 46 0Z" fill="#9599B6"/>
<path d="M50 36H4V53H50V36Z" fill="white"/>
<path d="M26 39H7V41H26V39Z" fill="#CACCDB"/>
<path d="M47 44H7V46H47V44Z" fill="#CACCDB"/>
<path d="M47 48H7V50H47V48Z" fill="#CACCDB"/>
<path opacity="0.5" d="M116 0H78C73.5817 0 70 3.58172 70 8V90C70 94.4183 73.5817 98 78 98H116C120.418 98 124 94.4183 124 90V8C124 3.58172 120.418 0 116 0Z" fill="#9599B6"/>
<path d="M120 13H74V85H120V13Z" fill="white"/>
<path d="M96 47H77V49H96V47Z" fill="#CACCDB"/>
<path d="M117 17H77V41H117V17Z" fill="#C9CBDA"/>
<path d="M117 52H77V54H117V52Z" fill="#CACCDB"/>
<path d="M117 56H77V58H117V56Z" fill="#CACCDB"/>
<path d="M117 60H77V62H117V60Z" fill="#CACCDB"/>
<path d="M117 64H77V66H117V64Z" fill="#CACCDB"/>
<path d="M117 72H77V80H117V72Z" fill="#CACCDB"/>
</svg>
