<svg width="124" height="98" viewBox="0 0 124 98" fill="none" xmlns="http://www.w3.org/2000/svg">
<path opacity="0.5" d="M46 0H8C3.58172 0 0 3.58172 0 8V90C0 94.4183 3.58172 98 8 98H46C50.4183 98 54 94.4183 54 90V8C54 3.58172 50.4183 0 46 0Z" fill="#9599B6"/>
<path d="M50 36H4V53H50V36Z" fill="white"/>
<path d="M26 39H7V41H26V39Z" fill="#CACCDB"/>
<path d="M47 44H7V46H47V44Z" fill="#CACCDB"/>
<path d="M47 48H7V50H47V48Z" fill="#CACCDB"/>
<path opacity="0.5" d="M116 0H78C73.5817 0 70 3.58172 70 8V90C70 94.4183 73.5817 98 78 98H116C120.418 98 124 94.4183 124 90V8C124 3.58172 120.418 0 116 0Z" fill="#9599B6"/>
<path d="M116 1H78C74.134 1 71 4.13401 71 8V90C71 93.866 74.134 97 78 97H116C119.866 97 123 93.866 123 90V8C123 4.13401 119.866 1 116 1Z" fill="white"/>
<path d="M96 41H77V43H96V41Z" fill="#CACCDB"/>
<path d="M96 66H77V68H96V66Z" fill="#CACCDB"/>
<path d="M117 9H77V33H117V9Z" fill="#C9CBDA"/>
<path d="M97 46H77V62H97V46Z" fill="#CACCDB"/>
<path d="M97 71H77V87H97V71Z" fill="#CACCDB"/>
<path d="M118 46H98V62H118V46Z" fill="#CACCDB"/>
<path d="M118 71H98V87H118V71Z" fill="#CACCDB"/>
<path d="M123 46H119V62H123V46Z" fill="#CACCDB"/>
<path d="M123 71H119V87H123V71Z" fill="#CACCDB"/>
</svg>
