<?xml version="1.0" encoding="UTF-8"?>
<svg width="32px" height="32px" viewBox="0 0 32 32" version="1.1" xmlns="http://www.w3.org/2000/svg" xmlns:xlink="http://www.w3.org/1999/xlink">
    <title>Received</title>
    <g id="Page-1" stroke="none" stroke-width="1" fill="none" fill-rule="evenodd">
        <g id="Dashboard" transform="translate(-193.000000, -554.000000)" fill="#FFFFFF">
            <g id="Stats---Received" transform="translate(153.000000, 510.000000)">
                <g id="Icon" transform="translate(26.000000, 30.000000)">
                    <g id="Received" transform="translate(14.000000, 14.000000)">
                        <g transform="translate(1.000000, 0.000000)">
                            <path d="M8.65036585,19.2923273 L8.73134838,19.3024557 C9.6578503,19.4985896 10.6550776,19.6750062 11.69474,19.8254793 C12.6343766,19.9603862 13.6699976,20.0641607 14.6945047,20.1668974 C18.340901,20.5321837 21.2224533,20.8206769 21.2224533,22.4136158 C21.2224533,24.0221208 18.4166781,24.6520321 15.8069132,24.8907135 C17.1244252,24.9726954 18.6389577,24.8492037 20.0989308,24.5025968 L20.0989308,24.5025968 L25.6539008,23.117207 C25.9731752,23.0352251 26.3045739,22.9937153 26.6349623,22.9937153 C28.1808161,22.9937153 29.5710741,23.8757987 30.2621617,25.2964719 C30.3237938,25.4230768 30.332887,25.5693988 30.2864104,25.7022302 C30.2409441,25.8350616 30.1449597,25.9429871 30.0196748,26.0011008 L30.0196748,26.0011008 L23.0128147,29.2731114 C19.6978171,30.6688786 18.2257197,31.2344498 16.9405393,31.2344498 C16.0645555,31.2344498 15.3118358,30.968787 14.3449194,30.594161 L14.3449194,30.594161 L6.77629799,28.0029113 C6.5237075,27.9167784 6.38023611,27.6438514 6.44692,27.3792264 C6.8904689,25.6327013 7.69875846,22.3129545 8.13119338,19.7217048 C8.1544317,19.5836847 8.23222958,19.4612307 8.34437975,19.3813243 C8.45754029,19.3024557 8.59697024,19.2744366 8.73134838,19.3024557 Z M0.533296856,16.5362542 C1.45499482,16.5904095 6.10977077,16.9153412 7.19246401,17.9362684 C7.30415448,18.0415703 7.36050283,18.1920016 7.34742196,18.3444387 C7.06266157,21.6057897 5.09650674,28.7272084 5.01299044,29.0290739 C4.951611,29.2497065 4.7503669,29.3971292 4.52799217,29.3971292 C4.49579312,29.3971292 4.46359406,29.3931177 4.43038879,29.3871004 C4.40724571,29.3820861 2.02049073,28.9187576 0.503110241,28.9187576 C0.225393388,28.9187576 -1.09690035e-13,28.6941135 -1.09690035e-13,28.4173199 L-1.09690035e-13,28.4173199 L-1.09690035e-13,17.0366891 C-1.09690035e-13,16.8982923 0.0573545675,16.7659127 0.157976616,16.6716424 C0.258598664,16.5773721 0.388401106,16.5312398 0.533296856,16.5362542 Z" id="Combined-Shape"></path>
                            <path d="M26.0865147,5.07680685 L22.7118444,5.07680685 C22.5566095,5.07680685 22.4306218,4.85342735 22.4306218,4.56912616 C22.4306218,4.29497859 22.5566095,4.06144548 22.7118444,4.06144548 L26.0865147,4.06144548 C26.2417496,4.06144548 26.3677373,4.29497859 26.3677373,4.56912616 C26.3677373,4.85342735 26.2417496,5.07680685 26.0865147,5.07680685 L26.0865147,5.07680685 Z M26.1935355,7.35532611 L17.9677765,7.35532611 C17.7931373,7.35532611 17.6514012,7.13194661 17.6514012,6.84764543 C17.6514012,6.5724825 17.7931373,6.33996474 17.9677765,6.33996474 L26.1935355,6.33996474 C26.3681747,6.33996474 26.5099109,6.5724825 26.5099109,6.84764543 C26.5099109,7.13194661 26.3681747,7.35532611 26.1935355,7.35532611 L26.1935355,7.35532611 Z M26.1935355,9.63384538 L17.9677765,9.63384538 C17.7931373,9.63384538 17.6514012,9.41046588 17.6514012,9.12616469 C17.6514012,8.85100176 17.7931373,8.61848401 17.9677765,8.61848401 L26.1935355,8.61848401 C26.3681747,8.61848401 26.5099109,8.85100176 26.5099109,9.12616469 C26.5099109,9.41046588 26.3681747,9.63384538 26.1935355,9.63384538 L26.1935355,9.63384538 Z M26.1935355,11.9123646 L17.9677765,11.9123646 C17.7931373,11.9123646 17.6514012,11.6889851 17.6514012,11.404684 C17.6514012,11.1305364 17.7931373,10.8970033 17.9677765,10.8970033 L26.1935355,10.8970033 C26.3681747,10.8970033 26.5099109,11.1305364 26.5099109,11.404684 C26.5099109,11.6889851 26.3681747,11.9123646 26.1935355,11.9123646 L26.1935355,11.9123646 Z M26.1935355,14.1908839 L17.9677765,14.1908839 C17.7931373,14.1908839 17.6514012,13.9675044 17.6514012,13.6832032 C17.6514012,13.4080403 17.7931373,13.1755225 17.9677765,13.1755225 L26.1935355,13.1755225 C26.3681747,13.1755225 26.5099109,13.4080403 26.5099109,13.6832032 C26.5099109,13.9675044 26.3681747,14.1908839 26.1935355,14.1908839 L26.1935355,14.1908839 Z M26.1935355,16.4694032 L17.9677765,16.4694032 C17.7931373,16.4694032 17.6514012,16.2460237 17.6514012,15.9617225 C17.6514012,15.6865596 17.7931373,15.4540418 17.9677765,15.4540418 L26.1935355,15.4540418 C26.3681747,15.4540418 26.5099109,15.6865596 26.5099109,15.9617225 C26.5099109,16.2460237 26.3681747,16.4694032 26.1935355,16.4694032 L26.1935355,16.4694032 Z M19.6199589,1.01536137 L19.6199589,5.07680685 L15.6828435,5.07680685 L19.6199589,1.01536137 L19.6199589,1.01536137 Z M20.0226184,4.4408921e-14 C19.9819051,4.4408921e-14 19.9411917,0.012861244 19.9029838,0.025722488 C19.8647759,0.0450143541 19.8296998,0.0643062201 19.8008872,0.0964593301 L14.7906394,5.24095694 C14.7618269,5.27311005 14.7386516,5.30526316 14.7229926,5.34384689 C14.7067073,5.38243062 14.6985646,5.42744498 14.6985646,5.46602871 L14.6985646,18.9703349 C14.6985646,19.1503923 14.8388691,19.291866 15.0117442,19.291866 L28.165289,19.291866 C28.3381641,19.291866 28.4784686,19.1503923 28.4784686,18.9703349 L28.4784686,0.3215311 C28.4784686,0.147904306 28.3381641,4.4408921e-14 28.165289,4.4408921e-14 L20.0226184,4.4408921e-14 Z" id="Fill-3542"></path>
                        </g>
                    </g>
                </g>
            </g>
        </g>
    </g>
</svg>