<?xml version="1.0" encoding="UTF-8"?>
<svg width="24px" height="25px" viewBox="0 0 24 25" version="1.1" xmlns="http://www.w3.org/2000/svg" xmlns:xlink="http://www.w3.org/1999/xlink">
    <title>Recipient</title>
    <g id="V2" stroke="none" stroke-width="1" fill="none" fill-rule="evenodd">
        <g id="Push-Notifications-2-1_Drafts" transform="translate(-1152.000000, -291.000000)">
            <g id="Column-4" transform="translate(1152.000000, 223.000000)">
                <g id="Group" transform="translate(0.000000, 57.000000)">
                    <g id="Recipient" transform="translate(0.000000, 11.000000)">
                        <rect id="Rectangle" x="0" y="0" width="24" height="24"></rect>
                        <g id="ic_User" transform="translate(2.000000, 1.000000)" stroke="#9599B6" stroke-linecap="round" stroke-linejoin="round">
                            <path d="M10,13 C15.5227273,13 20,17.4772727 20,23 L20,23 L0,23 C0,17.4772727 4.47727273,13 10,13 Z M10,0 C12.761,0 15,2.239 15,5 C15,7.761 12.761,10 10,10 C7.239,10 5,7.761 5,5 C5,2.239 7.239,0 10,0 Z" id="Combined-Shape"></path>
                        </g>
                    </g>
                </g>
            </g>
        </g>
    </g>
</svg>