<svg width="18" height="18" viewBox="0 0 18 18" fill="none" xmlns="http://www.w3.org/2000/svg">
<path fill-rule="evenodd" clip-rule="evenodd" d="M13.1704 4.83335C13.1704 7.13454 11.3044 9.00002 9.00251 9.00002C6.70063 9.00002 4.83459 7.13454 4.83459 4.83335C4.83459 2.53217 6.70063 0.666687 9.00251 0.666687C11.3044 0.666687 13.1704 2.53217 13.1704 4.83335ZM11.5033 4.83335C11.5033 3.45264 10.3837 2.33335 9.00253 2.33335C7.6214 2.33335 6.50178 3.45264 6.50178 4.83335C6.50178 6.21407 7.6214 7.33335 9.00253 7.33335C10.3837 7.33335 11.5033 6.21407 11.5033 4.83335ZM17.2467 16.125L15.6712 12.9667C14.9646 11.5569 13.5224 10.6667 11.9451 10.6667H6.05997C4.48264 10.6667 3.04048 11.5569 2.33384 12.9667L0.758362 16.125C0.628348 16.383 0.641206 16.6898 0.792342 16.936C0.943478 17.1821 1.21134 17.3325 1.50025 17.3334H16.5048C16.7937 17.3325 17.0616 17.1821 17.2127 16.936C17.3638 16.6898 17.3767 16.383 17.2467 16.125ZM3.82597 13.7167L2.85068 15.6667H15.1544L14.1791 13.7167C13.7563 12.8701 12.8916 12.3346 11.9451 12.3334H6.05998C5.11345 12.3346 4.24876 12.8701 3.82597 13.7167Z" fill="#0062FF"/>
</svg>
