<svg width="20" height="20" viewBox="0 0 20 20" fill="none" xmlns="http://www.w3.org/2000/svg">
<path fill-rule="evenodd" clip-rule="evenodd" d="M15.3265 2.68188C18.5315 5.95055 18.8068 11.0756 16.1525 14.6633L19.6953 18.2755C20.6193 19.218 19.2332 20.6316 18.3091 19.6892L14.8082 16.1204C11.2808 19.1988 5.96783 19.0357 2.62962 15.6311C-0.876539 12.0553 -0.876539 6.25772 2.62962 2.68188C6.13578 -0.89396 11.8204 -0.89396 15.3265 2.68188ZM4.01574 4.09556C1.27512 6.89065 1.27512 11.4224 4.01574 14.2175C6.75637 17.0126 11.1998 17.0126 13.9404 14.2175C16.681 11.4224 16.681 6.89065 13.9404 4.09556C11.1998 1.30047 6.75637 1.30047 4.01574 4.09556Z" fill="#9599B6"/>
</svg>
