<svg width="16" height="16" viewBox="0 0 16 16" fill="none" xmlns="http://www.w3.org/2000/svg">
<path fill-rule="evenodd" clip-rule="evenodd" d="M15.6465 0.623072L15.8629 0.839645C15.9827 0.948974 16.0282 1.11802 15.9794 1.27279L10.953 15.2251C10.8934 15.39 10.7371 15.4999 10.5619 15.5H10.4287C10.2653 15.5 10.1164 15.406 10.0459 15.2584L7.22478 9.26935L1.24135 6.44557C1.09391 6.375 1.00005 6.22598 1.00001 6.0624V5.92912C0.985274 5.74171 1.0978 5.56764 1.27463 5.5043L15.2138 0.506456C15.2606 0.497848 15.3085 0.497848 15.3553 0.506456C15.4638 0.505803 15.5684 0.547652 15.6465 0.623072ZM9.32189 9.76913L10.3455 11.9848L13.6077 2.88043L4.51184 6.14569L6.72546 7.17025C7.3414 7.48999 8.09088 7.39373 8.60621 6.92869L10.0126 5.62925C10.1733 5.47588 10.4261 5.47588 10.5868 5.62925L10.9031 5.94578C11.0563 6.10667 11.0563 6.35964 10.9031 6.52053L9.60484 7.92826C9.14463 8.42688 9.0327 9.15512 9.32189 9.76913Z" fill="#0062FF"/>
</svg>
