<?xml version="1.0" encoding="UTF-8"?>
<svg width="48px" height="48px" viewBox="0 0 48 48" version="1.1" xmlns="http://www.w3.org/2000/svg" xmlns:xlink="http://www.w3.org/1999/xlink">
    <title>Step 2 Illustration</title>
    <defs>
        <circle id="path-1" cx="24" cy="24" r="24"></circle>
        <path d="M1.38218209,0.0221179925 L0.0840784013,2.43650701 C0.0737370684,16.3784434 0.0737370684,23.5120581 0.0840784013,23.837351 C0.0995904005,24.3252904 0.312159554,24.4897959 0.752724126,24.4897959 C1.1932887,24.4897959 1.51668563,24.4897959 1.98550984,24.4897959 C2.45433404,24.4897959 2.68085757,24.3035755 2.68085757,23.837351 C2.68085757,23.5265347 2.68085757,16.39292 2.68085757,2.43650701 L1.38218209,0.0221179925 Z" id="path-3"></path>
    </defs>
    <g id="Page-1" stroke="none" stroke-width="1" fill="none" fill-rule="evenodd">
        <g id="New-Claim-1-1_ChooseEvent" transform="translate(-538.000000, -89.000000)">
            <g id="Stepper" transform="translate(302.000000, 78.000000)">
                <g id="Step-2" transform="translate(236.000000, 0.000000)">
                    <g id="Step-2-Illustration" transform="translate(0.000000, 11.000000)">
                        <mask id="mask-2" fill="white">
                            <use xlink:href="#path-1"></use>
                        </mask>
                        <use id="Oval" fill="#00C468" xlink:href="#path-1"></use>
                        <g id="Group-2" mask="url(#mask-2)">
                            <g transform="translate(10.000000, 8.000000)">
                                <g id="pencil" stroke-width="1" fill="none" transform="translate(0.000000, 6.000000)">
                                    <path d="M1.41043765,0.430866125 L2.70911314,2.84525514 L2.70911314,2.84525514 L2.70911314,24.2460992 C2.70911314,24.7123237 2.48258961,24.8985441 2.01376541,24.8985441 L2.01376541,24.8985441 L0.780979694,24.8985441 C0.340415122,24.8985441 0.127845969,24.7340385 0.112333969,24.2460992 C0.112061829,24.2375388 0.11179685,24.2242636 0.111539033,24.2062734 L0.110787066,24.1381583 C0.110665319,24.1244483 0.110545363,24.1095596 0.110427197,24.0934922 L0.109739684,23.9829429 C0.10962868,23.9621605 0.109519465,23.9401995 0.109412042,23.9170597 L0.108788983,23.7640762 C0.108688721,23.7362215 0.108590249,23.7071881 0.108493568,23.676976 L0.107671776,23.3732411 C0.107585837,23.3359566 0.107501688,23.2974934 0.10741933,23.2578514 L0.106726446,22.8692482 C0.10665483,22.8225339 0.106585005,22.7746409 0.10651697,22.7255691 L0.105630723,21.9010883 C0.105580592,21.8402293 0.105532251,21.7781915 0.105485701,21.714975 L0.105485701,14.3936337 C0.105532251,14.2691234 0.105580592,14.1434345 0.105630723,14.0165668 L0.10651697,12.0251471 C0.106585005,11.8864922 0.10665483,11.7466585 0.106726446,11.6056461 L0.10741933,10.304709 C0.107501688,10.1566242 0.107585837,10.0073608 0.107671776,9.85691855 L0.108493568,8.47111313 C0.108590249,8.31359857 0.108688721,8.15490529 0.108788983,7.99503328 L0.109412042,7.0216565 C0.109519465,6.85706959 0.10962868,6.69130394 0.109739684,6.52435958 L0.110427197,5.50854866 C0.110545363,5.33688939 0.110665319,5.16405139 0.110787066,4.99003467 L0.111539033,3.93178962 C0.11179685,3.57432636 0.112061829,3.2121482 0.112333969,2.84525514 L0.112333969,2.84525514 L1.41043765,0.430866125 Z" id="shadow" fill-opacity="0.5" fill="#000000" style="mix-blend-mode: overlay;"></path>
                                    <g id="Path-8" transform="translate(0.505263, 0.000000)">
                                        <mask id="mask-4" fill="white">
                                            <use xlink:href="#path-3"></use>
                                        </mask>
                                        <use id="Mask" fill="#98DDFF" xlink:href="#path-3"></use>
                                        <path d="M0.0835066002,23.1810151 C0.0835066002,23.4794832 0.0835066002,23.8983131 0.0835066002,23.9485152 C0.0835066002,24.3103496 0.312159554,24.665159 0.752724126,24.665159 C1.1932887,24.665159 1.51668563,24.665159 1.98550984,24.665159 C2.45433404,24.665159 2.68085757,24.2881329 2.68085757,23.9485152 C2.68085757,23.9010253 2.68085757,23.4819905 2.68085757,23.1810151 C2.68085757,22.047067 0.0835066002,22.045334 0.0835066002,23.1810151 Z" fill="#FFFFFF" mask="url(#mask-4)"></path>
                                        <polygon id="Rectangle" fill="#1174DC" mask="url(#mask-4)" points="0.0849192318 21.4829932 2.68159632 21.4829932 2.68159632 23.2244898 0.0849192318 23.2244898"></polygon>
                                        <polygon fill-opacity="0.5" fill="#000000" style="mix-blend-mode: overlay;" mask="url(#mask-4)" points="0.0835066002 2.43629572 0.0835066002 24.4897959 1.09699452 24.4897959 1.08442552 2.44044177"></polygon>
                                    </g>
                                    <polygon id="Path-8" fill="#FFFFFF" points="1.88744524 0.0221179925 0.588769758 2.43629572 3.18612073 2.43629572"></polygon>
                                    <polygon id="Path-8" fill="#003B79" points="1.88744524 0.0221179925 1.24900717 1.20894488 2.52501634 1.20733321"></polygon>
                                </g>
                                <g id="documents" stroke-width="1" fill="none" transform="translate(6.000000, 0.000000)">
                                    <polygon id="shadow" fill-opacity="0.5" fill="#000000" style="mix-blend-mode: overlay;" points="0.604130838 0.759611725 19.1976562 0.759611725 23.7034768 5.28857022 23.8875847 31.8788778 0.744727554 31.8788778"></polygon>
                                    <polygon id="Rectangle" fill="#FFFFFF" points="0.00226042691 0.146788991 18.5957858 0.146788991 23.1016064 4.67574749 23.2857143 31.266055 0.142857143 31.266055"></polygon>
                                    <g id="Group" transform="translate(2.571429, 3.963303)" fill="#D8D8D8">
                                        <rect id="Rectangle-3" x="0" y="0" width="8.85714286" height="7.63302752"></rect>
                                        <rect id="Rectangle-4" x="10.2857143" y="0" width="5.28571429" height="1.32110092"></rect>
                                        <rect id="Rectangle-5" x="10.2857143" y="3.52293578" width="8.14285714" height="1"></rect>
                                        <rect id="Rectangle-5" x="10.2857143" y="5.28440367" width="8.14285714" height="1"></rect>
                                        <rect id="Rectangle-5" x="10.2857143" y="7.19266055" width="8.14285714" height="1"></rect>
                                        <rect id="Rectangle-5" x="0" y="8.95412844" width="18.4285714" height="1"></rect>
                                        <rect id="Rectangle-5" x="0" y="11.0091743" width="18.4285714" height="1"></rect>
                                        <rect id="Rectangle-5" x="0" y="15.412844" width="18.4285714" height="1"></rect>
                                        <rect id="Rectangle-5" x="0" y="17.1743119" width="18.4285714" height="1"></rect>
                                        <rect id="Rectangle-5" x="0" y="18.9357798" width="18.4285714" height="1"></rect>
                                        <rect id="Rectangle-5" x="0" y="20.6972477" width="18.4285714" height="1"></rect>
                                        <rect id="Rectangle-5" x="0" y="22.4587156" width="11.7142857" height="1"></rect>
                                        <rect id="Rectangle-5" x="0" y="12.7706422" width="7" height="1"></rect>
                                    </g>
                                    <polygon id="Rectangle-2" fill="#F3F3F3" points="18.5561035 0.140976687 23.082094 4.70043948 18.5561035 4.70043948"></polygon>
                                </g>
                                <path d="M18.7745753,17.2997241 C21.663017,17.2997241 24.0188226,19.6073361 24.1397195,22.5000391 L26.4842094,22.4991458 C26.6996861,22.1246164 27.1038936,21.8724363 27.5670008,21.8724363 L36.3909223,21.8724363 C37.0803539,21.8724363 37.6392487,22.4313311 37.6392487,23.1207627 C37.6392487,23.8101943 37.0803539,24.369089 36.3909223,24.369089 L27.5670008,24.369089 C27.076956,24.369089 26.6528623,24.0867185 26.4485496,23.6758074 L25.1315593,23.6747241 L25.1321676,23.7154089 L24.0571954,23.7152445 C23.6005688,26.2477326 21.4091303,28.1675066 18.7745753,28.1675066 C15.8087974,28.1675066 13.4045593,25.7346706 13.4045593,22.7336153 C13.4045593,19.7325601 15.8087974,17.2997241 18.7745753,17.2997241 Z M18.7745753,18.4717399 C16.448475,18.4717399 14.5627981,20.3798465 14.5627981,22.7336153 C14.5627981,25.0873842 16.448475,26.9954908 18.7745753,26.9954908 C21.1006756,26.9954908 22.9863525,25.0873842 22.9863525,22.7336153 C22.9863525,20.3798465 21.1006756,18.4717399 18.7745753,18.4717399 Z" id="Combined-Shape" fill-opacity="0.5" fill="#000000" style="mix-blend-mode: overlay;" transform="translate(25.521904, 22.733615) rotate(40.000000) translate(-25.521904, -22.733615) "></path>
                                <g id="magnifying-glass" stroke-width="1" fill="none" transform="translate(25.432281, 22.631112) rotate(40.000000) translate(-25.432281, -22.631112) translate(12.932281, 16.631112)">
                                    <rect id="Rectangle" fill="#A1C2FA" x="10.4154629" y="5.33853765" width="2.90271132" height="1.1748954"></rect>
                                    <rect id="Rectangle" fill="#82B1FF" x="10.4165455" y="5.37863347" width="1.45135566" height="1.1748954"></rect>
                                    <polygon id="Rectangle-15" fill="#FFFFFF" opacity="0.1" transform="translate(3.770757, 4.088390) rotate(39.000000) translate(-3.770757, -4.088390) " points="3.29824511 -0.600776511 4.1908958 -0.595777016 4.24326861 8.77755668 3.35061792 8.77255719"></polygon>
                                    <polygon id="Rectangle-15" fill="#FFFFFF" opacity="0.0600000024" transform="translate(5.301908, 5.722969) rotate(39.000000) translate(-5.301908, -5.722969) " points="4.21237494 1.03034664 6.33906924 1.04225768 6.39144205 10.4155914 4.26474774 10.4036803"></polygon>
                                    <path d="M5.51030882,0.137844114 C8.47608673,0.137844114 10.8803248,2.57068008 10.8803248,5.57173533 C10.8803248,8.57279058 8.47608673,11.0056265 5.51030882,11.0056265 C2.5445309,11.0056265 0.140292869,8.57279058 0.140292869,5.57173533 C0.140292869,2.57068008 2.5445309,0.137844114 5.51030882,0.137844114 Z M5.51030882,1.30985987 C3.18420849,1.30985987 1.2985316,3.2179665 1.2985316,5.57173533 C1.2985316,7.92550415 3.18420849,9.83361079 5.51030882,9.83361079 C7.83640914,9.83361079 9.72208603,7.92550415 9.72208603,5.57173533 C9.72208603,3.2179665 7.83640914,1.30985987 5.51030882,1.30985987 Z" id="Combined-Shape" fill="#C6DAFC"></path>
                                    <rect id="Rectangle-2" fill="#1C3AA9" x="13.054408" y="4.71055629" width="11.3205742" height="2.49665272" rx="1.24832636"></rect>
                                </g>
                            </g>
                        </g>
                    </g>
                </g>
            </g>
        </g>
    </g>
</svg>