<?xml version="1.0" encoding="UTF-8"?>
<svg width="67px" height="57px" viewBox="0 0 67 57" version="1.1" xmlns="http://www.w3.org/2000/svg" xmlns:xlink="http://www.w3.org/1999/xlink">
    <title>Thumbnail_Cloud</title>
    <g id="Page-1" stroke="none" stroke-width="1" fill="none" fill-rule="evenodd" stroke-linecap="round" stroke-linejoin="round">
        <g id="New-Claim-3-3_Upload-Documents" transform="translate(-475.000000, -465.000000)" stroke="#00AC5B" stroke-width="2">
            <g id="Dialogue" transform="translate(231.000000, 221.000000)">
                <g id="Upload-File" transform="translate(37.000000, 108.000000)">
                    <g id="Thumbnail_Cloud" transform="translate(208.000000, 137.000000)">
                        <path d="M38.1034483,41 L50.8703448,41 C58.6725862,41 65,35.2641 65,28.1875 C65,21.1109 58.6725862,15.375 50.8703448,15.375 C50.7941379,15.375 50.7224138,15.39345 50.6484483,15.3955 C49.2834483,6.6953 41.0575862,0 31.087931,0 C20.1612069,0 11.3032759,8.02985 11.3032759,17.9375 C11.3032759,18.81695 11.3974138,19.6759 11.5318966,20.5205 C11.4556897,20.5205 11.3817241,20.5 11.3032759,20.5 C5.06103448,20.5 0,25.08995 0,30.75 C0,36.41005 5.06103448,41 11.3032759,41 L24.6551724,41" id="Stroke-1363"></path>
                        <polyline id="Stroke-1364" points="21 29 32 18 43 29"></polyline>
                        <line x1="32" y1="18" x2="32" y2="55" id="Stroke-1365"></line>
                    </g>
                </g>
            </g>
        </g>
    </g>
</svg>