<?xml version="1.0" encoding="UTF-8"?>
<svg width="34px" height="32px" viewBox="0 0 34 32" version="1.1" xmlns="http://www.w3.org/2000/svg" xmlns:xlink="http://www.w3.org/1999/xlink">
    <title>Total claims</title>
    <g id="Page-1" stroke="none" stroke-width="1" fill="none" fill-rule="evenodd">
        <g id="Dashboard" transform="translate(-198.000000, -690.000000)" fill="#FFFFFF" stroke="#FFFFFF">
            <g id="Stats---All" transform="translate(153.000000, 646.000000)">
                <g id="Icon" transform="translate(26.000000, 24.000000)">
                    <g id="Total-claims" transform="translate(20.000000, 20.000000)">
                        <path d="M21.5393103,10.3580488 C21.4951724,10.3814634 21.44,10.4165854 21.3958621,10.4517073 L10.0082759,20.6019512 C9.97517241,20.6253659 9.94206897,20.6370732 9.90896552,20.6604878 C8.93793103,21.4565854 7.79034483,21.8780488 6.59862069,21.8780488 C3.56413793,21.8780488 1.10344828,19.2556098 1.10344828,16.0243902 C1.10344828,12.804878 3.56413793,10.1707317 6.59862069,10.1707317 C7.79034483,10.1707317 8.93793103,10.5921951 9.90896552,11.3882927 C9.93103448,11.4117073 9.95310345,11.4234146 9.97517241,11.435122 L12.2041379,13.6829268 L13.4969964,15.1198024 C13.6527161,15.1198024 13.8042203,14.8740681 13.9783157,14.7001343 C14.1496453,14.5289636 14.3448276,14.4308828 14.3448276,14.2682927 L13.2413793,13.1209756 L10.6262069,10.475122 C10.582069,10.4282927 10.5268966,10.3931707 10.4606897,10.3697561 C9.31310345,9.48 7.98896552,9 6.59862069,9 C2.95724138,9 0,12.1492683 0,16.0243902 C0,19.8995122 2.95724138,23.0487805 6.59862069,23.0487805 C7.97793103,23.0487805 9.31310345,22.5804878 10.4606897,21.6907317 C10.5048276,21.6673171 10.56,21.6439024 10.6041379,21.5970732 L21.9917241,11.4585366 L22.0910345,11.3882927 C23.062069,10.5921951 24.2096552,10.1707317 25.4013793,10.1707317 C28.4358621,10.1707317 30.8965517,12.804878 30.8965517,16.0243902 C30.8965517,19.2556098 28.4358621,21.8780488 25.4013793,21.8780488 C24.2096552,21.8780488 23.062069,21.4565854 22.0910345,20.6604878 C22.0689655,20.6487805 22.0468966,20.6370732 22.0248276,20.6253659 L19.7958621,18.3658537 L18.4564862,16.9228551 C18.3062832,16.9228551 18.1217096,17.1591943 17.9624642,17.3270448 C17.794144,17.5044605 17.6551724,17.6180604 17.6551724,17.7804878 L18.7586207,18.9278049 L21.3737931,21.5736585 C21.417931,21.6204878 21.4731034,21.6673171 21.5393103,21.6907317 C22.6868966,22.5804878 24.0110345,23.0487805 25.4013793,23.0487805 C29.0427586,23.0487805 32,19.8995122 32,16.0243902 C32,12.1492683 29.0427586,9 25.4013793,9 C24.022069,9 22.6868966,9.46829268 21.5393103,10.3580488 Z" id="Fill-2521"></path>
                    </g>
                </g>
            </g>
        </g>
    </g>
</svg>