<svg width="14" height="14" viewBox="0 0 14 14" fill="none" xmlns="http://www.w3.org/2000/svg">
<path fill-rule="evenodd" clip-rule="evenodd" d="M11.638 2.18987C11.0515 1.60338 10.1004 1.60338 9.51391 2.18987L8.18964 3.51415C7.79108 3.91271 7.66336 4.47966 7.8065 4.98614L8.39623 4.39641C8.5915 4.20115 8.90808 4.20115 9.10334 4.39641C9.2986 4.59167 9.2986 4.90825 9.10334 5.10351L8.37926 5.8276C8.96705 6.39637 9.90488 6.39048 10.4854 5.80994L11.8097 4.48566C12.3962 3.89917 12.3962 2.94803 11.8097 2.36154L11.638 2.18987ZM7.67209 6.53476C8.65046 7.49402 10.2215 7.48812 11.1925 6.51704L12.5168 5.19277C13.4938 4.21575 13.4938 2.63144 12.5168 1.65443L12.1796 1.99166L12.5168 1.65443L12.3451 1.48276C11.3681 0.505746 9.78382 0.505746 8.80681 1.48276L7.48253 2.80704C6.68561 3.60396 6.53871 4.80493 7.04184 5.7508L5.75081 7.04183C4.80494 6.53869 3.60397 6.68559 2.80704 7.48251L1.48276 8.80679C0.505746 9.78381 0.505746 11.3681 1.48276 12.3451L1.65443 12.5168C2.63144 13.4938 4.21575 13.4938 5.19277 12.5168L6.51704 11.1925C7.48811 10.2214 7.49402 8.65046 6.53477 7.67208L7.67209 6.53476ZM4.98616 7.80649L3.89639 8.89625C3.70113 9.09151 3.70113 9.4081 3.89639 9.60336C4.09165 9.79862 4.40824 9.79862 4.6035 9.60336L5.82761 8.37925C6.39637 8.96704 6.39048 9.90487 5.80994 10.4854L4.48566 11.8097C3.89917 12.3962 2.94803 12.3962 2.36154 11.8097L2.18987 11.638L1.91257 11.9153L2.18987 11.638C1.60338 11.0515 1.60338 10.1004 2.18987 9.5139L3.51415 8.18962C3.91271 7.79106 4.47967 7.66335 4.98616 7.80649Z" fill="#0062FF"/>
</svg>
