<?xml version="1.0" encoding="UTF-8"?>
<svg width="32px" height="32px" viewBox="0 0 32 32" version="1.1" xmlns="http://www.w3.org/2000/svg" xmlns:xlink="http://www.w3.org/1999/xlink">
    <title>User_Female</title>
    <defs>
        <circle id="path-1" cx="16" cy="16" r="16"></circle>
    </defs>
    <g id="Page-1" stroke="none" stroke-width="1" fill="none" fill-rule="evenodd">
        <g id="New-Claim-1-1_ChooseEvent" transform="translate(-257.000000, -515.000000)">
            <g id="Detail" transform="translate(233.000000, 487.000000)">
                <g id="Group-16" transform="translate(24.000000, 26.000000)">
                    <g id="Fill_Female" transform="translate(0.000000, 2.000000)">
                        <mask id="mask-2" fill="white">
                            <use xlink:href="#path-1"></use>
                        </mask>
                        <use id="Mask" fill="#FC4C4C" xlink:href="#path-1"></use>
                        <path d="M24.8881333,26.2828 L20.3894667,25.1581333 L20.2522667,24.0614667 C23.4218667,23.5621333 25.0188,22.7137333 25.0878667,22.6773333 C25.2297333,22.6008 25.3230667,22.4561333 25.3324,22.2946667 C25.3426667,22.1341333 25.268,21.9792 25.1364,21.8858667 C25.1102667,21.8672 22.5333333,19.9716 22.5333333,13.8666667 C22.5333333,7.50226667 20.7562667,6.16666667 19.2666667,6.16666667 L18.8746667,6.16666667 C18.044,5.35653333 17.4345333,5 15.7666667,5 C13.7926667,5 9.46666667,7.23253333 9.46666667,13.8666667 C9.46666667,19.9184 6.88693333,21.8690667 6.8636,21.8858667 C6.732,21.9782667 6.65826667,22.1332 6.6676,22.2937333 C6.67693333,22.4542667 6.7684,22.5989333 6.90933333,22.6754667 C6.97746667,22.7137333 8.53893333,23.5537333 11.6889333,24.0530667 L11.4154667,25.1488 L6.8776,26.2828 C4.00573333,27.0005333 2,29.57 2,32.5333333 C2,32.7909333 2.20813333,33 2.46666667,33 L29.5333333,33 C29.7909333,33 30,32.7909333 30,32.5333333 C30,29.6521333 27.8505333,27.0238667 24.8881333,26.2828" fill="#FFFFFF" mask="url(#mask-2)"></path>
                    </g>
                </g>
            </g>
        </g>
    </g>
</svg>