<svg width="20" height="20" viewBox="0 0 20 20" fill="none" xmlns="http://www.w3.org/2000/svg">
<path fill-rule="evenodd" clip-rule="evenodd" d="M17.5 7.56667V7.43333C17.5003 7.29584 17.4314 7.16743 17.3167 7.09167L10.925 2.71667C10.7188 2.57567 10.4748 2.50016 10.225 2.5H9.775C9.52519 2.50016 9.28123 2.57567 9.075 2.71667L2.68334 7.09167C2.5686 7.16743 2.49969 7.29584 2.5 7.43333V7.56667C2.49969 7.70416 2.5686 7.83257 2.68334 7.90833L9.075 12.2833C9.28123 12.4243 9.52519 12.4998 9.775 12.5H10.225C10.4748 12.4998 10.7188 12.4243 10.925 12.2833L17.3167 7.90833C17.4314 7.83257 17.5003 7.70416 17.5 7.56667ZM14.0833 11.8917L15.5583 10.8833L17.3167 12.0917C17.4314 12.1674 17.5003 12.2958 17.5 12.4333V12.5667C17.5003 12.7042 17.4314 12.8326 17.3167 12.9083L10.925 17.2833C10.7188 17.4243 10.4748 17.4998 10.225 17.5H9.775C9.52519 17.4998 9.28123 17.4243 9.075 17.2833L2.68334 12.9083C2.5686 12.8326 2.49969 12.7042 2.5 12.5667V12.4333C2.49969 12.2958 2.5686 12.1674 2.68334 12.0917L4.44167 10.8833L5.88334 11.8917L5 12.5L9.94167 15.8333H10.125L15 12.5L14.0833 11.8917Z" fill="#9599B6"/>
</svg>
